%TF.GenerationSoftware,KiCad,Pcbnew,9.0.1-9.0.1-0~ubuntu22.04.1*%
%TF.CreationDate,2025-05-01T16:45:02+02:00*%
%TF.ProjectId,pcb,7063622e-6b69-4636-9164-5f7063625858,rev?*%
%TF.SameCoordinates,Original*%
%TF.FileFunction,Soldermask,Top*%
%TF.FilePolarity,Negative*%
%FSLAX46Y46*%
G04 Gerber Fmt 4.6, Leading zero omitted, Abs format (unit mm)*
G04 Created by KiCad (PCBNEW 9.0.1-9.0.1-0~ubuntu22.04.1) date 2025-05-01 16:45:02*
%MOMM*%
%LPD*%
G01*
G04 APERTURE LIST*
G04 Aperture macros list*
%AMRoundRect*
0 Rectangle with rounded corners*
0 $1 Rounding radius*
0 $2 $3 $4 $5 $6 $7 $8 $9 X,Y pos of 4 corners*
0 Add a 4 corners polygon primitive as box body*
4,1,4,$2,$3,$4,$5,$6,$7,$8,$9,$2,$3,0*
0 Add four circle primitives for the rounded corners*
1,1,$1+$1,$2,$3*
1,1,$1+$1,$4,$5*
1,1,$1+$1,$6,$7*
1,1,$1+$1,$8,$9*
0 Add four rect primitives between the rounded corners*
20,1,$1+$1,$2,$3,$4,$5,0*
20,1,$1+$1,$4,$5,$6,$7,0*
20,1,$1+$1,$6,$7,$8,$9,0*
20,1,$1+$1,$8,$9,$2,$3,0*%
G04 Aperture macros list end*
%ADD10R,1.700000X1.700000*%
%ADD11C,1.700000*%
%ADD12C,3.200000*%
%ADD13R,1.600000X1.600000*%
%ADD14C,1.600000*%
%ADD15C,1.524000*%
%ADD16R,2.000000X1.905000*%
%ADD17O,2.000000X1.905000*%
%ADD18R,3.500000X3.500000*%
%ADD19RoundRect,0.750000X1.000000X-0.750000X1.000000X0.750000X-1.000000X0.750000X-1.000000X-0.750000X0*%
%ADD20RoundRect,0.875000X0.875000X-0.875000X0.875000X0.875000X-0.875000X0.875000X-0.875000X-0.875000X0*%
%ADD21C,2.184000*%
%ADD22C,2.000000*%
%ADD23RoundRect,0.250000X-0.600000X-0.750000X0.600000X-0.750000X0.600000X0.750000X-0.600000X0.750000X0*%
%ADD24O,1.700000X2.000000*%
G04 APERTURE END LIST*
D10*
%TO.C,J4*%
X188540000Y-115000000D03*
D11*
X186000000Y-115000000D03*
X183460000Y-115000000D03*
X180920000Y-115000000D03*
%TD*%
D12*
%TO.C,H4*%
X192500000Y-120000000D03*
%TD*%
%TO.C,H3*%
X116000000Y-120000000D03*
%TD*%
%TO.C,H2*%
X192000000Y-53500000D03*
%TD*%
%TO.C,H1*%
X116000000Y-53500000D03*
%TD*%
D13*
%TO.C,C1*%
X142500000Y-97000000D03*
D14*
X145000000Y-97000000D03*
%TD*%
D15*
%TO.C,U2*%
X121495000Y-97999000D03*
X121495000Y-100539000D03*
X121495000Y-103079000D03*
X121495000Y-105619000D03*
X121495000Y-108159000D03*
X121495000Y-110699000D03*
X121495000Y-113239000D03*
X121495000Y-115779000D03*
%TD*%
D16*
%TO.C,U3*%
X162500000Y-100040000D03*
D17*
X162500000Y-97500000D03*
X162500000Y-94960000D03*
%TD*%
D18*
%TO.C,J3*%
X147000000Y-103500000D03*
D19*
X147000000Y-109500000D03*
D20*
X151700000Y-106500000D03*
%TD*%
D21*
%TO.C,U4*%
X172730000Y-107930000D03*
X175270000Y-107930000D03*
X177810000Y-107930000D03*
X180350000Y-107930000D03*
X182890000Y-107930000D03*
X185430000Y-107930000D03*
X187970000Y-107930000D03*
X190510000Y-107930000D03*
X190510000Y-92690000D03*
X187970000Y-92690000D03*
X185430000Y-92690000D03*
X182890000Y-92690000D03*
X180350000Y-92690000D03*
X177810000Y-92690000D03*
X175270000Y-92690000D03*
X172730000Y-92690000D03*
%TD*%
D22*
%TO.C,U1*%
X129220000Y-83700000D03*
X131760000Y-83700000D03*
X134300000Y-83700000D03*
X136840000Y-83700000D03*
X139380000Y-83700000D03*
X141920000Y-83700000D03*
X144460000Y-83700000D03*
X147000000Y-83700000D03*
X149540000Y-83700000D03*
X152080000Y-83700000D03*
X154620000Y-83700000D03*
X157160000Y-83700000D03*
X159700000Y-83700000D03*
X162240000Y-83700000D03*
X164780000Y-83700000D03*
X164780000Y-58300000D03*
X162240000Y-58300000D03*
X159700000Y-58300000D03*
X157160000Y-58300000D03*
X154620000Y-58300000D03*
X152080000Y-58300000D03*
X149540000Y-58300000D03*
X147000000Y-58300000D03*
X144460000Y-58300000D03*
X141920000Y-58300000D03*
X139380000Y-58300000D03*
X136840000Y-58300000D03*
X134300000Y-58300000D03*
X131760000Y-58300000D03*
X129220000Y-58300000D03*
%TD*%
D23*
%TO.C,J2*%
X158500000Y-111000000D03*
D24*
X161000000Y-111000000D03*
%TD*%
D13*
%TO.C,C2*%
X152500000Y-95500000D03*
D14*
X155000000Y-95500000D03*
%TD*%
M02*
