%TF.GenerationSoftware,KiCad,Pcbnew,9.0.1-9.0.1-0~ubuntu22.04.1*%
%TF.CreationDate,2025-05-01T16:45:02+02:00*%
%TF.ProjectId,pcb,7063622e-6b69-4636-9164-5f7063625858,rev?*%
%TF.SameCoordinates,Original*%
%TF.FileFunction,Legend,Top*%
%TF.FilePolarity,Positive*%
%FSLAX46Y46*%
G04 Gerber Fmt 4.6, Leading zero omitted, Abs format (unit mm)*
G04 Created by KiCad (PCBNEW 9.0.1-9.0.1-0~ubuntu22.04.1) date 2025-05-01 16:45:02*
%MOMM*%
%LPD*%
G01*
G04 APERTURE LIST*
%ADD10C,0.150000*%
%ADD11C,0.120000*%
%ADD12C,0.127000*%
%ADD13C,0.200000*%
%ADD14C,0.300000*%
G04 APERTURE END LIST*
D10*
X190374819Y-115333333D02*
X191089104Y-115333333D01*
X191089104Y-115333333D02*
X191231961Y-115380952D01*
X191231961Y-115380952D02*
X191327200Y-115476190D01*
X191327200Y-115476190D02*
X191374819Y-115619047D01*
X191374819Y-115619047D02*
X191374819Y-115714285D01*
X190708152Y-114428571D02*
X191374819Y-114428571D01*
X190327200Y-114666666D02*
X191041485Y-114904761D01*
X191041485Y-114904761D02*
X191041485Y-114285714D01*
X191738095Y-116254819D02*
X191738095Y-115254819D01*
X191738095Y-115731009D02*
X192309523Y-115731009D01*
X192309523Y-116254819D02*
X192309523Y-115254819D01*
X193214285Y-115588152D02*
X193214285Y-116254819D01*
X192976190Y-115207200D02*
X192738095Y-115921485D01*
X192738095Y-115921485D02*
X193357142Y-115921485D01*
X115238095Y-116254819D02*
X115238095Y-115254819D01*
X115238095Y-115731009D02*
X115809523Y-115731009D01*
X115809523Y-116254819D02*
X115809523Y-115254819D01*
X116190476Y-115254819D02*
X116809523Y-115254819D01*
X116809523Y-115254819D02*
X116476190Y-115635771D01*
X116476190Y-115635771D02*
X116619047Y-115635771D01*
X116619047Y-115635771D02*
X116714285Y-115683390D01*
X116714285Y-115683390D02*
X116761904Y-115731009D01*
X116761904Y-115731009D02*
X116809523Y-115826247D01*
X116809523Y-115826247D02*
X116809523Y-116064342D01*
X116809523Y-116064342D02*
X116761904Y-116159580D01*
X116761904Y-116159580D02*
X116714285Y-116207200D01*
X116714285Y-116207200D02*
X116619047Y-116254819D01*
X116619047Y-116254819D02*
X116333333Y-116254819D01*
X116333333Y-116254819D02*
X116238095Y-116207200D01*
X116238095Y-116207200D02*
X116190476Y-116159580D01*
X191238095Y-49754819D02*
X191238095Y-48754819D01*
X191238095Y-49231009D02*
X191809523Y-49231009D01*
X191809523Y-49754819D02*
X191809523Y-48754819D01*
X192238095Y-48850057D02*
X192285714Y-48802438D01*
X192285714Y-48802438D02*
X192380952Y-48754819D01*
X192380952Y-48754819D02*
X192619047Y-48754819D01*
X192619047Y-48754819D02*
X192714285Y-48802438D01*
X192714285Y-48802438D02*
X192761904Y-48850057D01*
X192761904Y-48850057D02*
X192809523Y-48945295D01*
X192809523Y-48945295D02*
X192809523Y-49040533D01*
X192809523Y-49040533D02*
X192761904Y-49183390D01*
X192761904Y-49183390D02*
X192190476Y-49754819D01*
X192190476Y-49754819D02*
X192809523Y-49754819D01*
X115238095Y-49754819D02*
X115238095Y-48754819D01*
X115238095Y-49231009D02*
X115809523Y-49231009D01*
X115809523Y-49754819D02*
X115809523Y-48754819D01*
X116809523Y-49754819D02*
X116238095Y-49754819D01*
X116523809Y-49754819D02*
X116523809Y-48754819D01*
X116523809Y-48754819D02*
X116428571Y-48897676D01*
X116428571Y-48897676D02*
X116333333Y-48992914D01*
X116333333Y-48992914D02*
X116238095Y-49040533D01*
X143583333Y-93609580D02*
X143535714Y-93657200D01*
X143535714Y-93657200D02*
X143392857Y-93704819D01*
X143392857Y-93704819D02*
X143297619Y-93704819D01*
X143297619Y-93704819D02*
X143154762Y-93657200D01*
X143154762Y-93657200D02*
X143059524Y-93561961D01*
X143059524Y-93561961D02*
X143011905Y-93466723D01*
X143011905Y-93466723D02*
X142964286Y-93276247D01*
X142964286Y-93276247D02*
X142964286Y-93133390D01*
X142964286Y-93133390D02*
X143011905Y-92942914D01*
X143011905Y-92942914D02*
X143059524Y-92847676D01*
X143059524Y-92847676D02*
X143154762Y-92752438D01*
X143154762Y-92752438D02*
X143297619Y-92704819D01*
X143297619Y-92704819D02*
X143392857Y-92704819D01*
X143392857Y-92704819D02*
X143535714Y-92752438D01*
X143535714Y-92752438D02*
X143583333Y-92800057D01*
X144535714Y-93704819D02*
X143964286Y-93704819D01*
X144250000Y-93704819D02*
X144250000Y-92704819D01*
X144250000Y-92704819D02*
X144154762Y-92847676D01*
X144154762Y-92847676D02*
X144059524Y-92942914D01*
X144059524Y-92942914D02*
X143964286Y-92990533D01*
X122003095Y-94913819D02*
X122003095Y-95723342D01*
X122003095Y-95723342D02*
X122050714Y-95818580D01*
X122050714Y-95818580D02*
X122098333Y-95866200D01*
X122098333Y-95866200D02*
X122193571Y-95913819D01*
X122193571Y-95913819D02*
X122384047Y-95913819D01*
X122384047Y-95913819D02*
X122479285Y-95866200D01*
X122479285Y-95866200D02*
X122526904Y-95818580D01*
X122526904Y-95818580D02*
X122574523Y-95723342D01*
X122574523Y-95723342D02*
X122574523Y-94913819D01*
X123003095Y-95009057D02*
X123050714Y-94961438D01*
X123050714Y-94961438D02*
X123145952Y-94913819D01*
X123145952Y-94913819D02*
X123384047Y-94913819D01*
X123384047Y-94913819D02*
X123479285Y-94961438D01*
X123479285Y-94961438D02*
X123526904Y-95009057D01*
X123526904Y-95009057D02*
X123574523Y-95104295D01*
X123574523Y-95104295D02*
X123574523Y-95199533D01*
X123574523Y-95199533D02*
X123526904Y-95342390D01*
X123526904Y-95342390D02*
X122955476Y-95913819D01*
X122955476Y-95913819D02*
X123574523Y-95913819D01*
X124090714Y-106026200D02*
X124233571Y-106073819D01*
X124233571Y-106073819D02*
X124471666Y-106073819D01*
X124471666Y-106073819D02*
X124566904Y-106026200D01*
X124566904Y-106026200D02*
X124614523Y-105978580D01*
X124614523Y-105978580D02*
X124662142Y-105883342D01*
X124662142Y-105883342D02*
X124662142Y-105788104D01*
X124662142Y-105788104D02*
X124614523Y-105692866D01*
X124614523Y-105692866D02*
X124566904Y-105645247D01*
X124566904Y-105645247D02*
X124471666Y-105597628D01*
X124471666Y-105597628D02*
X124281190Y-105550009D01*
X124281190Y-105550009D02*
X124185952Y-105502390D01*
X124185952Y-105502390D02*
X124138333Y-105454771D01*
X124138333Y-105454771D02*
X124090714Y-105359533D01*
X124090714Y-105359533D02*
X124090714Y-105264295D01*
X124090714Y-105264295D02*
X124138333Y-105169057D01*
X124138333Y-105169057D02*
X124185952Y-105121438D01*
X124185952Y-105121438D02*
X124281190Y-105073819D01*
X124281190Y-105073819D02*
X124519285Y-105073819D01*
X124519285Y-105073819D02*
X124662142Y-105121438D01*
X125090714Y-106073819D02*
X125090714Y-105073819D01*
X125090714Y-105073819D02*
X125328809Y-105073819D01*
X125328809Y-105073819D02*
X125471666Y-105121438D01*
X125471666Y-105121438D02*
X125566904Y-105216676D01*
X125566904Y-105216676D02*
X125614523Y-105311914D01*
X125614523Y-105311914D02*
X125662142Y-105502390D01*
X125662142Y-105502390D02*
X125662142Y-105645247D01*
X125662142Y-105645247D02*
X125614523Y-105835723D01*
X125614523Y-105835723D02*
X125566904Y-105930961D01*
X125566904Y-105930961D02*
X125471666Y-106026200D01*
X125471666Y-106026200D02*
X125328809Y-106073819D01*
X125328809Y-106073819D02*
X125090714Y-106073819D01*
X126043095Y-105788104D02*
X126519285Y-105788104D01*
X125947857Y-106073819D02*
X126281190Y-105073819D01*
X126281190Y-105073819D02*
X126614523Y-106073819D01*
X124066905Y-113408104D02*
X124543095Y-113408104D01*
X123971667Y-113693819D02*
X124305000Y-112693819D01*
X124305000Y-112693819D02*
X124638333Y-113693819D01*
X124971667Y-113693819D02*
X124971667Y-112693819D01*
X124971667Y-112693819D02*
X125209762Y-112693819D01*
X125209762Y-112693819D02*
X125352619Y-112741438D01*
X125352619Y-112741438D02*
X125447857Y-112836676D01*
X125447857Y-112836676D02*
X125495476Y-112931914D01*
X125495476Y-112931914D02*
X125543095Y-113122390D01*
X125543095Y-113122390D02*
X125543095Y-113265247D01*
X125543095Y-113265247D02*
X125495476Y-113455723D01*
X125495476Y-113455723D02*
X125447857Y-113550961D01*
X125447857Y-113550961D02*
X125352619Y-113646200D01*
X125352619Y-113646200D02*
X125209762Y-113693819D01*
X125209762Y-113693819D02*
X124971667Y-113693819D01*
X125971667Y-113693819D02*
X125971667Y-112693819D01*
X125971667Y-112693819D02*
X126209762Y-112693819D01*
X126209762Y-112693819D02*
X126352619Y-112741438D01*
X126352619Y-112741438D02*
X126447857Y-112836676D01*
X126447857Y-112836676D02*
X126495476Y-112931914D01*
X126495476Y-112931914D02*
X126543095Y-113122390D01*
X126543095Y-113122390D02*
X126543095Y-113265247D01*
X126543095Y-113265247D02*
X126495476Y-113455723D01*
X126495476Y-113455723D02*
X126447857Y-113550961D01*
X126447857Y-113550961D02*
X126352619Y-113646200D01*
X126352619Y-113646200D02*
X126209762Y-113693819D01*
X126209762Y-113693819D02*
X125971667Y-113693819D01*
X124543095Y-100041438D02*
X124447857Y-99993819D01*
X124447857Y-99993819D02*
X124305000Y-99993819D01*
X124305000Y-99993819D02*
X124162143Y-100041438D01*
X124162143Y-100041438D02*
X124066905Y-100136676D01*
X124066905Y-100136676D02*
X124019286Y-100231914D01*
X124019286Y-100231914D02*
X123971667Y-100422390D01*
X123971667Y-100422390D02*
X123971667Y-100565247D01*
X123971667Y-100565247D02*
X124019286Y-100755723D01*
X124019286Y-100755723D02*
X124066905Y-100850961D01*
X124066905Y-100850961D02*
X124162143Y-100946200D01*
X124162143Y-100946200D02*
X124305000Y-100993819D01*
X124305000Y-100993819D02*
X124400238Y-100993819D01*
X124400238Y-100993819D02*
X124543095Y-100946200D01*
X124543095Y-100946200D02*
X124590714Y-100898580D01*
X124590714Y-100898580D02*
X124590714Y-100565247D01*
X124590714Y-100565247D02*
X124400238Y-100565247D01*
X125019286Y-100993819D02*
X125019286Y-99993819D01*
X125019286Y-99993819D02*
X125590714Y-100993819D01*
X125590714Y-100993819D02*
X125590714Y-99993819D01*
X126066905Y-100993819D02*
X126066905Y-99993819D01*
X126066905Y-99993819D02*
X126305000Y-99993819D01*
X126305000Y-99993819D02*
X126447857Y-100041438D01*
X126447857Y-100041438D02*
X126543095Y-100136676D01*
X126543095Y-100136676D02*
X126590714Y-100231914D01*
X126590714Y-100231914D02*
X126638333Y-100422390D01*
X126638333Y-100422390D02*
X126638333Y-100565247D01*
X126638333Y-100565247D02*
X126590714Y-100755723D01*
X126590714Y-100755723D02*
X126543095Y-100850961D01*
X126543095Y-100850961D02*
X126447857Y-100946200D01*
X126447857Y-100946200D02*
X126305000Y-100993819D01*
X126305000Y-100993819D02*
X126066905Y-100993819D01*
X123971667Y-97453819D02*
X124305000Y-98453819D01*
X124305000Y-98453819D02*
X124638333Y-97453819D01*
X125543095Y-98358580D02*
X125495476Y-98406200D01*
X125495476Y-98406200D02*
X125352619Y-98453819D01*
X125352619Y-98453819D02*
X125257381Y-98453819D01*
X125257381Y-98453819D02*
X125114524Y-98406200D01*
X125114524Y-98406200D02*
X125019286Y-98310961D01*
X125019286Y-98310961D02*
X124971667Y-98215723D01*
X124971667Y-98215723D02*
X124924048Y-98025247D01*
X124924048Y-98025247D02*
X124924048Y-97882390D01*
X124924048Y-97882390D02*
X124971667Y-97691914D01*
X124971667Y-97691914D02*
X125019286Y-97596676D01*
X125019286Y-97596676D02*
X125114524Y-97501438D01*
X125114524Y-97501438D02*
X125257381Y-97453819D01*
X125257381Y-97453819D02*
X125352619Y-97453819D01*
X125352619Y-97453819D02*
X125495476Y-97501438D01*
X125495476Y-97501438D02*
X125543095Y-97549057D01*
X126543095Y-98358580D02*
X126495476Y-98406200D01*
X126495476Y-98406200D02*
X126352619Y-98453819D01*
X126352619Y-98453819D02*
X126257381Y-98453819D01*
X126257381Y-98453819D02*
X126114524Y-98406200D01*
X126114524Y-98406200D02*
X126019286Y-98310961D01*
X126019286Y-98310961D02*
X125971667Y-98215723D01*
X125971667Y-98215723D02*
X125924048Y-98025247D01*
X125924048Y-98025247D02*
X125924048Y-97882390D01*
X125924048Y-97882390D02*
X125971667Y-97691914D01*
X125971667Y-97691914D02*
X126019286Y-97596676D01*
X126019286Y-97596676D02*
X126114524Y-97501438D01*
X126114524Y-97501438D02*
X126257381Y-97453819D01*
X126257381Y-97453819D02*
X126352619Y-97453819D01*
X126352619Y-97453819D02*
X126495476Y-97501438D01*
X126495476Y-97501438D02*
X126543095Y-97549057D01*
X124400238Y-116233819D02*
X124400238Y-115233819D01*
X124876428Y-116233819D02*
X124876428Y-115233819D01*
X124876428Y-115233819D02*
X125447856Y-116233819D01*
X125447856Y-116233819D02*
X125447856Y-115233819D01*
X125781190Y-115233819D02*
X126352618Y-115233819D01*
X126066904Y-116233819D02*
X126066904Y-115233819D01*
X124043095Y-107613819D02*
X124709761Y-108613819D01*
X124709761Y-107613819D02*
X124043095Y-108613819D01*
X125090714Y-108613819D02*
X125090714Y-107613819D01*
X125090714Y-107613819D02*
X125328809Y-107613819D01*
X125328809Y-107613819D02*
X125471666Y-107661438D01*
X125471666Y-107661438D02*
X125566904Y-107756676D01*
X125566904Y-107756676D02*
X125614523Y-107851914D01*
X125614523Y-107851914D02*
X125662142Y-108042390D01*
X125662142Y-108042390D02*
X125662142Y-108185247D01*
X125662142Y-108185247D02*
X125614523Y-108375723D01*
X125614523Y-108375723D02*
X125566904Y-108470961D01*
X125566904Y-108470961D02*
X125471666Y-108566200D01*
X125471666Y-108566200D02*
X125328809Y-108613819D01*
X125328809Y-108613819D02*
X125090714Y-108613819D01*
X126043095Y-108328104D02*
X126519285Y-108328104D01*
X125947857Y-108613819D02*
X126281190Y-107613819D01*
X126281190Y-107613819D02*
X126614523Y-108613819D01*
X124114524Y-103486200D02*
X124257381Y-103533819D01*
X124257381Y-103533819D02*
X124495476Y-103533819D01*
X124495476Y-103533819D02*
X124590714Y-103486200D01*
X124590714Y-103486200D02*
X124638333Y-103438580D01*
X124638333Y-103438580D02*
X124685952Y-103343342D01*
X124685952Y-103343342D02*
X124685952Y-103248104D01*
X124685952Y-103248104D02*
X124638333Y-103152866D01*
X124638333Y-103152866D02*
X124590714Y-103105247D01*
X124590714Y-103105247D02*
X124495476Y-103057628D01*
X124495476Y-103057628D02*
X124305000Y-103010009D01*
X124305000Y-103010009D02*
X124209762Y-102962390D01*
X124209762Y-102962390D02*
X124162143Y-102914771D01*
X124162143Y-102914771D02*
X124114524Y-102819533D01*
X124114524Y-102819533D02*
X124114524Y-102724295D01*
X124114524Y-102724295D02*
X124162143Y-102629057D01*
X124162143Y-102629057D02*
X124209762Y-102581438D01*
X124209762Y-102581438D02*
X124305000Y-102533819D01*
X124305000Y-102533819D02*
X124543095Y-102533819D01*
X124543095Y-102533819D02*
X124685952Y-102581438D01*
X125685952Y-103438580D02*
X125638333Y-103486200D01*
X125638333Y-103486200D02*
X125495476Y-103533819D01*
X125495476Y-103533819D02*
X125400238Y-103533819D01*
X125400238Y-103533819D02*
X125257381Y-103486200D01*
X125257381Y-103486200D02*
X125162143Y-103390961D01*
X125162143Y-103390961D02*
X125114524Y-103295723D01*
X125114524Y-103295723D02*
X125066905Y-103105247D01*
X125066905Y-103105247D02*
X125066905Y-102962390D01*
X125066905Y-102962390D02*
X125114524Y-102771914D01*
X125114524Y-102771914D02*
X125162143Y-102676676D01*
X125162143Y-102676676D02*
X125257381Y-102581438D01*
X125257381Y-102581438D02*
X125400238Y-102533819D01*
X125400238Y-102533819D02*
X125495476Y-102533819D01*
X125495476Y-102533819D02*
X125638333Y-102581438D01*
X125638333Y-102581438D02*
X125685952Y-102629057D01*
X126590714Y-103533819D02*
X126114524Y-103533819D01*
X126114524Y-103533819D02*
X126114524Y-102533819D01*
X124066905Y-110153819D02*
X124733571Y-111153819D01*
X124733571Y-110153819D02*
X124066905Y-111153819D01*
X125685952Y-111058580D02*
X125638333Y-111106200D01*
X125638333Y-111106200D02*
X125495476Y-111153819D01*
X125495476Y-111153819D02*
X125400238Y-111153819D01*
X125400238Y-111153819D02*
X125257381Y-111106200D01*
X125257381Y-111106200D02*
X125162143Y-111010961D01*
X125162143Y-111010961D02*
X125114524Y-110915723D01*
X125114524Y-110915723D02*
X125066905Y-110725247D01*
X125066905Y-110725247D02*
X125066905Y-110582390D01*
X125066905Y-110582390D02*
X125114524Y-110391914D01*
X125114524Y-110391914D02*
X125162143Y-110296676D01*
X125162143Y-110296676D02*
X125257381Y-110201438D01*
X125257381Y-110201438D02*
X125400238Y-110153819D01*
X125400238Y-110153819D02*
X125495476Y-110153819D01*
X125495476Y-110153819D02*
X125638333Y-110201438D01*
X125638333Y-110201438D02*
X125685952Y-110249057D01*
X126590714Y-111153819D02*
X126114524Y-111153819D01*
X126114524Y-111153819D02*
X126114524Y-110153819D01*
X157684819Y-98261904D02*
X158494342Y-98261904D01*
X158494342Y-98261904D02*
X158589580Y-98214285D01*
X158589580Y-98214285D02*
X158637200Y-98166666D01*
X158637200Y-98166666D02*
X158684819Y-98071428D01*
X158684819Y-98071428D02*
X158684819Y-97880952D01*
X158684819Y-97880952D02*
X158637200Y-97785714D01*
X158637200Y-97785714D02*
X158589580Y-97738095D01*
X158589580Y-97738095D02*
X158494342Y-97690476D01*
X158494342Y-97690476D02*
X157684819Y-97690476D01*
X157684819Y-97309523D02*
X157684819Y-96690476D01*
X157684819Y-96690476D02*
X158065771Y-97023809D01*
X158065771Y-97023809D02*
X158065771Y-96880952D01*
X158065771Y-96880952D02*
X158113390Y-96785714D01*
X158113390Y-96785714D02*
X158161009Y-96738095D01*
X158161009Y-96738095D02*
X158256247Y-96690476D01*
X158256247Y-96690476D02*
X158494342Y-96690476D01*
X158494342Y-96690476D02*
X158589580Y-96738095D01*
X158589580Y-96738095D02*
X158637200Y-96785714D01*
X158637200Y-96785714D02*
X158684819Y-96880952D01*
X158684819Y-96880952D02*
X158684819Y-97166666D01*
X158684819Y-97166666D02*
X158637200Y-97261904D01*
X158637200Y-97261904D02*
X158589580Y-97309523D01*
X152204819Y-112283333D02*
X152919104Y-112283333D01*
X152919104Y-112283333D02*
X153061961Y-112330952D01*
X153061961Y-112330952D02*
X153157200Y-112426190D01*
X153157200Y-112426190D02*
X153204819Y-112569047D01*
X153204819Y-112569047D02*
X153204819Y-112664285D01*
X152204819Y-111902380D02*
X152204819Y-111283333D01*
X152204819Y-111283333D02*
X152585771Y-111616666D01*
X152585771Y-111616666D02*
X152585771Y-111473809D01*
X152585771Y-111473809D02*
X152633390Y-111378571D01*
X152633390Y-111378571D02*
X152681009Y-111330952D01*
X152681009Y-111330952D02*
X152776247Y-111283333D01*
X152776247Y-111283333D02*
X153014342Y-111283333D01*
X153014342Y-111283333D02*
X153109580Y-111330952D01*
X153109580Y-111330952D02*
X153157200Y-111378571D01*
X153157200Y-111378571D02*
X153204819Y-111473809D01*
X153204819Y-111473809D02*
X153204819Y-111759523D01*
X153204819Y-111759523D02*
X153157200Y-111854761D01*
X153157200Y-111854761D02*
X153109580Y-111902380D01*
X169461619Y-106605104D02*
X170271142Y-106605104D01*
X170271142Y-106605104D02*
X170366380Y-106557485D01*
X170366380Y-106557485D02*
X170414000Y-106509866D01*
X170414000Y-106509866D02*
X170461619Y-106414628D01*
X170461619Y-106414628D02*
X170461619Y-106224152D01*
X170461619Y-106224152D02*
X170414000Y-106128914D01*
X170414000Y-106128914D02*
X170366380Y-106081295D01*
X170366380Y-106081295D02*
X170271142Y-106033676D01*
X170271142Y-106033676D02*
X169461619Y-106033676D01*
X169794952Y-105128914D02*
X170461619Y-105128914D01*
X169414000Y-105367009D02*
X170128285Y-105605104D01*
X170128285Y-105605104D02*
X170128285Y-104986057D01*
X123238095Y-55154819D02*
X123238095Y-55964342D01*
X123238095Y-55964342D02*
X123285714Y-56059580D01*
X123285714Y-56059580D02*
X123333333Y-56107200D01*
X123333333Y-56107200D02*
X123428571Y-56154819D01*
X123428571Y-56154819D02*
X123619047Y-56154819D01*
X123619047Y-56154819D02*
X123714285Y-56107200D01*
X123714285Y-56107200D02*
X123761904Y-56059580D01*
X123761904Y-56059580D02*
X123809523Y-55964342D01*
X123809523Y-55964342D02*
X123809523Y-55154819D01*
X124809523Y-56154819D02*
X124238095Y-56154819D01*
X124523809Y-56154819D02*
X124523809Y-55154819D01*
X124523809Y-55154819D02*
X124428571Y-55297676D01*
X124428571Y-55297676D02*
X124333333Y-55392914D01*
X124333333Y-55392914D02*
X124238095Y-55440533D01*
X159416666Y-107654819D02*
X159416666Y-108369104D01*
X159416666Y-108369104D02*
X159369047Y-108511961D01*
X159369047Y-108511961D02*
X159273809Y-108607200D01*
X159273809Y-108607200D02*
X159130952Y-108654819D01*
X159130952Y-108654819D02*
X159035714Y-108654819D01*
X159845238Y-107750057D02*
X159892857Y-107702438D01*
X159892857Y-107702438D02*
X159988095Y-107654819D01*
X159988095Y-107654819D02*
X160226190Y-107654819D01*
X160226190Y-107654819D02*
X160321428Y-107702438D01*
X160321428Y-107702438D02*
X160369047Y-107750057D01*
X160369047Y-107750057D02*
X160416666Y-107845295D01*
X160416666Y-107845295D02*
X160416666Y-107940533D01*
X160416666Y-107940533D02*
X160369047Y-108083390D01*
X160369047Y-108083390D02*
X159797619Y-108654819D01*
X159797619Y-108654819D02*
X160416666Y-108654819D01*
X153583333Y-92109580D02*
X153535714Y-92157200D01*
X153535714Y-92157200D02*
X153392857Y-92204819D01*
X153392857Y-92204819D02*
X153297619Y-92204819D01*
X153297619Y-92204819D02*
X153154762Y-92157200D01*
X153154762Y-92157200D02*
X153059524Y-92061961D01*
X153059524Y-92061961D02*
X153011905Y-91966723D01*
X153011905Y-91966723D02*
X152964286Y-91776247D01*
X152964286Y-91776247D02*
X152964286Y-91633390D01*
X152964286Y-91633390D02*
X153011905Y-91442914D01*
X153011905Y-91442914D02*
X153059524Y-91347676D01*
X153059524Y-91347676D02*
X153154762Y-91252438D01*
X153154762Y-91252438D02*
X153297619Y-91204819D01*
X153297619Y-91204819D02*
X153392857Y-91204819D01*
X153392857Y-91204819D02*
X153535714Y-91252438D01*
X153535714Y-91252438D02*
X153583333Y-91300057D01*
X153964286Y-91300057D02*
X154011905Y-91252438D01*
X154011905Y-91252438D02*
X154107143Y-91204819D01*
X154107143Y-91204819D02*
X154345238Y-91204819D01*
X154345238Y-91204819D02*
X154440476Y-91252438D01*
X154440476Y-91252438D02*
X154488095Y-91300057D01*
X154488095Y-91300057D02*
X154535714Y-91395295D01*
X154535714Y-91395295D02*
X154535714Y-91490533D01*
X154535714Y-91490533D02*
X154488095Y-91633390D01*
X154488095Y-91633390D02*
X153916667Y-92204819D01*
X153916667Y-92204819D02*
X154535714Y-92204819D01*
D11*
%TO.C,J4*%
X179540000Y-113620000D02*
X179540000Y-116380000D01*
X187270000Y-113620000D02*
X179540000Y-113620000D01*
X187270000Y-113620000D02*
X187270000Y-116380000D01*
X187270000Y-116380000D02*
X179540000Y-116380000D01*
X188540000Y-113620000D02*
X189920000Y-113620000D01*
X189920000Y-113620000D02*
X189920000Y-115000000D01*
%TO.C,C1*%
X140945225Y-95525000D02*
X141445225Y-95525000D01*
X141195225Y-95275000D02*
X141195225Y-95775000D01*
X143750000Y-94420000D02*
X143750000Y-99580000D01*
X143790000Y-94420000D02*
X143790000Y-99580000D01*
X143830000Y-94421000D02*
X143830000Y-99579000D01*
X143870000Y-94423000D02*
X143870000Y-99577000D01*
X143910000Y-94425000D02*
X143910000Y-99575000D01*
X143950000Y-94428000D02*
X143950000Y-99572000D01*
X143990000Y-94431000D02*
X143990000Y-95960000D01*
X143990000Y-98040000D02*
X143990000Y-99569000D01*
X144030000Y-94435000D02*
X144030000Y-95960000D01*
X144030000Y-98040000D02*
X144030000Y-99565000D01*
X144070000Y-94440000D02*
X144070000Y-95960000D01*
X144070000Y-98040000D02*
X144070000Y-99560000D01*
X144110000Y-94445000D02*
X144110000Y-95960000D01*
X144110000Y-98040000D02*
X144110000Y-99555000D01*
X144150000Y-94451000D02*
X144150000Y-95960000D01*
X144150000Y-98040000D02*
X144150000Y-99549000D01*
X144190000Y-94457000D02*
X144190000Y-95960000D01*
X144190000Y-98040000D02*
X144190000Y-99543000D01*
X144230000Y-94464000D02*
X144230000Y-95960000D01*
X144230000Y-98040000D02*
X144230000Y-99536000D01*
X144270000Y-94472000D02*
X144270000Y-95960000D01*
X144270000Y-98040000D02*
X144270000Y-99528000D01*
X144310000Y-94481000D02*
X144310000Y-95960000D01*
X144310000Y-98040000D02*
X144310000Y-99519000D01*
X144350000Y-94490000D02*
X144350000Y-95960000D01*
X144350000Y-98040000D02*
X144350000Y-99510000D01*
X144390000Y-94499000D02*
X144390000Y-95960000D01*
X144390000Y-98040000D02*
X144390000Y-99501000D01*
X144430000Y-94510000D02*
X144430000Y-95960000D01*
X144430000Y-98040000D02*
X144430000Y-99490000D01*
X144470000Y-94521000D02*
X144470000Y-95960000D01*
X144470000Y-98040000D02*
X144470000Y-99479000D01*
X144510000Y-94533000D02*
X144510000Y-95960000D01*
X144510000Y-98040000D02*
X144510000Y-99467000D01*
X144550000Y-94545000D02*
X144550000Y-95960000D01*
X144550000Y-98040000D02*
X144550000Y-99455000D01*
X144590000Y-94558000D02*
X144590000Y-95960000D01*
X144590000Y-98040000D02*
X144590000Y-99442000D01*
X144630000Y-94572000D02*
X144630000Y-95960000D01*
X144630000Y-98040000D02*
X144630000Y-99428000D01*
X144670000Y-94587000D02*
X144670000Y-95960000D01*
X144670000Y-98040000D02*
X144670000Y-99413000D01*
X144710000Y-94602000D02*
X144710000Y-95960000D01*
X144710000Y-98040000D02*
X144710000Y-99398000D01*
X144750000Y-94618000D02*
X144750000Y-95960000D01*
X144750000Y-98040000D02*
X144750000Y-99382000D01*
X144790000Y-94635000D02*
X144790000Y-95960000D01*
X144790000Y-98040000D02*
X144790000Y-99365000D01*
X144830000Y-94653000D02*
X144830000Y-95960000D01*
X144830000Y-98040000D02*
X144830000Y-99347000D01*
X144870000Y-94671000D02*
X144870000Y-95960000D01*
X144870000Y-98040000D02*
X144870000Y-99329000D01*
X144910000Y-94691000D02*
X144910000Y-95960000D01*
X144910000Y-98040000D02*
X144910000Y-99309000D01*
X144950000Y-94711000D02*
X144950000Y-95960000D01*
X144950000Y-98040000D02*
X144950000Y-99289000D01*
X144990000Y-94732000D02*
X144990000Y-95960000D01*
X144990000Y-98040000D02*
X144990000Y-99268000D01*
X145030000Y-94754000D02*
X145030000Y-95960000D01*
X145030000Y-98040000D02*
X145030000Y-99246000D01*
X145070000Y-94777000D02*
X145070000Y-95960000D01*
X145070000Y-98040000D02*
X145070000Y-99223000D01*
X145110000Y-94801000D02*
X145110000Y-95960000D01*
X145110000Y-98040000D02*
X145110000Y-99199000D01*
X145150000Y-94825000D02*
X145150000Y-95960000D01*
X145150000Y-98040000D02*
X145150000Y-99175000D01*
X145190000Y-94851000D02*
X145190000Y-95960000D01*
X145190000Y-98040000D02*
X145190000Y-99149000D01*
X145230000Y-94878000D02*
X145230000Y-95960000D01*
X145230000Y-98040000D02*
X145230000Y-99122000D01*
X145270000Y-94906000D02*
X145270000Y-95960000D01*
X145270000Y-98040000D02*
X145270000Y-99094000D01*
X145310000Y-94935000D02*
X145310000Y-95960000D01*
X145310000Y-98040000D02*
X145310000Y-99065000D01*
X145350000Y-94965000D02*
X145350000Y-95960000D01*
X145350000Y-98040000D02*
X145350000Y-99035000D01*
X145390000Y-94997000D02*
X145390000Y-95960000D01*
X145390000Y-98040000D02*
X145390000Y-99003000D01*
X145430000Y-95030000D02*
X145430000Y-95960000D01*
X145430000Y-98040000D02*
X145430000Y-98970000D01*
X145470000Y-95064000D02*
X145470000Y-95960000D01*
X145470000Y-98040000D02*
X145470000Y-98936000D01*
X145510000Y-95099000D02*
X145510000Y-95960000D01*
X145510000Y-98040000D02*
X145510000Y-98901000D01*
X145550000Y-95136000D02*
X145550000Y-95960000D01*
X145550000Y-98040000D02*
X145550000Y-98864000D01*
X145590000Y-95175000D02*
X145590000Y-95960000D01*
X145590000Y-98040000D02*
X145590000Y-98825000D01*
X145630000Y-95215000D02*
X145630000Y-95960000D01*
X145630000Y-98040000D02*
X145630000Y-98785000D01*
X145670000Y-95257000D02*
X145670000Y-95960000D01*
X145670000Y-98040000D02*
X145670000Y-98743000D01*
X145710000Y-95301000D02*
X145710000Y-95960000D01*
X145710000Y-98040000D02*
X145710000Y-98699000D01*
X145750000Y-95348000D02*
X145750000Y-95960000D01*
X145750000Y-98040000D02*
X145750000Y-98652000D01*
X145790000Y-95396000D02*
X145790000Y-95960000D01*
X145790000Y-98040000D02*
X145790000Y-98604000D01*
X145830000Y-95447000D02*
X145830000Y-95960000D01*
X145830000Y-98040000D02*
X145830000Y-98553000D01*
X145870000Y-95501000D02*
X145870000Y-95960000D01*
X145870000Y-98040000D02*
X145870000Y-98499000D01*
X145910000Y-95557000D02*
X145910000Y-95960000D01*
X145910000Y-98040000D02*
X145910000Y-98443000D01*
X145950000Y-95617000D02*
X145950000Y-95960000D01*
X145950000Y-98040000D02*
X145950000Y-98383000D01*
X145990000Y-95681000D02*
X145990000Y-95960000D01*
X145990000Y-98040000D02*
X145990000Y-98319000D01*
X146030000Y-95749000D02*
X146030000Y-95960000D01*
X146030000Y-98040000D02*
X146030000Y-98251000D01*
X146070000Y-95823000D02*
X146070000Y-98177000D01*
X146110000Y-95902000D02*
X146110000Y-98098000D01*
X146150000Y-95989000D02*
X146150000Y-98011000D01*
X146190000Y-96086000D02*
X146190000Y-97914000D01*
X146230000Y-96195000D02*
X146230000Y-97805000D01*
X146270000Y-96323000D02*
X146270000Y-97677000D01*
X146310000Y-96483000D02*
X146310000Y-97517000D01*
X146350000Y-96717000D02*
X146350000Y-97283000D01*
X146370000Y-97000000D02*
G75*
G02*
X141130000Y-97000000I-2620000J0D01*
G01*
X141130000Y-97000000D02*
G75*
G02*
X146370000Y-97000000I2620000J0D01*
G01*
%TO.C,U2*%
X120225000Y-96475000D02*
X136735000Y-96475000D01*
X120225000Y-117049000D02*
X120225000Y-96475000D01*
X136735000Y-96475000D02*
X136735000Y-117049000D01*
X136735000Y-117049000D02*
X120225000Y-117049000D01*
X135562832Y-98761000D02*
G75*
G02*
X132827168Y-98761000I-1367832J0D01*
G01*
X132827168Y-98761000D02*
G75*
G02*
X135562832Y-98761000I1367832J0D01*
G01*
X135562832Y-114763000D02*
G75*
G02*
X132827168Y-114763000I-1367832J0D01*
G01*
X132827168Y-114763000D02*
G75*
G02*
X135562832Y-114763000I1367832J0D01*
G01*
%TO.C,U3*%
X159230000Y-92380000D02*
X163871000Y-92380000D01*
X159230000Y-95649000D02*
X160740000Y-95649000D01*
X159230000Y-99350000D02*
X160740000Y-99350000D01*
X159230000Y-102620000D02*
X159230000Y-92380000D01*
X159230000Y-102620000D02*
X163871000Y-102620000D01*
X160740000Y-102620000D02*
X160740000Y-92380000D01*
X163871000Y-102620000D02*
X163871000Y-92380000D01*
%TO.C,J3*%
X142200000Y-103450000D02*
X142200000Y-102400000D01*
X142400000Y-102600000D02*
X145000000Y-102600000D01*
X142400000Y-117300000D02*
X142400000Y-102600000D01*
X143250000Y-102400000D02*
X142200000Y-102400000D01*
X148900000Y-102600000D02*
X151600000Y-102600000D01*
X151600000Y-102600000D02*
X151600000Y-104500000D01*
X151600000Y-108500000D02*
X151600000Y-117300000D01*
X151600000Y-117300000D02*
X142400000Y-117300000D01*
D12*
%TO.C,U4*%
X171460000Y-91420000D02*
X171460000Y-90150000D01*
X171460000Y-106810000D02*
X171460000Y-93810000D01*
X171460000Y-109200000D02*
X171460000Y-110470000D01*
X171460000Y-110470000D02*
X191780000Y-110470000D01*
X191780000Y-90150000D02*
X171460000Y-90150000D01*
X191780000Y-91420000D02*
X191780000Y-90150000D01*
X191780000Y-106810000D02*
X191780000Y-93810000D01*
X191780000Y-109200000D02*
X191780000Y-110470000D01*
D13*
X170991800Y-107930000D02*
G75*
G02*
X170791800Y-107930000I-100000J0D01*
G01*
X170791800Y-107930000D02*
G75*
G02*
X170991800Y-107930000I100000J0D01*
G01*
D10*
%TO.C,U1*%
X119000000Y-58700000D02*
X121000000Y-56700000D01*
X119000000Y-83300000D02*
X119000000Y-58700000D01*
X119000000Y-83300000D02*
X121000000Y-85300000D01*
X121000000Y-56700000D02*
X169000000Y-56700000D01*
D11*
X147000000Y-64000000D02*
X147000000Y-78000000D01*
X147000000Y-78000000D02*
X171000000Y-78000000D01*
X148000000Y-65000000D02*
X148000000Y-77000000D01*
X148000000Y-77000000D02*
X164000000Y-77000000D01*
X164000000Y-65000000D02*
X148000000Y-65000000D01*
X164000000Y-77000000D02*
X164000000Y-65000000D01*
D14*
X165000000Y-73500000D02*
X169500000Y-73500000D01*
X165000000Y-75500000D02*
X169500000Y-75500000D01*
X166500000Y-67000000D02*
X169500000Y-67000000D01*
X166500000Y-68500000D02*
X166500000Y-67000000D01*
X166500000Y-70000000D02*
X169500000Y-70000000D01*
X166500000Y-71500000D02*
X166500000Y-70000000D01*
D10*
X169000000Y-56700000D02*
X171000000Y-58700000D01*
X169000000Y-85300000D02*
X121000000Y-85300000D01*
X169000000Y-85300000D02*
X171000000Y-83300000D01*
D14*
X169500000Y-65500000D02*
X166500000Y-65500000D01*
X169500000Y-67000000D02*
X169500000Y-65500000D01*
X169500000Y-68500000D02*
X166500000Y-68500000D01*
X169500000Y-70000000D02*
X169500000Y-68500000D01*
X169500000Y-71500000D02*
X166500000Y-71500000D01*
X169500000Y-75500000D02*
X169500000Y-71500000D01*
D10*
X171000000Y-58700000D02*
X171000000Y-83300000D01*
D11*
X171000000Y-64000000D02*
X147000000Y-64000000D01*
D10*
X122950000Y-59200000D02*
G75*
G02*
X120050000Y-59200000I-1450000J0D01*
G01*
X120050000Y-59200000D02*
G75*
G02*
X122950000Y-59200000I1450000J0D01*
G01*
X122950000Y-82800000D02*
G75*
G02*
X120050000Y-82800000I-1450000J0D01*
G01*
X120050000Y-82800000D02*
G75*
G02*
X122950000Y-82800000I1450000J0D01*
G01*
X169950000Y-59200000D02*
G75*
G02*
X167050000Y-59200000I-1450000J0D01*
G01*
X167050000Y-59200000D02*
G75*
G02*
X169950000Y-59200000I1450000J0D01*
G01*
X169950000Y-82800000D02*
G75*
G02*
X167050000Y-82800000I-1450000J0D01*
G01*
X167050000Y-82800000D02*
G75*
G02*
X169950000Y-82800000I1450000J0D01*
G01*
D11*
%TO.C,J2*%
X155590000Y-111110000D02*
X155590000Y-113610000D01*
X155590000Y-113610000D02*
X158090000Y-113610000D01*
X155890000Y-109290000D02*
X155890000Y-113310000D01*
X155890000Y-111000000D02*
X156390000Y-111000000D01*
X155890000Y-111810000D02*
X156890000Y-111810000D01*
X155890000Y-113310000D02*
X163610000Y-113310000D01*
X156390000Y-109790000D02*
X163110000Y-109790000D01*
X156390000Y-111000000D02*
X156390000Y-109790000D01*
X156890000Y-111810000D02*
X156890000Y-113310000D01*
X162610000Y-111810000D02*
X162610000Y-113310000D01*
X163110000Y-109790000D02*
X163110000Y-111000000D01*
X163110000Y-111000000D02*
X163610000Y-111000000D01*
X163610000Y-109290000D02*
X155890000Y-109290000D01*
X163610000Y-111810000D02*
X162610000Y-111810000D01*
X163610000Y-113310000D02*
X163610000Y-109290000D01*
%TO.C,C2*%
X150945225Y-94025000D02*
X151445225Y-94025000D01*
X151195225Y-93775000D02*
X151195225Y-94275000D01*
X153750000Y-92920000D02*
X153750000Y-98080000D01*
X153790000Y-92920000D02*
X153790000Y-98080000D01*
X153830000Y-92921000D02*
X153830000Y-98079000D01*
X153870000Y-92923000D02*
X153870000Y-98077000D01*
X153910000Y-92925000D02*
X153910000Y-98075000D01*
X153950000Y-92928000D02*
X153950000Y-98072000D01*
X153990000Y-92931000D02*
X153990000Y-94460000D01*
X153990000Y-96540000D02*
X153990000Y-98069000D01*
X154030000Y-92935000D02*
X154030000Y-94460000D01*
X154030000Y-96540000D02*
X154030000Y-98065000D01*
X154070000Y-92940000D02*
X154070000Y-94460000D01*
X154070000Y-96540000D02*
X154070000Y-98060000D01*
X154110000Y-92945000D02*
X154110000Y-94460000D01*
X154110000Y-96540000D02*
X154110000Y-98055000D01*
X154150000Y-92951000D02*
X154150000Y-94460000D01*
X154150000Y-96540000D02*
X154150000Y-98049000D01*
X154190000Y-92957000D02*
X154190000Y-94460000D01*
X154190000Y-96540000D02*
X154190000Y-98043000D01*
X154230000Y-92964000D02*
X154230000Y-94460000D01*
X154230000Y-96540000D02*
X154230000Y-98036000D01*
X154270000Y-92972000D02*
X154270000Y-94460000D01*
X154270000Y-96540000D02*
X154270000Y-98028000D01*
X154310000Y-92981000D02*
X154310000Y-94460000D01*
X154310000Y-96540000D02*
X154310000Y-98019000D01*
X154350000Y-92990000D02*
X154350000Y-94460000D01*
X154350000Y-96540000D02*
X154350000Y-98010000D01*
X154390000Y-92999000D02*
X154390000Y-94460000D01*
X154390000Y-96540000D02*
X154390000Y-98001000D01*
X154430000Y-93010000D02*
X154430000Y-94460000D01*
X154430000Y-96540000D02*
X154430000Y-97990000D01*
X154470000Y-93021000D02*
X154470000Y-94460000D01*
X154470000Y-96540000D02*
X154470000Y-97979000D01*
X154510000Y-93033000D02*
X154510000Y-94460000D01*
X154510000Y-96540000D02*
X154510000Y-97967000D01*
X154550000Y-93045000D02*
X154550000Y-94460000D01*
X154550000Y-96540000D02*
X154550000Y-97955000D01*
X154590000Y-93058000D02*
X154590000Y-94460000D01*
X154590000Y-96540000D02*
X154590000Y-97942000D01*
X154630000Y-93072000D02*
X154630000Y-94460000D01*
X154630000Y-96540000D02*
X154630000Y-97928000D01*
X154670000Y-93087000D02*
X154670000Y-94460000D01*
X154670000Y-96540000D02*
X154670000Y-97913000D01*
X154710000Y-93102000D02*
X154710000Y-94460000D01*
X154710000Y-96540000D02*
X154710000Y-97898000D01*
X154750000Y-93118000D02*
X154750000Y-94460000D01*
X154750000Y-96540000D02*
X154750000Y-97882000D01*
X154790000Y-93135000D02*
X154790000Y-94460000D01*
X154790000Y-96540000D02*
X154790000Y-97865000D01*
X154830000Y-93153000D02*
X154830000Y-94460000D01*
X154830000Y-96540000D02*
X154830000Y-97847000D01*
X154870000Y-93171000D02*
X154870000Y-94460000D01*
X154870000Y-96540000D02*
X154870000Y-97829000D01*
X154910000Y-93191000D02*
X154910000Y-94460000D01*
X154910000Y-96540000D02*
X154910000Y-97809000D01*
X154950000Y-93211000D02*
X154950000Y-94460000D01*
X154950000Y-96540000D02*
X154950000Y-97789000D01*
X154990000Y-93232000D02*
X154990000Y-94460000D01*
X154990000Y-96540000D02*
X154990000Y-97768000D01*
X155030000Y-93254000D02*
X155030000Y-94460000D01*
X155030000Y-96540000D02*
X155030000Y-97746000D01*
X155070000Y-93277000D02*
X155070000Y-94460000D01*
X155070000Y-96540000D02*
X155070000Y-97723000D01*
X155110000Y-93301000D02*
X155110000Y-94460000D01*
X155110000Y-96540000D02*
X155110000Y-97699000D01*
X155150000Y-93325000D02*
X155150000Y-94460000D01*
X155150000Y-96540000D02*
X155150000Y-97675000D01*
X155190000Y-93351000D02*
X155190000Y-94460000D01*
X155190000Y-96540000D02*
X155190000Y-97649000D01*
X155230000Y-93378000D02*
X155230000Y-94460000D01*
X155230000Y-96540000D02*
X155230000Y-97622000D01*
X155270000Y-93406000D02*
X155270000Y-94460000D01*
X155270000Y-96540000D02*
X155270000Y-97594000D01*
X155310000Y-93435000D02*
X155310000Y-94460000D01*
X155310000Y-96540000D02*
X155310000Y-97565000D01*
X155350000Y-93465000D02*
X155350000Y-94460000D01*
X155350000Y-96540000D02*
X155350000Y-97535000D01*
X155390000Y-93497000D02*
X155390000Y-94460000D01*
X155390000Y-96540000D02*
X155390000Y-97503000D01*
X155430000Y-93530000D02*
X155430000Y-94460000D01*
X155430000Y-96540000D02*
X155430000Y-97470000D01*
X155470000Y-93564000D02*
X155470000Y-94460000D01*
X155470000Y-96540000D02*
X155470000Y-97436000D01*
X155510000Y-93599000D02*
X155510000Y-94460000D01*
X155510000Y-96540000D02*
X155510000Y-97401000D01*
X155550000Y-93636000D02*
X155550000Y-94460000D01*
X155550000Y-96540000D02*
X155550000Y-97364000D01*
X155590000Y-93675000D02*
X155590000Y-94460000D01*
X155590000Y-96540000D02*
X155590000Y-97325000D01*
X155630000Y-93715000D02*
X155630000Y-94460000D01*
X155630000Y-96540000D02*
X155630000Y-97285000D01*
X155670000Y-93757000D02*
X155670000Y-94460000D01*
X155670000Y-96540000D02*
X155670000Y-97243000D01*
X155710000Y-93801000D02*
X155710000Y-94460000D01*
X155710000Y-96540000D02*
X155710000Y-97199000D01*
X155750000Y-93848000D02*
X155750000Y-94460000D01*
X155750000Y-96540000D02*
X155750000Y-97152000D01*
X155790000Y-93896000D02*
X155790000Y-94460000D01*
X155790000Y-96540000D02*
X155790000Y-97104000D01*
X155830000Y-93947000D02*
X155830000Y-94460000D01*
X155830000Y-96540000D02*
X155830000Y-97053000D01*
X155870000Y-94001000D02*
X155870000Y-94460000D01*
X155870000Y-96540000D02*
X155870000Y-96999000D01*
X155910000Y-94057000D02*
X155910000Y-94460000D01*
X155910000Y-96540000D02*
X155910000Y-96943000D01*
X155950000Y-94117000D02*
X155950000Y-94460000D01*
X155950000Y-96540000D02*
X155950000Y-96883000D01*
X155990000Y-94181000D02*
X155990000Y-94460000D01*
X155990000Y-96540000D02*
X155990000Y-96819000D01*
X156030000Y-94249000D02*
X156030000Y-94460000D01*
X156030000Y-96540000D02*
X156030000Y-96751000D01*
X156070000Y-94323000D02*
X156070000Y-96677000D01*
X156110000Y-94402000D02*
X156110000Y-96598000D01*
X156150000Y-94489000D02*
X156150000Y-96511000D01*
X156190000Y-94586000D02*
X156190000Y-96414000D01*
X156230000Y-94695000D02*
X156230000Y-96305000D01*
X156270000Y-94823000D02*
X156270000Y-96177000D01*
X156310000Y-94983000D02*
X156310000Y-96017000D01*
X156350000Y-95217000D02*
X156350000Y-95783000D01*
X156370000Y-95500000D02*
G75*
G02*
X151130000Y-95500000I-2620000J0D01*
G01*
X151130000Y-95500000D02*
G75*
G02*
X156370000Y-95500000I2620000J0D01*
G01*
%TD*%
M02*
