%TF.GenerationSoftware,KiCad,Pcbnew,9.0.1-9.0.1-0~ubuntu22.04.1*%
%TF.CreationDate,2025-05-01T16:45:02+02:00*%
%TF.ProjectId,pcb,7063622e-6b69-4636-9164-5f7063625858,rev?*%
%TF.SameCoordinates,Original*%
%TF.FileFunction,Copper,L1,Top*%
%TF.FilePolarity,Positive*%
%FSLAX46Y46*%
G04 Gerber Fmt 4.6, Leading zero omitted, Abs format (unit mm)*
G04 Created by KiCad (PCBNEW 9.0.1-9.0.1-0~ubuntu22.04.1) date 2025-05-01 16:45:02*
%MOMM*%
%LPD*%
G01*
G04 APERTURE LIST*
G04 Aperture macros list*
%AMRoundRect*
0 Rectangle with rounded corners*
0 $1 Rounding radius*
0 $2 $3 $4 $5 $6 $7 $8 $9 X,Y pos of 4 corners*
0 Add a 4 corners polygon primitive as box body*
4,1,4,$2,$3,$4,$5,$6,$7,$8,$9,$2,$3,0*
0 Add four circle primitives for the rounded corners*
1,1,$1+$1,$2,$3*
1,1,$1+$1,$4,$5*
1,1,$1+$1,$6,$7*
1,1,$1+$1,$8,$9*
0 Add four rect primitives between the rounded corners*
20,1,$1+$1,$2,$3,$4,$5,0*
20,1,$1+$1,$4,$5,$6,$7,0*
20,1,$1+$1,$6,$7,$8,$9,0*
20,1,$1+$1,$8,$9,$2,$3,0*%
G04 Aperture macros list end*
%TA.AperFunction,ComponentPad*%
%ADD10R,1.700000X1.700000*%
%TD*%
%TA.AperFunction,ComponentPad*%
%ADD11C,1.700000*%
%TD*%
%TA.AperFunction,ComponentPad*%
%ADD12R,1.600000X1.600000*%
%TD*%
%TA.AperFunction,ComponentPad*%
%ADD13C,1.600000*%
%TD*%
%TA.AperFunction,ComponentPad*%
%ADD14C,1.524000*%
%TD*%
%TA.AperFunction,ComponentPad*%
%ADD15R,2.000000X1.905000*%
%TD*%
%TA.AperFunction,ComponentPad*%
%ADD16O,2.000000X1.905000*%
%TD*%
%TA.AperFunction,ComponentPad*%
%ADD17R,3.500000X3.500000*%
%TD*%
%TA.AperFunction,ComponentPad*%
%ADD18RoundRect,0.750000X1.000000X-0.750000X1.000000X0.750000X-1.000000X0.750000X-1.000000X-0.750000X0*%
%TD*%
%TA.AperFunction,ComponentPad*%
%ADD19RoundRect,0.875000X0.875000X-0.875000X0.875000X0.875000X-0.875000X0.875000X-0.875000X-0.875000X0*%
%TD*%
%TA.AperFunction,ComponentPad*%
%ADD20C,1.980000*%
%TD*%
%TA.AperFunction,ComponentPad*%
%ADD21C,2.000000*%
%TD*%
%TA.AperFunction,ComponentPad*%
%ADD22RoundRect,0.250000X-0.600000X-0.750000X0.600000X-0.750000X0.600000X0.750000X-0.600000X0.750000X0*%
%TD*%
%TA.AperFunction,ComponentPad*%
%ADD23O,1.700000X2.000000*%
%TD*%
%TA.AperFunction,ViaPad*%
%ADD24C,0.600000*%
%TD*%
%TA.AperFunction,Conductor*%
%ADD25C,0.200000*%
%TD*%
G04 APERTURE END LIST*
D10*
%TO.P,J4,1,Pin_1*%
%TO.N,Net-(J4-Pin_1)*%
X188540000Y-115000000D03*
D11*
%TO.P,J4,2,Pin_2*%
%TO.N,Net-(J4-Pin_2)*%
X186000000Y-115000000D03*
%TO.P,J4,3,Pin_3*%
%TO.N,Net-(J4-Pin_3)*%
X183460000Y-115000000D03*
%TO.P,J4,4,Pin_4*%
%TO.N,Net-(J4-Pin_4)*%
X180920000Y-115000000D03*
%TD*%
D12*
%TO.P,C1,1*%
%TO.N,Net-(J2-Pin_2)*%
X142500000Y-97000000D03*
D13*
%TO.P,C1,2*%
%TO.N,GND*%
X145000000Y-97000000D03*
%TD*%
D14*
%TO.P,U2,1,VCC*%
%TO.N,Net-(U1-VIN)*%
X121495000Y-97999000D03*
%TO.P,U2,2,GND*%
%TO.N,GND*%
X121495000Y-100539000D03*
%TO.P,U2,3,SCL*%
%TO.N,Net-(U1-D22)*%
X121495000Y-103079000D03*
%TO.P,U2,4,SDA*%
%TO.N,Net-(U1-D21)*%
X121495000Y-105619000D03*
%TO.P,U2,5,XDA*%
%TO.N,unconnected-(U2-XDA-Pad5)*%
X121495000Y-108159000D03*
%TO.P,U2,6,XCL*%
%TO.N,unconnected-(U2-XCL-Pad6)*%
X121495000Y-110699000D03*
%TO.P,U2,7,ADD*%
%TO.N,unconnected-(U2-ADD-Pad7)*%
X121495000Y-113239000D03*
%TO.P,U2,8,INT*%
%TO.N,unconnected-(U2-INT-Pad8)*%
X121495000Y-115779000D03*
%TD*%
D15*
%TO.P,U3,1,VI*%
%TO.N,Net-(J2-Pin_2)*%
X162500000Y-100040000D03*
D16*
%TO.P,U3,2,GND*%
%TO.N,GND*%
X162500000Y-97500000D03*
%TO.P,U3,3,VO*%
%TO.N,Net-(U1-VIN)*%
X162500000Y-94960000D03*
%TD*%
D17*
%TO.P,J3,1*%
%TO.N,GND*%
X147000000Y-103500000D03*
D18*
%TO.P,J3,2*%
%TO.N,Net-(J2-Pin_2)*%
X147000000Y-109500000D03*
D19*
%TO.P,J3,3*%
%TO.N,unconnected-(J3-Pad3)*%
X151700000Y-106500000D03*
%TD*%
D20*
%TO.P,U4,1,VM*%
%TO.N,Net-(J2-Pin_2)*%
X172730000Y-107930000D03*
%TO.P,U4,2,VCC*%
%TO.N,Net-(U1-VIN)*%
X175270000Y-107930000D03*
%TO.P,U4,3,GND*%
%TO.N,GND*%
X177810000Y-107930000D03*
%TO.P,U4,4,A01*%
%TO.N,Net-(J4-Pin_4)*%
X180350000Y-107930000D03*
%TO.P,U4,5,A02*%
%TO.N,Net-(J4-Pin_3)*%
X182890000Y-107930000D03*
%TO.P,U4,6,B02*%
%TO.N,Net-(J4-Pin_1)*%
X185430000Y-107930000D03*
%TO.P,U4,7,B01*%
%TO.N,Net-(J4-Pin_2)*%
X187970000Y-107930000D03*
%TO.P,U4,8,GND*%
%TO.N,GND*%
X190510000Y-107930000D03*
%TO.P,U4,9,GND*%
X190510000Y-92690000D03*
%TO.P,U4,10,PWMB*%
%TO.N,Net-(U1-D12)*%
X187970000Y-92690000D03*
%TO.P,U4,11,BI2*%
%TO.N,Net-(U1-D25)*%
X185430000Y-92690000D03*
%TO.P,U4,12,BI1*%
%TO.N,Net-(U1-D26)*%
X182890000Y-92690000D03*
%TO.P,U4,13,STBY*%
%TO.N,Net-(U1-D33)*%
X180350000Y-92690000D03*
%TO.P,U4,14,AI1*%
%TO.N,Net-(U1-D14)*%
X177810000Y-92690000D03*
%TO.P,U4,15,AI2*%
%TO.N,Net-(U1-D27)*%
X175270000Y-92690000D03*
%TO.P,U4,16,PWMA*%
%TO.N,Net-(U1-D13)*%
X172730000Y-92690000D03*
%TD*%
D21*
%TO.P,U1,1,3V3*%
%TO.N,unconnected-(U1-3V3-Pad1)*%
X129220000Y-83700000D03*
%TO.P,U1,2,GND*%
%TO.N,GND*%
X131760000Y-83700000D03*
%TO.P,U1,3,D15*%
%TO.N,unconnected-(U1-D15-Pad3)*%
X134300000Y-83700000D03*
%TO.P,U1,4,D2*%
%TO.N,unconnected-(U1-D2-Pad4)*%
X136840000Y-83700000D03*
%TO.P,U1,5,D4*%
%TO.N,unconnected-(U1-D4-Pad5)*%
X139380000Y-83700000D03*
%TO.P,U1,6,RX2/D16*%
%TO.N,unconnected-(U1-RX2{slash}D16-Pad6)*%
X141920000Y-83700000D03*
%TO.P,U1,7,TX2/D17*%
%TO.N,unconnected-(U1-TX2{slash}D17-Pad7)*%
X144460000Y-83700000D03*
%TO.P,U1,8,D5*%
%TO.N,unconnected-(U1-D5-Pad8)*%
X147000000Y-83700000D03*
%TO.P,U1,9,D18*%
%TO.N,unconnected-(U1-D18-Pad9)*%
X149540000Y-83700000D03*
%TO.P,U1,10,D19*%
%TO.N,unconnected-(U1-D19-Pad10)*%
X152080000Y-83700000D03*
%TO.P,U1,11,D21*%
%TO.N,Net-(U1-D21)*%
X154620000Y-83700000D03*
%TO.P,U1,12,RX0/D3*%
%TO.N,unconnected-(U1-RX0{slash}D3-Pad12)*%
X157160000Y-83700000D03*
%TO.P,U1,13,TX0/D1*%
%TO.N,unconnected-(U1-TX0{slash}D1-Pad13)*%
X159700000Y-83700000D03*
%TO.P,U1,14,D22*%
%TO.N,Net-(U1-D22)*%
X162240000Y-83700000D03*
%TO.P,U1,15,D23*%
%TO.N,unconnected-(U1-D23-Pad15)*%
X164780000Y-83700000D03*
%TO.P,U1,16,EN*%
%TO.N,unconnected-(U1-EN-Pad16)*%
X164780000Y-58300000D03*
%TO.P,U1,17,VP*%
%TO.N,unconnected-(U1-VP-Pad17)*%
X162240000Y-58300000D03*
%TO.P,U1,18,VN*%
%TO.N,unconnected-(U1-VN-Pad18)*%
X159700000Y-58300000D03*
%TO.P,U1,19,D34*%
%TO.N,unconnected-(U1-D34-Pad19)*%
X157160000Y-58300000D03*
%TO.P,U1,20,D35*%
%TO.N,unconnected-(U1-D35-Pad20)*%
X154620000Y-58300000D03*
%TO.P,U1,21,D32*%
%TO.N,unconnected-(U1-D32-Pad21)*%
X152080000Y-58300000D03*
%TO.P,U1,22,D33*%
%TO.N,Net-(U1-D33)*%
X149540000Y-58300000D03*
%TO.P,U1,23,D25*%
%TO.N,Net-(U1-D25)*%
X147000000Y-58300000D03*
%TO.P,U1,24,D26*%
%TO.N,Net-(U1-D26)*%
X144460000Y-58300000D03*
%TO.P,U1,25,D27*%
%TO.N,Net-(U1-D27)*%
X141920000Y-58300000D03*
%TO.P,U1,26,D14*%
%TO.N,Net-(U1-D14)*%
X139380000Y-58300000D03*
%TO.P,U1,27,D12*%
%TO.N,Net-(U1-D12)*%
X136840000Y-58300000D03*
%TO.P,U1,28,D13*%
%TO.N,Net-(U1-D13)*%
X134300000Y-58300000D03*
%TO.P,U1,29,GND*%
%TO.N,GND*%
X131760000Y-58300000D03*
%TO.P,U1,30,VIN*%
%TO.N,Net-(U1-VIN)*%
X129220000Y-58300000D03*
%TD*%
D22*
%TO.P,J2,1,Pin_1*%
%TO.N,GND*%
X158500000Y-111000000D03*
D23*
%TO.P,J2,2,Pin_2*%
%TO.N,Net-(J2-Pin_2)*%
X161000000Y-111000000D03*
%TD*%
D12*
%TO.P,C2,1*%
%TO.N,Net-(U1-VIN)*%
X152500000Y-95500000D03*
D13*
%TO.P,C2,2*%
%TO.N,GND*%
X155000000Y-95500000D03*
%TD*%
D24*
%TO.N,Net-(U1-VIN)*%
X117750000Y-92750000D03*
X120000000Y-95000000D03*
%TD*%
D25*
%TO.N,GND*%
X134960000Y-80500000D02*
X131760000Y-83700000D01*
X186390000Y-103810000D02*
X190510000Y-107930000D01*
X131760000Y-58300000D02*
X134960000Y-61500000D01*
X129398128Y-86061872D02*
X131760000Y-83700000D01*
X162500000Y-97500000D02*
X167000000Y-93000000D01*
X190510000Y-99690000D02*
X186390000Y-103810000D01*
X177810000Y-107930000D02*
X177810000Y-103810000D01*
X190510000Y-92690000D02*
X190510000Y-99690000D01*
X167000000Y-93000000D02*
X167000000Y-82000000D01*
X167000000Y-82000000D02*
X165500000Y-80500000D01*
X116978000Y-96022000D02*
X126938128Y-86061872D01*
X121495000Y-100539000D02*
X116978000Y-96022000D01*
X134960000Y-61500000D02*
X134960000Y-80500000D01*
X177810000Y-103810000D02*
X167000000Y-93000000D01*
X177810000Y-103810000D02*
X186390000Y-103810000D01*
X126938128Y-86061872D02*
X129398128Y-86061872D01*
X165500000Y-80500000D02*
X134960000Y-80500000D01*
%TO.N,Net-(U1-VIN)*%
X121500000Y-88000000D02*
X121500000Y-66020000D01*
X117750000Y-92750000D02*
X117250000Y-92250000D01*
X121500000Y-66020000D02*
X129220000Y-58300000D01*
X120000000Y-95000000D02*
X120000000Y-96504000D01*
X120000000Y-96504000D02*
X121495000Y-97999000D01*
X117250000Y-92250000D02*
X121500000Y-88000000D01*
%TO.N,Net-(U1-D21)*%
X153319000Y-85001000D02*
X154620000Y-83700000D01*
X121495000Y-105619000D02*
X142113000Y-85001000D01*
X142113000Y-85001000D02*
X153319000Y-85001000D01*
%TO.N,Net-(U1-D27)*%
X175270000Y-89702900D02*
X145168100Y-59601000D01*
X175270000Y-92690000D02*
X175270000Y-89702900D01*
X143221000Y-59601000D02*
X141920000Y-58300000D01*
X145168100Y-59601000D02*
X143221000Y-59601000D01*
%TO.N,Net-(U1-D33)*%
X180350000Y-89110000D02*
X149540000Y-58300000D01*
X180350000Y-92690000D02*
X180350000Y-89110000D01*
%TO.N,Net-(J4-Pin_1)*%
X188540000Y-111040000D02*
X185430000Y-107930000D01*
X188540000Y-115000000D02*
X188540000Y-111040000D01*
%TD*%
%TA.AperFunction,Conductor*%
%TO.N,GND*%
G36*
X197442539Y-49020185D02*
G01*
X197488294Y-49072989D01*
X197499500Y-49124500D01*
X197499500Y-124375500D01*
X197479815Y-124442539D01*
X197427011Y-124488294D01*
X197375500Y-124499500D01*
X111624500Y-124499500D01*
X111557461Y-124479815D01*
X111511706Y-124427011D01*
X111500500Y-124375500D01*
X111500500Y-119878711D01*
X114149500Y-119878711D01*
X114149500Y-120121288D01*
X114181161Y-120361785D01*
X114243947Y-120596104D01*
X114336773Y-120820205D01*
X114336776Y-120820212D01*
X114458064Y-121030289D01*
X114458066Y-121030292D01*
X114458067Y-121030293D01*
X114605733Y-121222736D01*
X114605739Y-121222743D01*
X114777256Y-121394260D01*
X114777262Y-121394265D01*
X114969711Y-121541936D01*
X115179788Y-121663224D01*
X115403900Y-121756054D01*
X115638211Y-121818838D01*
X115818586Y-121842584D01*
X115878711Y-121850500D01*
X115878712Y-121850500D01*
X116121289Y-121850500D01*
X116169388Y-121844167D01*
X116361789Y-121818838D01*
X116596100Y-121756054D01*
X116820212Y-121663224D01*
X117030289Y-121541936D01*
X117222738Y-121394265D01*
X117394265Y-121222738D01*
X117541936Y-121030289D01*
X117663224Y-120820212D01*
X117756054Y-120596100D01*
X117818838Y-120361789D01*
X117850500Y-120121288D01*
X117850500Y-119878712D01*
X117850500Y-119878711D01*
X190649500Y-119878711D01*
X190649500Y-120121288D01*
X190681161Y-120361785D01*
X190743947Y-120596104D01*
X190836773Y-120820205D01*
X190836776Y-120820212D01*
X190958064Y-121030289D01*
X190958066Y-121030292D01*
X190958067Y-121030293D01*
X191105733Y-121222736D01*
X191105739Y-121222743D01*
X191277256Y-121394260D01*
X191277262Y-121394265D01*
X191469711Y-121541936D01*
X191679788Y-121663224D01*
X191903900Y-121756054D01*
X192138211Y-121818838D01*
X192318586Y-121842584D01*
X192378711Y-121850500D01*
X192378712Y-121850500D01*
X192621289Y-121850500D01*
X192669388Y-121844167D01*
X192861789Y-121818838D01*
X193096100Y-121756054D01*
X193320212Y-121663224D01*
X193530289Y-121541936D01*
X193722738Y-121394265D01*
X193894265Y-121222738D01*
X194041936Y-121030289D01*
X194163224Y-120820212D01*
X194256054Y-120596100D01*
X194318838Y-120361789D01*
X194350500Y-120121288D01*
X194350500Y-119878712D01*
X194318838Y-119638211D01*
X194256054Y-119403900D01*
X194163224Y-119179788D01*
X194041936Y-118969711D01*
X193894265Y-118777262D01*
X193894260Y-118777256D01*
X193722743Y-118605739D01*
X193722736Y-118605733D01*
X193530293Y-118458067D01*
X193530292Y-118458066D01*
X193530289Y-118458064D01*
X193320212Y-118336776D01*
X193320205Y-118336773D01*
X193096104Y-118243947D01*
X192861785Y-118181161D01*
X192621289Y-118149500D01*
X192621288Y-118149500D01*
X192378712Y-118149500D01*
X192378711Y-118149500D01*
X192138214Y-118181161D01*
X191903895Y-118243947D01*
X191679794Y-118336773D01*
X191679785Y-118336777D01*
X191469706Y-118458067D01*
X191277263Y-118605733D01*
X191277256Y-118605739D01*
X191105739Y-118777256D01*
X191105733Y-118777263D01*
X190958067Y-118969706D01*
X190836777Y-119179785D01*
X190836773Y-119179794D01*
X190743947Y-119403895D01*
X190681161Y-119638214D01*
X190649500Y-119878711D01*
X117850500Y-119878711D01*
X117818838Y-119638211D01*
X117756054Y-119403900D01*
X117663224Y-119179788D01*
X117541936Y-118969711D01*
X117394265Y-118777262D01*
X117394260Y-118777256D01*
X117222743Y-118605739D01*
X117222736Y-118605733D01*
X117030293Y-118458067D01*
X117030292Y-118458066D01*
X117030289Y-118458064D01*
X116820212Y-118336776D01*
X116820205Y-118336773D01*
X116596104Y-118243947D01*
X116361785Y-118181161D01*
X116121289Y-118149500D01*
X116121288Y-118149500D01*
X115878712Y-118149500D01*
X115878711Y-118149500D01*
X115638214Y-118181161D01*
X115403895Y-118243947D01*
X115179794Y-118336773D01*
X115179785Y-118336777D01*
X114969706Y-118458067D01*
X114777263Y-118605733D01*
X114777256Y-118605739D01*
X114605739Y-118777256D01*
X114605733Y-118777263D01*
X114458067Y-118969706D01*
X114336777Y-119179785D01*
X114336773Y-119179794D01*
X114243947Y-119403895D01*
X114181161Y-119638214D01*
X114149500Y-119878711D01*
X111500500Y-119878711D01*
X111500500Y-94921153D01*
X119199500Y-94921153D01*
X119199500Y-95078846D01*
X119230261Y-95233489D01*
X119230264Y-95233501D01*
X119290602Y-95379172D01*
X119290609Y-95379185D01*
X119378602Y-95510874D01*
X119399480Y-95577551D01*
X119399500Y-95579765D01*
X119399500Y-96417330D01*
X119399499Y-96417348D01*
X119399499Y-96583054D01*
X119399498Y-96583054D01*
X119440424Y-96735789D01*
X119440425Y-96735790D01*
X119458783Y-96767586D01*
X119458784Y-96767587D01*
X119519477Y-96872712D01*
X119519481Y-96872717D01*
X119638349Y-96991585D01*
X119638355Y-96991590D01*
X120231237Y-97584472D01*
X120264722Y-97645795D01*
X120264160Y-97698522D01*
X120264349Y-97698552D01*
X120264146Y-97699831D01*
X120264133Y-97701087D01*
X120263587Y-97703360D01*
X120232500Y-97899639D01*
X120232500Y-98098360D01*
X120263587Y-98294637D01*
X120324993Y-98483629D01*
X120324994Y-98483632D01*
X120406555Y-98643702D01*
X120415213Y-98660694D01*
X120532019Y-98821464D01*
X120672536Y-98961981D01*
X120833306Y-99078787D01*
X120990332Y-99158796D01*
X121041127Y-99206769D01*
X121057922Y-99274590D01*
X121035385Y-99340725D01*
X120990332Y-99379764D01*
X120833566Y-99459641D01*
X120796283Y-99486729D01*
X120796282Y-99486730D01*
X121467554Y-100158000D01*
X121444840Y-100158000D01*
X121347939Y-100183964D01*
X121261060Y-100234124D01*
X121190124Y-100305060D01*
X121139964Y-100391939D01*
X121114000Y-100488840D01*
X121114000Y-100511552D01*
X120442730Y-99840282D01*
X120442729Y-99840283D01*
X120415643Y-99877564D01*
X120325457Y-100054562D01*
X120264075Y-100243476D01*
X120264075Y-100243479D01*
X120233000Y-100439678D01*
X120233000Y-100638321D01*
X120264075Y-100834520D01*
X120264075Y-100834523D01*
X120325457Y-101023437D01*
X120415641Y-101200432D01*
X120442730Y-101237715D01*
X120442731Y-101237716D01*
X121114000Y-100566447D01*
X121114000Y-100589160D01*
X121139964Y-100686061D01*
X121190124Y-100772940D01*
X121261060Y-100843876D01*
X121347939Y-100894036D01*
X121444840Y-100920000D01*
X121467553Y-100920000D01*
X120796283Y-101591268D01*
X120796283Y-101591269D01*
X120833567Y-101618358D01*
X120990331Y-101698234D01*
X121041127Y-101746209D01*
X121057922Y-101814030D01*
X121035384Y-101880165D01*
X120990331Y-101919204D01*
X120833305Y-101999213D01*
X120672533Y-102116021D01*
X120532021Y-102256533D01*
X120415213Y-102417305D01*
X120324994Y-102594367D01*
X120324993Y-102594370D01*
X120263587Y-102783362D01*
X120263587Y-102783364D01*
X120232500Y-102979639D01*
X120232500Y-103178361D01*
X120239170Y-103220471D01*
X120263587Y-103374637D01*
X120324993Y-103563629D01*
X120324994Y-103563632D01*
X120362526Y-103637291D01*
X120415213Y-103740694D01*
X120532019Y-103901464D01*
X120672536Y-104041981D01*
X120833306Y-104158787D01*
X120936708Y-104211473D01*
X120989780Y-104238515D01*
X121040576Y-104286490D01*
X121057371Y-104354311D01*
X121034833Y-104420446D01*
X120989780Y-104459485D01*
X120833305Y-104539213D01*
X120672533Y-104656021D01*
X120532021Y-104796533D01*
X120415213Y-104957305D01*
X120324994Y-105134367D01*
X120324993Y-105134370D01*
X120263587Y-105323362D01*
X120232500Y-105519639D01*
X120232500Y-105718360D01*
X120263587Y-105914637D01*
X120324993Y-106103629D01*
X120324994Y-106103632D01*
X120415213Y-106280694D01*
X120532019Y-106441464D01*
X120672536Y-106581981D01*
X120833306Y-106698787D01*
X120951832Y-106759179D01*
X120989780Y-106778515D01*
X121040576Y-106826490D01*
X121057371Y-106894311D01*
X121034833Y-106960446D01*
X120989780Y-106999485D01*
X120833305Y-107079213D01*
X120672533Y-107196021D01*
X120532021Y-107336533D01*
X120415213Y-107497305D01*
X120324994Y-107674367D01*
X120324993Y-107674370D01*
X120263587Y-107863362D01*
X120232500Y-108059639D01*
X120232500Y-108258361D01*
X120235773Y-108279026D01*
X120263587Y-108454637D01*
X120324993Y-108643629D01*
X120324994Y-108643632D01*
X120403340Y-108797393D01*
X120415213Y-108820694D01*
X120532019Y-108981464D01*
X120672536Y-109121981D01*
X120833306Y-109238787D01*
X120951832Y-109299179D01*
X120989780Y-109318515D01*
X121040576Y-109366490D01*
X121057371Y-109434311D01*
X121034833Y-109500446D01*
X120989780Y-109539485D01*
X120833305Y-109619213D01*
X120672533Y-109736021D01*
X120532021Y-109876533D01*
X120415213Y-110037305D01*
X120324994Y-110214367D01*
X120324993Y-110214370D01*
X120263587Y-110403362D01*
X120238861Y-110559478D01*
X120232500Y-110599639D01*
X120232500Y-110798361D01*
X120234061Y-110808214D01*
X120263587Y-110994637D01*
X120324993Y-111183629D01*
X120324994Y-111183632D01*
X120387858Y-111307007D01*
X120415213Y-111360694D01*
X120532019Y-111521464D01*
X120672536Y-111661981D01*
X120833306Y-111778787D01*
X120951832Y-111839179D01*
X120989780Y-111858515D01*
X121040576Y-111906490D01*
X121057371Y-111974311D01*
X121034833Y-112040446D01*
X120989780Y-112079485D01*
X120833305Y-112159213D01*
X120672533Y-112276021D01*
X120532021Y-112416533D01*
X120415213Y-112577305D01*
X120324994Y-112754367D01*
X120324993Y-112754370D01*
X120263587Y-112943362D01*
X120232500Y-113139639D01*
X120232500Y-113338360D01*
X120263587Y-113534637D01*
X120324993Y-113723629D01*
X120324994Y-113723632D01*
X120360062Y-113792455D01*
X120415213Y-113900694D01*
X120532019Y-114061464D01*
X120672536Y-114201981D01*
X120833306Y-114318787D01*
X120951832Y-114379179D01*
X120989780Y-114398515D01*
X121040576Y-114446490D01*
X121057371Y-114514311D01*
X121034833Y-114580446D01*
X120989780Y-114619485D01*
X120833305Y-114699213D01*
X120672533Y-114816021D01*
X120532021Y-114956533D01*
X120415213Y-115117305D01*
X120324994Y-115294367D01*
X120324993Y-115294370D01*
X120263587Y-115483362D01*
X120240130Y-115631463D01*
X120232500Y-115679639D01*
X120232500Y-115878361D01*
X120235592Y-115897883D01*
X120263587Y-116074637D01*
X120324993Y-116263629D01*
X120324994Y-116263632D01*
X120415213Y-116440694D01*
X120532019Y-116601464D01*
X120672536Y-116741981D01*
X120833306Y-116858787D01*
X120920149Y-116903035D01*
X121010367Y-116949005D01*
X121010370Y-116949006D01*
X121104866Y-116979709D01*
X121199364Y-117010413D01*
X121395639Y-117041500D01*
X121395640Y-117041500D01*
X121594360Y-117041500D01*
X121594361Y-117041500D01*
X121790636Y-117010413D01*
X121979632Y-116949005D01*
X122156694Y-116858787D01*
X122317464Y-116741981D01*
X122457981Y-116601464D01*
X122574787Y-116440694D01*
X122665005Y-116263632D01*
X122726413Y-116074636D01*
X122757500Y-115878361D01*
X122757500Y-115679639D01*
X122726413Y-115483364D01*
X122672113Y-115316243D01*
X122665006Y-115294370D01*
X122665005Y-115294367D01*
X122574786Y-115117305D01*
X122566781Y-115106287D01*
X122457981Y-114956536D01*
X122317464Y-114816019D01*
X122156694Y-114699213D01*
X122000218Y-114619484D01*
X121949423Y-114571510D01*
X121932628Y-114503689D01*
X121955165Y-114437554D01*
X122000218Y-114398515D01*
X122156694Y-114318787D01*
X122317464Y-114201981D01*
X122457981Y-114061464D01*
X122574787Y-113900694D01*
X122665005Y-113723632D01*
X122726413Y-113534636D01*
X122757500Y-113338361D01*
X122757500Y-113139639D01*
X122726413Y-112943364D01*
X122665005Y-112754368D01*
X122665005Y-112754367D01*
X122574786Y-112577305D01*
X122518620Y-112499999D01*
X122457981Y-112416536D01*
X122317464Y-112276019D01*
X122156694Y-112159213D01*
X122000218Y-112079484D01*
X121949423Y-112031510D01*
X121932628Y-111963689D01*
X121955165Y-111897554D01*
X122000218Y-111858515D01*
X122156694Y-111778787D01*
X122317464Y-111661981D01*
X122457981Y-111521464D01*
X122574787Y-111360694D01*
X122665005Y-111183632D01*
X122726413Y-110994636D01*
X122757500Y-110798361D01*
X122757500Y-110599639D01*
X122726413Y-110403364D01*
X122665005Y-110214368D01*
X122665005Y-110214367D01*
X122605360Y-110097309D01*
X122574787Y-110037306D01*
X122457981Y-109876536D01*
X122317464Y-109736019D01*
X122156694Y-109619213D01*
X122000218Y-109539484D01*
X121949423Y-109491510D01*
X121932628Y-109423689D01*
X121955165Y-109357554D01*
X122000218Y-109318515D01*
X122156694Y-109238787D01*
X122317464Y-109121981D01*
X122457981Y-108981464D01*
X122574787Y-108820694D01*
X122643531Y-108685777D01*
X144749500Y-108685777D01*
X144749500Y-110314208D01*
X144749501Y-110314223D01*
X144759904Y-110446413D01*
X144759905Y-110446420D01*
X144814902Y-110664678D01*
X144814903Y-110664681D01*
X144907991Y-110869622D01*
X144907997Y-110869632D01*
X145036174Y-111054645D01*
X145036178Y-111054650D01*
X145036181Y-111054654D01*
X145195346Y-111213819D01*
X145195350Y-111213822D01*
X145195354Y-111213825D01*
X145329855Y-111307007D01*
X145380374Y-111342007D01*
X145585317Y-111435096D01*
X145585321Y-111435097D01*
X145803579Y-111490094D01*
X145803581Y-111490094D01*
X145803588Y-111490096D01*
X145935783Y-111500500D01*
X148064216Y-111500499D01*
X148196412Y-111490096D01*
X148414683Y-111435096D01*
X148619626Y-111342007D01*
X148804654Y-111213819D01*
X148963819Y-111054654D01*
X149092007Y-110869626D01*
X149185096Y-110664683D01*
X149240096Y-110446412D01*
X149250500Y-110314217D01*
X149250500Y-110200013D01*
X157150000Y-110200013D01*
X157150000Y-110750000D01*
X158066988Y-110750000D01*
X158034075Y-110807007D01*
X158000000Y-110934174D01*
X158000000Y-111065826D01*
X158034075Y-111192993D01*
X158066988Y-111250000D01*
X157150001Y-111250000D01*
X157150001Y-111799986D01*
X157160494Y-111902697D01*
X157215641Y-112069119D01*
X157215643Y-112069124D01*
X157307684Y-112218345D01*
X157431654Y-112342315D01*
X157580875Y-112434356D01*
X157580880Y-112434358D01*
X157747302Y-112489505D01*
X157747309Y-112489506D01*
X157850019Y-112499999D01*
X158249999Y-112499999D01*
X158250000Y-112499998D01*
X158250000Y-111433012D01*
X158307007Y-111465925D01*
X158434174Y-111500000D01*
X158565826Y-111500000D01*
X158692993Y-111465925D01*
X158750000Y-111433012D01*
X158750000Y-112499999D01*
X159149972Y-112499999D01*
X159149986Y-112499998D01*
X159252697Y-112489505D01*
X159419119Y-112434358D01*
X159419124Y-112434356D01*
X159568345Y-112342315D01*
X159692317Y-112218343D01*
X159787815Y-112063516D01*
X159839763Y-112016791D01*
X159908725Y-112005568D01*
X159972808Y-112033412D01*
X159981035Y-112040931D01*
X160120213Y-112180109D01*
X160292179Y-112305048D01*
X160292181Y-112305049D01*
X160292184Y-112305051D01*
X160481588Y-112401557D01*
X160683757Y-112467246D01*
X160893713Y-112500500D01*
X160893714Y-112500500D01*
X161106286Y-112500500D01*
X161106287Y-112500500D01*
X161316243Y-112467246D01*
X161518412Y-112401557D01*
X161707816Y-112305051D01*
X161747773Y-112276021D01*
X161879786Y-112180109D01*
X161879788Y-112180106D01*
X161879792Y-112180104D01*
X162030104Y-112029792D01*
X162030106Y-112029788D01*
X162030109Y-112029786D01*
X162155048Y-111857820D01*
X162155047Y-111857820D01*
X162155051Y-111857816D01*
X162251557Y-111668412D01*
X162317246Y-111466243D01*
X162350500Y-111256287D01*
X162350500Y-110743713D01*
X162317246Y-110533757D01*
X162251557Y-110331588D01*
X162155051Y-110142184D01*
X162155049Y-110142181D01*
X162155048Y-110142179D01*
X162030109Y-109970213D01*
X161879786Y-109819890D01*
X161707820Y-109694951D01*
X161518414Y-109598444D01*
X161518413Y-109598443D01*
X161518412Y-109598443D01*
X161316243Y-109532754D01*
X161316241Y-109532753D01*
X161316240Y-109532753D01*
X161154957Y-109507208D01*
X161106287Y-109499500D01*
X160893713Y-109499500D01*
X160845042Y-109507208D01*
X160683760Y-109532753D01*
X160683757Y-109532754D01*
X160566486Y-109570858D01*
X160481585Y-109598444D01*
X160292179Y-109694951D01*
X160120215Y-109819889D01*
X159981035Y-109959069D01*
X159919712Y-109992553D01*
X159850020Y-109987569D01*
X159794087Y-109945697D01*
X159787815Y-109936484D01*
X159692315Y-109781654D01*
X159568345Y-109657684D01*
X159419124Y-109565643D01*
X159419119Y-109565641D01*
X159252697Y-109510494D01*
X159252690Y-109510493D01*
X159149986Y-109500000D01*
X158750000Y-109500000D01*
X158750000Y-110566988D01*
X158692993Y-110534075D01*
X158565826Y-110500000D01*
X158434174Y-110500000D01*
X158307007Y-110534075D01*
X158250000Y-110566988D01*
X158250000Y-109500000D01*
X157850028Y-109500000D01*
X157850012Y-109500001D01*
X157747302Y-109510494D01*
X157580880Y-109565641D01*
X157580875Y-109565643D01*
X157431654Y-109657684D01*
X157307684Y-109781654D01*
X157215643Y-109930875D01*
X157215641Y-109930880D01*
X157160494Y-110097302D01*
X157160493Y-110097309D01*
X157150000Y-110200013D01*
X149250500Y-110200013D01*
X149250499Y-109500000D01*
X149250499Y-108685791D01*
X149250498Y-108685783D01*
X149240096Y-108553588D01*
X149230343Y-108514884D01*
X149185097Y-108335321D01*
X149185096Y-108335318D01*
X149159527Y-108279026D01*
X149092007Y-108130374D01*
X149034429Y-108047265D01*
X148963825Y-107945354D01*
X148963822Y-107945350D01*
X148963819Y-107945346D01*
X148804654Y-107786181D01*
X148804650Y-107786178D01*
X148804645Y-107786174D01*
X148619632Y-107657997D01*
X148619630Y-107657995D01*
X148619626Y-107657993D01*
X148450062Y-107580974D01*
X148414681Y-107564903D01*
X148414678Y-107564902D01*
X148196420Y-107509905D01*
X148196413Y-107509904D01*
X148152347Y-107506436D01*
X148064217Y-107499500D01*
X148064215Y-107499500D01*
X145935791Y-107499500D01*
X145935776Y-107499501D01*
X145803586Y-107509904D01*
X145803579Y-107509905D01*
X145585321Y-107564902D01*
X145585318Y-107564903D01*
X145380377Y-107657991D01*
X145380367Y-107657997D01*
X145195354Y-107786174D01*
X145195342Y-107786184D01*
X145036184Y-107945342D01*
X145036174Y-107945354D01*
X144907997Y-108130367D01*
X144907991Y-108130377D01*
X144814903Y-108335318D01*
X144814902Y-108335321D01*
X144759905Y-108553579D01*
X144759904Y-108553586D01*
X144749500Y-108685777D01*
X122643531Y-108685777D01*
X122665005Y-108643632D01*
X122726413Y-108454636D01*
X122757500Y-108258361D01*
X122757500Y-108059639D01*
X122726413Y-107863364D01*
X122665005Y-107674368D01*
X122665005Y-107674367D01*
X122609230Y-107564904D01*
X122574787Y-107497306D01*
X122457981Y-107336536D01*
X122317464Y-107196019D01*
X122156694Y-107079213D01*
X122000218Y-106999484D01*
X121949423Y-106951510D01*
X121932628Y-106883689D01*
X121955165Y-106817554D01*
X122000218Y-106778515D01*
X122156694Y-106698787D01*
X122317464Y-106581981D01*
X122457981Y-106441464D01*
X122574787Y-106280694D01*
X122665005Y-106103632D01*
X122726413Y-105914636D01*
X122757500Y-105718361D01*
X122757500Y-105519639D01*
X122726413Y-105323364D01*
X122726409Y-105323352D01*
X122725869Y-105321099D01*
X122725913Y-105320209D01*
X122725651Y-105318552D01*
X122725999Y-105318496D01*
X122729360Y-105251316D01*
X122758760Y-105204473D01*
X126261078Y-101702155D01*
X144750000Y-101702155D01*
X144750000Y-103250000D01*
X145566988Y-103250000D01*
X145534075Y-103307007D01*
X145500000Y-103434174D01*
X145500000Y-103565826D01*
X145534075Y-103692993D01*
X145566988Y-103750000D01*
X144750000Y-103750000D01*
X144750000Y-105297844D01*
X144756401Y-105357372D01*
X144756403Y-105357379D01*
X144806645Y-105492086D01*
X144806649Y-105492093D01*
X144892809Y-105607187D01*
X144892812Y-105607190D01*
X145007906Y-105693350D01*
X145007913Y-105693354D01*
X145142620Y-105743596D01*
X145142627Y-105743598D01*
X145202155Y-105749999D01*
X145202172Y-105750000D01*
X146750000Y-105750000D01*
X146750000Y-104000000D01*
X147250000Y-104000000D01*
X147250000Y-105750000D01*
X148797828Y-105750000D01*
X148797844Y-105749999D01*
X148857372Y-105743598D01*
X148857379Y-105743596D01*
X148992086Y-105693354D01*
X148992093Y-105693350D01*
X149107187Y-105607190D01*
X149107190Y-105607187D01*
X149193350Y-105492093D01*
X149193354Y-105492086D01*
X149211515Y-105443395D01*
X149253386Y-105387461D01*
X149318850Y-105363044D01*
X149387123Y-105377895D01*
X149436529Y-105427300D01*
X149451522Y-105493306D01*
X149449501Y-105531344D01*
X149449500Y-105531386D01*
X149449500Y-107468613D01*
X149449501Y-107468652D01*
X149452295Y-107521243D01*
X149452295Y-107521244D01*
X149481910Y-107674367D01*
X149496755Y-107751126D01*
X149520005Y-107812734D01*
X149579425Y-107970189D01*
X149697929Y-108172131D01*
X149697934Y-108172138D01*
X149848856Y-108351141D01*
X149848858Y-108351143D01*
X150027861Y-108502065D01*
X150027868Y-108502070D01*
X150229810Y-108620574D01*
X150448874Y-108703245D01*
X150678759Y-108747705D01*
X150731378Y-108750500D01*
X150731386Y-108750500D01*
X152668614Y-108750500D01*
X152668622Y-108750500D01*
X152721241Y-108747705D01*
X152951126Y-108703245D01*
X153170190Y-108620574D01*
X153372132Y-108502070D01*
X153372257Y-108501965D01*
X153551141Y-108351143D01*
X153551143Y-108351141D01*
X153702065Y-108172138D01*
X153702065Y-108172137D01*
X153702070Y-108172132D01*
X153820574Y-107970190D01*
X153880010Y-107812695D01*
X171239500Y-107812695D01*
X171239500Y-108047304D01*
X171276201Y-108279027D01*
X171348697Y-108502150D01*
X171380536Y-108564636D01*
X171442263Y-108685783D01*
X171455212Y-108711195D01*
X171593104Y-108900989D01*
X171593108Y-108900994D01*
X171759005Y-109066891D01*
X171759010Y-109066895D01*
X171867202Y-109145500D01*
X171948808Y-109204790D01*
X172156932Y-109310835D01*
X172157849Y-109311302D01*
X172254228Y-109342617D01*
X172380974Y-109383799D01*
X172612695Y-109420500D01*
X172612696Y-109420500D01*
X172847304Y-109420500D01*
X172847305Y-109420500D01*
X173079026Y-109383799D01*
X173302153Y-109311301D01*
X173511192Y-109204790D01*
X173700996Y-109066890D01*
X173866890Y-108900996D01*
X173899681Y-108855863D01*
X173955011Y-108813196D01*
X174024624Y-108807216D01*
X174086419Y-108839822D01*
X174100319Y-108855863D01*
X174133106Y-108900992D01*
X174299005Y-109066891D01*
X174299010Y-109066895D01*
X174407202Y-109145500D01*
X174488808Y-109204790D01*
X174696932Y-109310835D01*
X174697849Y-109311302D01*
X174794228Y-109342617D01*
X174920974Y-109383799D01*
X175152695Y-109420500D01*
X175152696Y-109420500D01*
X175387304Y-109420500D01*
X175387305Y-109420500D01*
X175619026Y-109383799D01*
X175842153Y-109311301D01*
X176051192Y-109204790D01*
X176240996Y-109066890D01*
X176406890Y-108900996D01*
X176454948Y-108834848D01*
X176459240Y-108830072D01*
X176483713Y-108814957D01*
X176506490Y-108797393D01*
X176513928Y-108796296D01*
X176518686Y-108793358D01*
X176532210Y-108793600D01*
X176561211Y-108789325D01*
X176594499Y-108791945D01*
X177201304Y-108185140D01*
X177225116Y-108242627D01*
X177297345Y-108350725D01*
X177389275Y-108442655D01*
X177497373Y-108514884D01*
X177554858Y-108538695D01*
X176948052Y-109145499D01*
X176948053Y-109145500D01*
X177029066Y-109204359D01*
X177238034Y-109310835D01*
X177461090Y-109383310D01*
X177692735Y-109420000D01*
X177927265Y-109420000D01*
X178158909Y-109383310D01*
X178381965Y-109310835D01*
X178590930Y-109204361D01*
X178671945Y-109145499D01*
X178671946Y-109145499D01*
X178065141Y-108538695D01*
X178122627Y-108514884D01*
X178230725Y-108442655D01*
X178322655Y-108350725D01*
X178394884Y-108242627D01*
X178418695Y-108185141D01*
X179025499Y-108791945D01*
X179058788Y-108789325D01*
X179127165Y-108803689D01*
X179168836Y-108840058D01*
X179213107Y-108900992D01*
X179213112Y-108900998D01*
X179379005Y-109066891D01*
X179379010Y-109066895D01*
X179487202Y-109145500D01*
X179568808Y-109204790D01*
X179776932Y-109310835D01*
X179777849Y-109311302D01*
X179874228Y-109342617D01*
X180000974Y-109383799D01*
X180232695Y-109420500D01*
X180232696Y-109420500D01*
X180467304Y-109420500D01*
X180467305Y-109420500D01*
X180699026Y-109383799D01*
X180922153Y-109311301D01*
X181131192Y-109204790D01*
X181320996Y-109066890D01*
X181486890Y-108900996D01*
X181519681Y-108855863D01*
X181575011Y-108813196D01*
X181644624Y-108807216D01*
X181706419Y-108839822D01*
X181720319Y-108855863D01*
X181753106Y-108900992D01*
X181919005Y-109066891D01*
X181919010Y-109066895D01*
X182027202Y-109145500D01*
X182108808Y-109204790D01*
X182316932Y-109310835D01*
X182317849Y-109311302D01*
X182414228Y-109342617D01*
X182540974Y-109383799D01*
X182772695Y-109420500D01*
X182772696Y-109420500D01*
X183007304Y-109420500D01*
X183007305Y-109420500D01*
X183239026Y-109383799D01*
X183462153Y-109311301D01*
X183671192Y-109204790D01*
X183860996Y-109066890D01*
X184026890Y-108900996D01*
X184059681Y-108855863D01*
X184115011Y-108813196D01*
X184184624Y-108807216D01*
X184246419Y-108839822D01*
X184260319Y-108855863D01*
X184293106Y-108900992D01*
X184459005Y-109066891D01*
X184459010Y-109066895D01*
X184567202Y-109145500D01*
X184648808Y-109204790D01*
X184856932Y-109310835D01*
X184857849Y-109311302D01*
X184954228Y-109342617D01*
X185080974Y-109383799D01*
X185312695Y-109420500D01*
X185312696Y-109420500D01*
X185547304Y-109420500D01*
X185547305Y-109420500D01*
X185779026Y-109383799D01*
X185899630Y-109344611D01*
X185969468Y-109342617D01*
X186025627Y-109374862D01*
X187903181Y-111252416D01*
X187936666Y-111313739D01*
X187939500Y-111340097D01*
X187939500Y-113525500D01*
X187919815Y-113592539D01*
X187867011Y-113638294D01*
X187815501Y-113649500D01*
X187642130Y-113649500D01*
X187642123Y-113649501D01*
X187582516Y-113655908D01*
X187447671Y-113706202D01*
X187447664Y-113706206D01*
X187332455Y-113792452D01*
X187332452Y-113792455D01*
X187246206Y-113907664D01*
X187246203Y-113907669D01*
X187197189Y-114039083D01*
X187155317Y-114095016D01*
X187089853Y-114119433D01*
X187021580Y-114104581D01*
X186993326Y-114083430D01*
X186879786Y-113969890D01*
X186707820Y-113844951D01*
X186518414Y-113748444D01*
X186518413Y-113748443D01*
X186518412Y-113748443D01*
X186316243Y-113682754D01*
X186316241Y-113682753D01*
X186316240Y-113682753D01*
X186154957Y-113657208D01*
X186106287Y-113649500D01*
X185893713Y-113649500D01*
X185845042Y-113657208D01*
X185683760Y-113682753D01*
X185481585Y-113748444D01*
X185292179Y-113844951D01*
X185120213Y-113969890D01*
X184969890Y-114120213D01*
X184844949Y-114292182D01*
X184840484Y-114300946D01*
X184792509Y-114351742D01*
X184724688Y-114368536D01*
X184658553Y-114345998D01*
X184619516Y-114300946D01*
X184615050Y-114292182D01*
X184490109Y-114120213D01*
X184339786Y-113969890D01*
X184167820Y-113844951D01*
X183978414Y-113748444D01*
X183978413Y-113748443D01*
X183978412Y-113748443D01*
X183776243Y-113682754D01*
X183776241Y-113682753D01*
X183776240Y-113682753D01*
X183614957Y-113657208D01*
X183566287Y-113649500D01*
X183353713Y-113649500D01*
X183305042Y-113657208D01*
X183143760Y-113682753D01*
X182941585Y-113748444D01*
X182752179Y-113844951D01*
X182580213Y-113969890D01*
X182429890Y-114120213D01*
X182304949Y-114292182D01*
X182300484Y-114300946D01*
X182252509Y-114351742D01*
X182184688Y-114368536D01*
X182118553Y-114345998D01*
X182079516Y-114300946D01*
X182075050Y-114292182D01*
X181950109Y-114120213D01*
X181799786Y-113969890D01*
X181627820Y-113844951D01*
X181438414Y-113748444D01*
X181438413Y-113748443D01*
X181438412Y-113748443D01*
X181236243Y-113682754D01*
X181236241Y-113682753D01*
X181236240Y-113682753D01*
X181074957Y-113657208D01*
X181026287Y-113649500D01*
X180813713Y-113649500D01*
X180765042Y-113657208D01*
X180603760Y-113682753D01*
X180401585Y-113748444D01*
X180212179Y-113844951D01*
X180040213Y-113969890D01*
X179889890Y-114120213D01*
X179764951Y-114292179D01*
X179668444Y-114481585D01*
X179602753Y-114683760D01*
X179569500Y-114893713D01*
X179569500Y-115106286D01*
X179599289Y-115294370D01*
X179602754Y-115316243D01*
X179657055Y-115483364D01*
X179668444Y-115518414D01*
X179764951Y-115707820D01*
X179889890Y-115879786D01*
X180040213Y-116030109D01*
X180212179Y-116155048D01*
X180212181Y-116155049D01*
X180212184Y-116155051D01*
X180401588Y-116251557D01*
X180603757Y-116317246D01*
X180813713Y-116350500D01*
X180813714Y-116350500D01*
X181026286Y-116350500D01*
X181026287Y-116350500D01*
X181236243Y-116317246D01*
X181438412Y-116251557D01*
X181627816Y-116155051D01*
X181714138Y-116092335D01*
X181799786Y-116030109D01*
X181799788Y-116030106D01*
X181799792Y-116030104D01*
X181950104Y-115879792D01*
X181950106Y-115879788D01*
X181950109Y-115879786D01*
X182075048Y-115707820D01*
X182075047Y-115707820D01*
X182075051Y-115707816D01*
X182079514Y-115699054D01*
X182127488Y-115648259D01*
X182195308Y-115631463D01*
X182261444Y-115653999D01*
X182300486Y-115699056D01*
X182304951Y-115707820D01*
X182429890Y-115879786D01*
X182580213Y-116030109D01*
X182752179Y-116155048D01*
X182752181Y-116155049D01*
X182752184Y-116155051D01*
X182941588Y-116251557D01*
X183143757Y-116317246D01*
X183353713Y-116350500D01*
X183353714Y-116350500D01*
X183566286Y-116350500D01*
X183566287Y-116350500D01*
X183776243Y-116317246D01*
X183978412Y-116251557D01*
X184167816Y-116155051D01*
X184254138Y-116092335D01*
X184339786Y-116030109D01*
X184339788Y-116030106D01*
X184339792Y-116030104D01*
X184490104Y-115879792D01*
X184490106Y-115879788D01*
X184490109Y-115879786D01*
X184615048Y-115707820D01*
X184615047Y-115707820D01*
X184615051Y-115707816D01*
X184619514Y-115699054D01*
X184667488Y-115648259D01*
X184735308Y-115631463D01*
X184801444Y-115653999D01*
X184840486Y-115699056D01*
X184844951Y-115707820D01*
X184969890Y-115879786D01*
X185120213Y-116030109D01*
X185292179Y-116155048D01*
X185292181Y-116155049D01*
X185292184Y-116155051D01*
X185481588Y-116251557D01*
X185683757Y-116317246D01*
X185893713Y-116350500D01*
X185893714Y-116350500D01*
X186106286Y-116350500D01*
X186106287Y-116350500D01*
X186316243Y-116317246D01*
X186518412Y-116251557D01*
X186707816Y-116155051D01*
X186879792Y-116030104D01*
X186993329Y-115916566D01*
X187054648Y-115883084D01*
X187124340Y-115888068D01*
X187180274Y-115929939D01*
X187197189Y-115960917D01*
X187246202Y-116092328D01*
X187246206Y-116092335D01*
X187332452Y-116207544D01*
X187332455Y-116207547D01*
X187447664Y-116293793D01*
X187447671Y-116293797D01*
X187582517Y-116344091D01*
X187582516Y-116344091D01*
X187589444Y-116344835D01*
X187642127Y-116350500D01*
X189437872Y-116350499D01*
X189497483Y-116344091D01*
X189632331Y-116293796D01*
X189747546Y-116207546D01*
X189833796Y-116092331D01*
X189884091Y-115957483D01*
X189890500Y-115897873D01*
X189890499Y-114102128D01*
X189884091Y-114042517D01*
X189882810Y-114039083D01*
X189833797Y-113907671D01*
X189833793Y-113907664D01*
X189747547Y-113792455D01*
X189747544Y-113792452D01*
X189632335Y-113706206D01*
X189632328Y-113706202D01*
X189497482Y-113655908D01*
X189497483Y-113655908D01*
X189437883Y-113649501D01*
X189437881Y-113649500D01*
X189437873Y-113649500D01*
X189437865Y-113649500D01*
X189264500Y-113649500D01*
X189197461Y-113629815D01*
X189151706Y-113577011D01*
X189140500Y-113525500D01*
X189140500Y-110960945D01*
X189140500Y-110960943D01*
X189099577Y-110808216D01*
X189099577Y-110808215D01*
X189099577Y-110808214D01*
X189070639Y-110758095D01*
X189070637Y-110758092D01*
X189065965Y-110750000D01*
X189020520Y-110671284D01*
X188908716Y-110559480D01*
X188908715Y-110559479D01*
X188904385Y-110555149D01*
X188904374Y-110555139D01*
X187981416Y-109632181D01*
X187947931Y-109570858D01*
X187952915Y-109501166D01*
X187994787Y-109445233D01*
X188060251Y-109420816D01*
X188069097Y-109420500D01*
X188087304Y-109420500D01*
X188087305Y-109420500D01*
X188319026Y-109383799D01*
X188542153Y-109311301D01*
X188751192Y-109204790D01*
X188940996Y-109066890D01*
X189106890Y-108900996D01*
X189154948Y-108834848D01*
X189159240Y-108830072D01*
X189183713Y-108814957D01*
X189206490Y-108797393D01*
X189213928Y-108796296D01*
X189218686Y-108793358D01*
X189232210Y-108793600D01*
X189261211Y-108789325D01*
X189294499Y-108791945D01*
X189901304Y-108185140D01*
X189925116Y-108242627D01*
X189997345Y-108350725D01*
X190089275Y-108442655D01*
X190197373Y-108514884D01*
X190254858Y-108538695D01*
X189648052Y-109145499D01*
X189648053Y-109145500D01*
X189729066Y-109204359D01*
X189938034Y-109310835D01*
X190161090Y-109383310D01*
X190392735Y-109420000D01*
X190627265Y-109420000D01*
X190858909Y-109383310D01*
X191081965Y-109310835D01*
X191290930Y-109204361D01*
X191371945Y-109145499D01*
X191371946Y-109145499D01*
X190765141Y-108538695D01*
X190822627Y-108514884D01*
X190930725Y-108442655D01*
X191022655Y-108350725D01*
X191094884Y-108242627D01*
X191118695Y-108185141D01*
X191725499Y-108791946D01*
X191725499Y-108791945D01*
X191784361Y-108710930D01*
X191890835Y-108501965D01*
X191963310Y-108278909D01*
X192000000Y-108047265D01*
X192000000Y-107812734D01*
X191963310Y-107581090D01*
X191890835Y-107358034D01*
X191784359Y-107149066D01*
X191725500Y-107068053D01*
X191725499Y-107068052D01*
X191118694Y-107674857D01*
X191094884Y-107617373D01*
X191022655Y-107509275D01*
X190930725Y-107417345D01*
X190822627Y-107345116D01*
X190765141Y-107321304D01*
X191371945Y-106714499D01*
X191371945Y-106714498D01*
X191290933Y-106655640D01*
X191081965Y-106549164D01*
X190858909Y-106476689D01*
X190627265Y-106440000D01*
X190392735Y-106440000D01*
X190161090Y-106476689D01*
X189938034Y-106549164D01*
X189729068Y-106655639D01*
X189648053Y-106714498D01*
X189648053Y-106714499D01*
X190254858Y-107321304D01*
X190197373Y-107345116D01*
X190089275Y-107417345D01*
X189997345Y-107509275D01*
X189925116Y-107617373D01*
X189901304Y-107674858D01*
X189294499Y-107068053D01*
X189261210Y-107070673D01*
X189257410Y-107069874D01*
X189253706Y-107071035D01*
X189223493Y-107062749D01*
X189192833Y-107056309D01*
X189188984Y-107053286D01*
X189186324Y-107052557D01*
X189176763Y-107043688D01*
X189159240Y-107029926D01*
X189154941Y-107025141D01*
X189106890Y-106959004D01*
X188940996Y-106793110D01*
X188940994Y-106793108D01*
X188940989Y-106793104D01*
X188751195Y-106655212D01*
X188751194Y-106655211D01*
X188751192Y-106655210D01*
X188646672Y-106601954D01*
X188542150Y-106548697D01*
X188319027Y-106476201D01*
X188203165Y-106457850D01*
X188087305Y-106439500D01*
X187852695Y-106439500D01*
X187775454Y-106451733D01*
X187620972Y-106476201D01*
X187397849Y-106548697D01*
X187188804Y-106655212D01*
X186999010Y-106793104D01*
X186999005Y-106793108D01*
X186833108Y-106959005D01*
X186833104Y-106959010D01*
X186800318Y-107004137D01*
X186744988Y-107046803D01*
X186675375Y-107052782D01*
X186613580Y-107020176D01*
X186599682Y-107004137D01*
X186566895Y-106959010D01*
X186566891Y-106959005D01*
X186400994Y-106793108D01*
X186400989Y-106793104D01*
X186211195Y-106655212D01*
X186211194Y-106655211D01*
X186211192Y-106655210D01*
X186106672Y-106601954D01*
X186002150Y-106548697D01*
X185779027Y-106476201D01*
X185663165Y-106457850D01*
X185547305Y-106439500D01*
X185312695Y-106439500D01*
X185235454Y-106451733D01*
X185080972Y-106476201D01*
X184857849Y-106548697D01*
X184648804Y-106655212D01*
X184459010Y-106793104D01*
X184459005Y-106793108D01*
X184293108Y-106959005D01*
X184293104Y-106959010D01*
X184260318Y-107004137D01*
X184204988Y-107046803D01*
X184135375Y-107052782D01*
X184073580Y-107020176D01*
X184059682Y-107004137D01*
X184026895Y-106959010D01*
X184026891Y-106959005D01*
X183860994Y-106793108D01*
X183860989Y-106793104D01*
X183671195Y-106655212D01*
X183671194Y-106655211D01*
X183671192Y-106655210D01*
X183566672Y-106601954D01*
X183462150Y-106548697D01*
X183239027Y-106476201D01*
X183123165Y-106457850D01*
X183007305Y-106439500D01*
X182772695Y-106439500D01*
X182695454Y-106451733D01*
X182540972Y-106476201D01*
X182317849Y-106548697D01*
X182108804Y-106655212D01*
X181919010Y-106793104D01*
X181919005Y-106793108D01*
X181753108Y-106959005D01*
X181753104Y-106959010D01*
X181720318Y-107004137D01*
X181664988Y-107046803D01*
X181595375Y-107052782D01*
X181533580Y-107020176D01*
X181519682Y-107004137D01*
X181486895Y-106959010D01*
X181486891Y-106959005D01*
X181320994Y-106793108D01*
X181320989Y-106793104D01*
X181131195Y-106655212D01*
X181131194Y-106655211D01*
X181131192Y-106655210D01*
X181026672Y-106601954D01*
X180922150Y-106548697D01*
X180699027Y-106476201D01*
X180583165Y-106457850D01*
X180467305Y-106439500D01*
X180232695Y-106439500D01*
X180155454Y-106451733D01*
X180000972Y-106476201D01*
X179777849Y-106548697D01*
X179568804Y-106655212D01*
X179379010Y-106793104D01*
X179379005Y-106793108D01*
X179213109Y-106959004D01*
X179168835Y-107019942D01*
X179113505Y-107062607D01*
X179058789Y-107070673D01*
X179025499Y-107068053D01*
X178418694Y-107674857D01*
X178394884Y-107617373D01*
X178322655Y-107509275D01*
X178230725Y-107417345D01*
X178122627Y-107345116D01*
X178065141Y-107321304D01*
X178671945Y-106714499D01*
X178671945Y-106714498D01*
X178590933Y-106655640D01*
X178381965Y-106549164D01*
X178158909Y-106476689D01*
X177927265Y-106440000D01*
X177692735Y-106440000D01*
X177461090Y-106476689D01*
X177238034Y-106549164D01*
X177029068Y-106655639D01*
X176948053Y-106714498D01*
X176948053Y-106714499D01*
X177554858Y-107321304D01*
X177497373Y-107345116D01*
X177389275Y-107417345D01*
X177297345Y-107509275D01*
X177225116Y-107617373D01*
X177201304Y-107674858D01*
X176594499Y-107068053D01*
X176561210Y-107070673D01*
X176557410Y-107069874D01*
X176553706Y-107071035D01*
X176523493Y-107062749D01*
X176492833Y-107056309D01*
X176488984Y-107053286D01*
X176486324Y-107052557D01*
X176476763Y-107043688D01*
X176459240Y-107029926D01*
X176454941Y-107025141D01*
X176406890Y-106959004D01*
X176240996Y-106793110D01*
X176240994Y-106793108D01*
X176240989Y-106793104D01*
X176051195Y-106655212D01*
X176051194Y-106655211D01*
X176051192Y-106655210D01*
X175946672Y-106601954D01*
X175842150Y-106548697D01*
X175619027Y-106476201D01*
X175503165Y-106457850D01*
X175387305Y-106439500D01*
X175152695Y-106439500D01*
X175075454Y-106451733D01*
X174920972Y-106476201D01*
X174697849Y-106548697D01*
X174488804Y-106655212D01*
X174299010Y-106793104D01*
X174299005Y-106793108D01*
X174133108Y-106959005D01*
X174133104Y-106959010D01*
X174100318Y-107004137D01*
X174044988Y-107046803D01*
X173975375Y-107052782D01*
X173913580Y-107020176D01*
X173899682Y-107004137D01*
X173866895Y-106959010D01*
X173866891Y-106959005D01*
X173700994Y-106793108D01*
X173700989Y-106793104D01*
X173511195Y-106655212D01*
X173511194Y-106655211D01*
X173511192Y-106655210D01*
X173406672Y-106601954D01*
X173302150Y-106548697D01*
X173079027Y-106476201D01*
X172963165Y-106457850D01*
X172847305Y-106439500D01*
X172612695Y-106439500D01*
X172535454Y-106451733D01*
X172380972Y-106476201D01*
X172157849Y-106548697D01*
X171948804Y-106655212D01*
X171759010Y-106793104D01*
X171759005Y-106793108D01*
X171593108Y-106959005D01*
X171593104Y-106959010D01*
X171455212Y-107148804D01*
X171348697Y-107357849D01*
X171276201Y-107580972D01*
X171239500Y-107812695D01*
X153880010Y-107812695D01*
X153903245Y-107751126D01*
X153947705Y-107521241D01*
X153950500Y-107468622D01*
X153950500Y-105531378D01*
X153947705Y-105478759D01*
X153903245Y-105248874D01*
X153820574Y-105029810D01*
X153702070Y-104827868D01*
X153702065Y-104827861D01*
X153551143Y-104648858D01*
X153551141Y-104648856D01*
X153372138Y-104497934D01*
X153372131Y-104497929D01*
X153170189Y-104379425D01*
X153079832Y-104345326D01*
X152951126Y-104296755D01*
X152898050Y-104286490D01*
X152721243Y-104252295D01*
X152668652Y-104249501D01*
X152668629Y-104249500D01*
X152668622Y-104249500D01*
X150731378Y-104249500D01*
X150731370Y-104249500D01*
X150731347Y-104249501D01*
X150678756Y-104252295D01*
X150678755Y-104252295D01*
X150448878Y-104296754D01*
X150448876Y-104296754D01*
X150448874Y-104296755D01*
X150412683Y-104310413D01*
X150229810Y-104379425D01*
X150027868Y-104497929D01*
X150027861Y-104497934D01*
X149848858Y-104648856D01*
X149848856Y-104648858D01*
X149697934Y-104827861D01*
X149697929Y-104827868D01*
X149579425Y-105029810D01*
X149539967Y-105134370D01*
X149496755Y-105248874D01*
X149496754Y-105248876D01*
X149496754Y-105248878D01*
X149495744Y-105254101D01*
X149463688Y-105316183D01*
X149403156Y-105351078D01*
X149333368Y-105347709D01*
X149276480Y-105307144D01*
X149250554Y-105242262D01*
X149250000Y-105230555D01*
X149250000Y-103750000D01*
X148433012Y-103750000D01*
X148465925Y-103692993D01*
X148500000Y-103565826D01*
X148500000Y-103434174D01*
X148465925Y-103307007D01*
X148433012Y-103250000D01*
X149250000Y-103250000D01*
X149250000Y-101702172D01*
X149249999Y-101702155D01*
X149243598Y-101642627D01*
X149243596Y-101642620D01*
X149193354Y-101507913D01*
X149193350Y-101507906D01*
X149107190Y-101392812D01*
X149107187Y-101392809D01*
X148992093Y-101306649D01*
X148992086Y-101306645D01*
X148857379Y-101256403D01*
X148857372Y-101256401D01*
X148797844Y-101250000D01*
X147250000Y-101250000D01*
X147250000Y-103000000D01*
X146750000Y-103000000D01*
X146750000Y-101250000D01*
X145202155Y-101250000D01*
X145142627Y-101256401D01*
X145142620Y-101256403D01*
X145007913Y-101306645D01*
X145007906Y-101306649D01*
X144892812Y-101392809D01*
X144892809Y-101392812D01*
X144806649Y-101507906D01*
X144806645Y-101507913D01*
X144756403Y-101642620D01*
X144756401Y-101642627D01*
X144750000Y-101702155D01*
X126261078Y-101702155D01*
X131811099Y-96152135D01*
X141199500Y-96152135D01*
X141199500Y-97847870D01*
X141199501Y-97847876D01*
X141205908Y-97907483D01*
X141256202Y-98042328D01*
X141256206Y-98042335D01*
X141342452Y-98157544D01*
X141342455Y-98157547D01*
X141457664Y-98243793D01*
X141457671Y-98243797D01*
X141592517Y-98294091D01*
X141592516Y-98294091D01*
X141597586Y-98294636D01*
X141652127Y-98300500D01*
X143347872Y-98300499D01*
X143407483Y-98294091D01*
X143542331Y-98243796D01*
X143657546Y-98157546D01*
X143743796Y-98042331D01*
X143794091Y-97907483D01*
X143800500Y-97847873D01*
X143800499Y-97835612D01*
X143804075Y-97821052D01*
X143814342Y-97803380D01*
X143820067Y-97783760D01*
X143831539Y-97773783D01*
X143839177Y-97760640D01*
X143857367Y-97751325D01*
X143872792Y-97737913D01*
X143889280Y-97734984D01*
X143901367Y-97728795D01*
X143916018Y-97730234D01*
X143916254Y-97730192D01*
X144600000Y-97046446D01*
X144600000Y-97052661D01*
X144627259Y-97154394D01*
X144679920Y-97245606D01*
X144754394Y-97320080D01*
X144845606Y-97372741D01*
X144947339Y-97400000D01*
X144953553Y-97400000D01*
X144274076Y-98079474D01*
X144318650Y-98111859D01*
X144500968Y-98204755D01*
X144695582Y-98267990D01*
X144897683Y-98300000D01*
X145102317Y-98300000D01*
X145304417Y-98267990D01*
X145499031Y-98204755D01*
X145681349Y-98111859D01*
X145725921Y-98079474D01*
X145046447Y-97400000D01*
X145052661Y-97400000D01*
X145154394Y-97372741D01*
X145245606Y-97320080D01*
X145320080Y-97245606D01*
X145372741Y-97154394D01*
X145400000Y-97052661D01*
X145400000Y-97046448D01*
X146079474Y-97725922D01*
X146079474Y-97725921D01*
X146111859Y-97681349D01*
X146204755Y-97499031D01*
X146267990Y-97304417D01*
X146300000Y-97102317D01*
X146300000Y-96897682D01*
X146267990Y-96695582D01*
X146204755Y-96500968D01*
X146111859Y-96318650D01*
X146079474Y-96274077D01*
X146079474Y-96274076D01*
X145400000Y-96953551D01*
X145400000Y-96947339D01*
X145372741Y-96845606D01*
X145320080Y-96754394D01*
X145245606Y-96679920D01*
X145154394Y-96627259D01*
X145052661Y-96600000D01*
X145046446Y-96600000D01*
X145725922Y-95920524D01*
X145725921Y-95920523D01*
X145681359Y-95888147D01*
X145681350Y-95888141D01*
X145499031Y-95795244D01*
X145304417Y-95732009D01*
X145102317Y-95700000D01*
X144897683Y-95700000D01*
X144695582Y-95732009D01*
X144500968Y-95795244D01*
X144318644Y-95888143D01*
X144274077Y-95920523D01*
X144274077Y-95920524D01*
X144953554Y-96600000D01*
X144947339Y-96600000D01*
X144845606Y-96627259D01*
X144754394Y-96679920D01*
X144679920Y-96754394D01*
X144627259Y-96845606D01*
X144600000Y-96947339D01*
X144600000Y-96953553D01*
X143915513Y-96269066D01*
X143865849Y-96258633D01*
X143816093Y-96209581D01*
X143804076Y-96178947D01*
X143800499Y-96164378D01*
X143800499Y-96152128D01*
X143794091Y-96092517D01*
X143761212Y-96004365D01*
X143761211Y-96004359D01*
X143743797Y-95957671D01*
X143743793Y-95957664D01*
X143657547Y-95842455D01*
X143657544Y-95842452D01*
X143542335Y-95756206D01*
X143542328Y-95756202D01*
X143407482Y-95705908D01*
X143407483Y-95705908D01*
X143347883Y-95699501D01*
X143347881Y-95699500D01*
X143347873Y-95699500D01*
X143347864Y-95699500D01*
X141652129Y-95699500D01*
X141652123Y-95699501D01*
X141592516Y-95705908D01*
X141457671Y-95756202D01*
X141457664Y-95756206D01*
X141342455Y-95842452D01*
X141342452Y-95842455D01*
X141256206Y-95957664D01*
X141256202Y-95957671D01*
X141205908Y-96092517D01*
X141199501Y-96152116D01*
X141199500Y-96152135D01*
X131811099Y-96152135D01*
X133311099Y-94652135D01*
X151199500Y-94652135D01*
X151199500Y-96347870D01*
X151199501Y-96347876D01*
X151205908Y-96407483D01*
X151256202Y-96542328D01*
X151256206Y-96542335D01*
X151342452Y-96657544D01*
X151342455Y-96657547D01*
X151457664Y-96743793D01*
X151457671Y-96743797D01*
X151592517Y-96794091D01*
X151592516Y-96794091D01*
X151599444Y-96794835D01*
X151652127Y-96800500D01*
X153347872Y-96800499D01*
X153407483Y-96794091D01*
X153542331Y-96743796D01*
X153657546Y-96657546D01*
X153743796Y-96542331D01*
X153794091Y-96407483D01*
X153800500Y-96347873D01*
X153800499Y-96335612D01*
X153804075Y-96321052D01*
X153814342Y-96303380D01*
X153820067Y-96283760D01*
X153831539Y-96273783D01*
X153839177Y-96260640D01*
X153857367Y-96251325D01*
X153872792Y-96237913D01*
X153889280Y-96234984D01*
X153901367Y-96228795D01*
X153916018Y-96230234D01*
X153916254Y-96230192D01*
X154600000Y-95546446D01*
X154600000Y-95552661D01*
X154627259Y-95654394D01*
X154679920Y-95745606D01*
X154754394Y-95820080D01*
X154845606Y-95872741D01*
X154947339Y-95900000D01*
X154953553Y-95900000D01*
X154274076Y-96579474D01*
X154318650Y-96611859D01*
X154500968Y-96704755D01*
X154695582Y-96767990D01*
X154897683Y-96800000D01*
X155102317Y-96800000D01*
X155304417Y-96767990D01*
X155499031Y-96704755D01*
X155681349Y-96611859D01*
X155725921Y-96579474D01*
X155046447Y-95900000D01*
X155052661Y-95900000D01*
X155154394Y-95872741D01*
X155245606Y-95820080D01*
X155320080Y-95745606D01*
X155372741Y-95654394D01*
X155400000Y-95552661D01*
X155400000Y-95546448D01*
X156079474Y-96225922D01*
X156079474Y-96225921D01*
X156111859Y-96181349D01*
X156204755Y-95999031D01*
X156267990Y-95804417D01*
X156300000Y-95602317D01*
X156300000Y-95397682D01*
X156267990Y-95195582D01*
X156204754Y-95000965D01*
X156151817Y-94897070D01*
X156151816Y-94897069D01*
X156125614Y-94845646D01*
X160999500Y-94845646D01*
X160999500Y-95074354D01*
X161010918Y-95146446D01*
X161035278Y-95300246D01*
X161035278Y-95300249D01*
X161105950Y-95517755D01*
X161123736Y-95552661D01*
X161209783Y-95721538D01*
X161344214Y-95906566D01*
X161505934Y-96068286D01*
X161590864Y-96129991D01*
X161633529Y-96185321D01*
X161639508Y-96254935D01*
X161606902Y-96316730D01*
X161590864Y-96330627D01*
X161506257Y-96392097D01*
X161344597Y-96553757D01*
X161210211Y-96738723D01*
X161106417Y-96942429D01*
X161035765Y-97159871D01*
X161021491Y-97250000D01*
X162009252Y-97250000D01*
X161987482Y-97287708D01*
X161950000Y-97427591D01*
X161950000Y-97572409D01*
X161987482Y-97712292D01*
X162009252Y-97750000D01*
X161021491Y-97750000D01*
X161035765Y-97840128D01*
X161106417Y-98057570D01*
X161210213Y-98261279D01*
X161343011Y-98444060D01*
X161366491Y-98509866D01*
X161350666Y-98577920D01*
X161300560Y-98626615D01*
X161286026Y-98633127D01*
X161257671Y-98643702D01*
X161257664Y-98643706D01*
X161142455Y-98729952D01*
X161142452Y-98729955D01*
X161056206Y-98845164D01*
X161056202Y-98845171D01*
X161005908Y-98980017D01*
X160999501Y-99039616D01*
X160999501Y-99039623D01*
X160999500Y-99039635D01*
X160999500Y-101040370D01*
X160999501Y-101040376D01*
X161005908Y-101099983D01*
X161056202Y-101234828D01*
X161056206Y-101234835D01*
X161142452Y-101350044D01*
X161142455Y-101350047D01*
X161257664Y-101436293D01*
X161257671Y-101436297D01*
X161392517Y-101486591D01*
X161392516Y-101486591D01*
X161399444Y-101487335D01*
X161452127Y-101493000D01*
X163547872Y-101492999D01*
X163607483Y-101486591D01*
X163742331Y-101436296D01*
X163857546Y-101350046D01*
X163943796Y-101234831D01*
X163994091Y-101099983D01*
X164000500Y-101040373D01*
X164000499Y-99039628D01*
X163994091Y-98980017D01*
X163943796Y-98845169D01*
X163943795Y-98845168D01*
X163943793Y-98845164D01*
X163857547Y-98729955D01*
X163857544Y-98729952D01*
X163742335Y-98643706D01*
X163742326Y-98643701D01*
X163713974Y-98633127D01*
X163658040Y-98591257D01*
X163633622Y-98525792D01*
X163648473Y-98457519D01*
X163656988Y-98444059D01*
X163789788Y-98261276D01*
X163893582Y-98057570D01*
X163964234Y-97840128D01*
X163978509Y-97750000D01*
X162990748Y-97750000D01*
X163012518Y-97712292D01*
X163050000Y-97572409D01*
X163050000Y-97427591D01*
X163012518Y-97287708D01*
X162990748Y-97250000D01*
X163978509Y-97250000D01*
X163964234Y-97159871D01*
X163893582Y-96942429D01*
X163789788Y-96738723D01*
X163655402Y-96553757D01*
X163493742Y-96392097D01*
X163409135Y-96330626D01*
X163366470Y-96275296D01*
X163360491Y-96205682D01*
X163393097Y-96143887D01*
X163409125Y-96129999D01*
X163494066Y-96068286D01*
X163655786Y-95906566D01*
X163790217Y-95721538D01*
X163894048Y-95517758D01*
X163899818Y-95499999D01*
X163964721Y-95300249D01*
X163964721Y-95300248D01*
X163964722Y-95300245D01*
X164000500Y-95074354D01*
X164000500Y-94845646D01*
X163964722Y-94619755D01*
X163964721Y-94619751D01*
X163964721Y-94619750D01*
X163894049Y-94402244D01*
X163863585Y-94342455D01*
X163790217Y-94198462D01*
X163655786Y-94013434D01*
X163494066Y-93851714D01*
X163309038Y-93717283D01*
X163105255Y-93613450D01*
X162887748Y-93542778D01*
X162718326Y-93515944D01*
X162661854Y-93507000D01*
X162338146Y-93507000D01*
X162262849Y-93518926D01*
X162112253Y-93542778D01*
X162112250Y-93542778D01*
X161894744Y-93613450D01*
X161690961Y-93717283D01*
X161614401Y-93772908D01*
X161505934Y-93851714D01*
X161505932Y-93851716D01*
X161505931Y-93851716D01*
X161344216Y-94013431D01*
X161344216Y-94013432D01*
X161344214Y-94013434D01*
X161302510Y-94070835D01*
X161209783Y-94198461D01*
X161105950Y-94402244D01*
X161035278Y-94619750D01*
X161035278Y-94619753D01*
X161003776Y-94818650D01*
X160999500Y-94845646D01*
X156125614Y-94845646D01*
X156111859Y-94818650D01*
X156079474Y-94774077D01*
X156079474Y-94774076D01*
X155400000Y-95453551D01*
X155400000Y-95447339D01*
X155372741Y-95345606D01*
X155320080Y-95254394D01*
X155245606Y-95179920D01*
X155154394Y-95127259D01*
X155052661Y-95100000D01*
X155046446Y-95100000D01*
X155725922Y-94420524D01*
X155725921Y-94420523D01*
X155681359Y-94388147D01*
X155681350Y-94388141D01*
X155499031Y-94295244D01*
X155304417Y-94232009D01*
X155102317Y-94200000D01*
X154897683Y-94200000D01*
X154695582Y-94232009D01*
X154500968Y-94295244D01*
X154318644Y-94388143D01*
X154274077Y-94420523D01*
X154274077Y-94420524D01*
X154953554Y-95100000D01*
X154947339Y-95100000D01*
X154845606Y-95127259D01*
X154754394Y-95179920D01*
X154679920Y-95254394D01*
X154627259Y-95345606D01*
X154600000Y-95447339D01*
X154600000Y-95453553D01*
X153915513Y-94769066D01*
X153865849Y-94758633D01*
X153816093Y-94709581D01*
X153804076Y-94678947D01*
X153800499Y-94664378D01*
X153800499Y-94652128D01*
X153794091Y-94592517D01*
X153761212Y-94504365D01*
X153761211Y-94504359D01*
X153743797Y-94457671D01*
X153743793Y-94457664D01*
X153657547Y-94342455D01*
X153657544Y-94342452D01*
X153542335Y-94256206D01*
X153542328Y-94256202D01*
X153407482Y-94205908D01*
X153407483Y-94205908D01*
X153347883Y-94199501D01*
X153347881Y-94199500D01*
X153347873Y-94199500D01*
X153347864Y-94199500D01*
X151652129Y-94199500D01*
X151652123Y-94199501D01*
X151592516Y-94205908D01*
X151457671Y-94256202D01*
X151457664Y-94256206D01*
X151342455Y-94342452D01*
X151342452Y-94342455D01*
X151256206Y-94457664D01*
X151256202Y-94457671D01*
X151205908Y-94592517D01*
X151199501Y-94652116D01*
X151199500Y-94652135D01*
X133311099Y-94652135D01*
X142325416Y-85637819D01*
X142386739Y-85604334D01*
X142413097Y-85601500D01*
X153232331Y-85601500D01*
X153232347Y-85601501D01*
X153239943Y-85601501D01*
X153398054Y-85601501D01*
X153398057Y-85601501D01*
X153550785Y-85560577D01*
X153600904Y-85531639D01*
X153687716Y-85481520D01*
X153799520Y-85369716D01*
X153799520Y-85369714D01*
X153809728Y-85359507D01*
X153809730Y-85359504D01*
X154016437Y-85152796D01*
X154077758Y-85119313D01*
X154142433Y-85122547D01*
X154268632Y-85163553D01*
X154356110Y-85177408D01*
X154501903Y-85200500D01*
X154501908Y-85200500D01*
X154738097Y-85200500D01*
X154971368Y-85163553D01*
X155004468Y-85152798D01*
X155195992Y-85090568D01*
X155406433Y-84983343D01*
X155597510Y-84844517D01*
X155764517Y-84677510D01*
X155789682Y-84642872D01*
X155845011Y-84600207D01*
X155914625Y-84594228D01*
X155976420Y-84626833D01*
X155990315Y-84642870D01*
X156015483Y-84677510D01*
X156182490Y-84844517D01*
X156373567Y-84983343D01*
X156436783Y-85015553D01*
X156584003Y-85090566D01*
X156584005Y-85090566D01*
X156584008Y-85090568D01*
X156672476Y-85119313D01*
X156808631Y-85163553D01*
X157041903Y-85200500D01*
X157041908Y-85200500D01*
X157278097Y-85200500D01*
X157511368Y-85163553D01*
X157544468Y-85152798D01*
X157735992Y-85090568D01*
X157946433Y-84983343D01*
X158137510Y-84844517D01*
X158304517Y-84677510D01*
X158329682Y-84642872D01*
X158385011Y-84600207D01*
X158454625Y-84594228D01*
X158516420Y-84626833D01*
X158530315Y-84642870D01*
X158555483Y-84677510D01*
X158722490Y-84844517D01*
X158913567Y-84983343D01*
X158976783Y-85015553D01*
X159124003Y-85090566D01*
X159124005Y-85090566D01*
X159124008Y-85090568D01*
X159212476Y-85119313D01*
X159348631Y-85163553D01*
X159581903Y-85200500D01*
X159581908Y-85200500D01*
X159818097Y-85200500D01*
X160051368Y-85163553D01*
X160084468Y-85152798D01*
X160275992Y-85090568D01*
X160486433Y-84983343D01*
X160677510Y-84844517D01*
X160844517Y-84677510D01*
X160869682Y-84642872D01*
X160925011Y-84600207D01*
X160994625Y-84594228D01*
X161056420Y-84626833D01*
X161070315Y-84642870D01*
X161095483Y-84677510D01*
X161262490Y-84844517D01*
X161453567Y-84983343D01*
X161516783Y-85015553D01*
X161664003Y-85090566D01*
X161664005Y-85090566D01*
X161664008Y-85090568D01*
X161752476Y-85119313D01*
X161888631Y-85163553D01*
X162121903Y-85200500D01*
X162121908Y-85200500D01*
X162358097Y-85200500D01*
X162591368Y-85163553D01*
X162624468Y-85152798D01*
X162815992Y-85090568D01*
X163026433Y-84983343D01*
X163217510Y-84844517D01*
X163384517Y-84677510D01*
X163409682Y-84642872D01*
X163465011Y-84600207D01*
X163534625Y-84594228D01*
X163596420Y-84626833D01*
X163610315Y-84642870D01*
X163635483Y-84677510D01*
X163802490Y-84844517D01*
X163993567Y-84983343D01*
X164056783Y-85015553D01*
X164204003Y-85090566D01*
X164204005Y-85090566D01*
X164204008Y-85090568D01*
X164292476Y-85119313D01*
X164428631Y-85163553D01*
X164661903Y-85200500D01*
X164661908Y-85200500D01*
X164898097Y-85200500D01*
X165131368Y-85163553D01*
X165164468Y-85152798D01*
X165355992Y-85090568D01*
X165566433Y-84983343D01*
X165757510Y-84844517D01*
X165924517Y-84677510D01*
X166063343Y-84486433D01*
X166170568Y-84275992D01*
X166243553Y-84051368D01*
X166268637Y-83892993D01*
X166280500Y-83818097D01*
X166280500Y-83581902D01*
X166243553Y-83348631D01*
X166170566Y-83124003D01*
X166063342Y-82913566D01*
X166049999Y-82895201D01*
X165924517Y-82722490D01*
X165757510Y-82555483D01*
X165566433Y-82416657D01*
X165355996Y-82309433D01*
X165131368Y-82236446D01*
X164898097Y-82199500D01*
X164898092Y-82199500D01*
X164661908Y-82199500D01*
X164661903Y-82199500D01*
X164428631Y-82236446D01*
X164204003Y-82309433D01*
X163993566Y-82416657D01*
X163910047Y-82477338D01*
X163802490Y-82555483D01*
X163802488Y-82555485D01*
X163802487Y-82555485D01*
X163635484Y-82722488D01*
X163610318Y-82757127D01*
X163554987Y-82799792D01*
X163485374Y-82805771D01*
X163423579Y-82773165D01*
X163409682Y-82757127D01*
X163384517Y-82722490D01*
X163217510Y-82555483D01*
X163026433Y-82416657D01*
X162815996Y-82309433D01*
X162591368Y-82236446D01*
X162358097Y-82199500D01*
X162358092Y-82199500D01*
X162121908Y-82199500D01*
X162121903Y-82199500D01*
X161888631Y-82236446D01*
X161664003Y-82309433D01*
X161453566Y-82416657D01*
X161370047Y-82477338D01*
X161262490Y-82555483D01*
X161262488Y-82555485D01*
X161262487Y-82555485D01*
X161095484Y-82722488D01*
X161070318Y-82757127D01*
X161014987Y-82799792D01*
X160945374Y-82805771D01*
X160883579Y-82773165D01*
X160869682Y-82757127D01*
X160844517Y-82722490D01*
X160677510Y-82555483D01*
X160486433Y-82416657D01*
X160275996Y-82309433D01*
X160051368Y-82236446D01*
X159818097Y-82199500D01*
X159818092Y-82199500D01*
X159581908Y-82199500D01*
X159581903Y-82199500D01*
X159348631Y-82236446D01*
X159124003Y-82309433D01*
X158913566Y-82416657D01*
X158830047Y-82477338D01*
X158722490Y-82555483D01*
X158722488Y-82555485D01*
X158722487Y-82555485D01*
X158555484Y-82722488D01*
X158530318Y-82757127D01*
X158474987Y-82799792D01*
X158405374Y-82805771D01*
X158343579Y-82773165D01*
X158329682Y-82757127D01*
X158304517Y-82722490D01*
X158137510Y-82555483D01*
X157946433Y-82416657D01*
X157735996Y-82309433D01*
X157511368Y-82236446D01*
X157278097Y-82199500D01*
X157278092Y-82199500D01*
X157041908Y-82199500D01*
X157041903Y-82199500D01*
X156808631Y-82236446D01*
X156584003Y-82309433D01*
X156373566Y-82416657D01*
X156290047Y-82477338D01*
X156182490Y-82555483D01*
X156182488Y-82555485D01*
X156182487Y-82555485D01*
X156015484Y-82722488D01*
X155990318Y-82757127D01*
X155934987Y-82799792D01*
X155865374Y-82805771D01*
X155803579Y-82773165D01*
X155789682Y-82757127D01*
X155764517Y-82722490D01*
X155597510Y-82555483D01*
X155406433Y-82416657D01*
X155195996Y-82309433D01*
X154971368Y-82236446D01*
X154738097Y-82199500D01*
X154738092Y-82199500D01*
X154501908Y-82199500D01*
X154501903Y-82199500D01*
X154268631Y-82236446D01*
X154044003Y-82309433D01*
X153833566Y-82416657D01*
X153750047Y-82477338D01*
X153642490Y-82555483D01*
X153642488Y-82555485D01*
X153642487Y-82555485D01*
X153475484Y-82722488D01*
X153450318Y-82757127D01*
X153394987Y-82799792D01*
X153325374Y-82805771D01*
X153263579Y-82773165D01*
X153249682Y-82757127D01*
X153224517Y-82722490D01*
X153057510Y-82555483D01*
X152866433Y-82416657D01*
X152655996Y-82309433D01*
X152431368Y-82236446D01*
X152198097Y-82199500D01*
X152198092Y-82199500D01*
X151961908Y-82199500D01*
X151961903Y-82199500D01*
X151728631Y-82236446D01*
X151504003Y-82309433D01*
X151293566Y-82416657D01*
X151210047Y-82477338D01*
X151102490Y-82555483D01*
X151102488Y-82555485D01*
X151102487Y-82555485D01*
X150935484Y-82722488D01*
X150910318Y-82757127D01*
X150854987Y-82799792D01*
X150785374Y-82805771D01*
X150723579Y-82773165D01*
X150709682Y-82757127D01*
X150684517Y-82722490D01*
X150517510Y-82555483D01*
X150326433Y-82416657D01*
X150115996Y-82309433D01*
X149891368Y-82236446D01*
X149658097Y-82199500D01*
X149658092Y-82199500D01*
X149421908Y-82199500D01*
X149421903Y-82199500D01*
X149188631Y-82236446D01*
X148964003Y-82309433D01*
X148753566Y-82416657D01*
X148670047Y-82477338D01*
X148562490Y-82555483D01*
X148562488Y-82555485D01*
X148562487Y-82555485D01*
X148395484Y-82722488D01*
X148370318Y-82757127D01*
X148314987Y-82799792D01*
X148245374Y-82805771D01*
X148183579Y-82773165D01*
X148169682Y-82757127D01*
X148144517Y-82722490D01*
X147977510Y-82555483D01*
X147786433Y-82416657D01*
X147575996Y-82309433D01*
X147351368Y-82236446D01*
X147118097Y-82199500D01*
X147118092Y-82199500D01*
X146881908Y-82199500D01*
X146881903Y-82199500D01*
X146648631Y-82236446D01*
X146424003Y-82309433D01*
X146213566Y-82416657D01*
X146130047Y-82477338D01*
X146022490Y-82555483D01*
X146022488Y-82555485D01*
X146022487Y-82555485D01*
X145855484Y-82722488D01*
X145830318Y-82757127D01*
X145774987Y-82799792D01*
X145705374Y-82805771D01*
X145643579Y-82773165D01*
X145629682Y-82757127D01*
X145604517Y-82722490D01*
X145437510Y-82555483D01*
X145246433Y-82416657D01*
X145035996Y-82309433D01*
X144811368Y-82236446D01*
X144578097Y-82199500D01*
X144578092Y-82199500D01*
X144341908Y-82199500D01*
X144341903Y-82199500D01*
X144108631Y-82236446D01*
X143884003Y-82309433D01*
X143673566Y-82416657D01*
X143590047Y-82477338D01*
X143482490Y-82555483D01*
X143482488Y-82555485D01*
X143482487Y-82555485D01*
X143315484Y-82722488D01*
X143290318Y-82757127D01*
X143234987Y-82799792D01*
X143165374Y-82805771D01*
X143103579Y-82773165D01*
X143089682Y-82757127D01*
X143064517Y-82722490D01*
X142897510Y-82555483D01*
X142706433Y-82416657D01*
X142495996Y-82309433D01*
X142271368Y-82236446D01*
X142038097Y-82199500D01*
X142038092Y-82199500D01*
X141801908Y-82199500D01*
X141801903Y-82199500D01*
X141568631Y-82236446D01*
X141344003Y-82309433D01*
X141133566Y-82416657D01*
X141050047Y-82477338D01*
X140942490Y-82555483D01*
X140942488Y-82555485D01*
X140942487Y-82555485D01*
X140775484Y-82722488D01*
X140750318Y-82757127D01*
X140694987Y-82799792D01*
X140625374Y-82805771D01*
X140563579Y-82773165D01*
X140549682Y-82757127D01*
X140524517Y-82722490D01*
X140357510Y-82555483D01*
X140166433Y-82416657D01*
X139955996Y-82309433D01*
X139731368Y-82236446D01*
X139498097Y-82199500D01*
X139498092Y-82199500D01*
X139261908Y-82199500D01*
X139261903Y-82199500D01*
X139028631Y-82236446D01*
X138804003Y-82309433D01*
X138593566Y-82416657D01*
X138510047Y-82477338D01*
X138402490Y-82555483D01*
X138402488Y-82555485D01*
X138402487Y-82555485D01*
X138235484Y-82722488D01*
X138210318Y-82757127D01*
X138154987Y-82799792D01*
X138085374Y-82805771D01*
X138023579Y-82773165D01*
X138009682Y-82757127D01*
X137984517Y-82722490D01*
X137817510Y-82555483D01*
X137626433Y-82416657D01*
X137415996Y-82309433D01*
X137191368Y-82236446D01*
X136958097Y-82199500D01*
X136958092Y-82199500D01*
X136721908Y-82199500D01*
X136721903Y-82199500D01*
X136488631Y-82236446D01*
X136264003Y-82309433D01*
X136053566Y-82416657D01*
X135970047Y-82477338D01*
X135862490Y-82555483D01*
X135862488Y-82555485D01*
X135862487Y-82555485D01*
X135695484Y-82722488D01*
X135670318Y-82757127D01*
X135614987Y-82799792D01*
X135545374Y-82805771D01*
X135483579Y-82773165D01*
X135469682Y-82757127D01*
X135444517Y-82722490D01*
X135277510Y-82555483D01*
X135086433Y-82416657D01*
X134875996Y-82309433D01*
X134651368Y-82236446D01*
X134418097Y-82199500D01*
X134418092Y-82199500D01*
X134181908Y-82199500D01*
X134181903Y-82199500D01*
X133948631Y-82236446D01*
X133724003Y-82309433D01*
X133513566Y-82416657D01*
X133430047Y-82477338D01*
X133322490Y-82555483D01*
X133322488Y-82555485D01*
X133322487Y-82555485D01*
X133155482Y-82722490D01*
X133112451Y-82781717D01*
X133057120Y-82824382D01*
X133002405Y-82832448D01*
X132982658Y-82830893D01*
X132242962Y-83570590D01*
X132225925Y-83507007D01*
X132160099Y-83392993D01*
X132067007Y-83299901D01*
X131952993Y-83234075D01*
X131889409Y-83217037D01*
X132629105Y-82477340D01*
X132629104Y-82477338D01*
X132546174Y-82417087D01*
X132335802Y-82309897D01*
X132111247Y-82236934D01*
X132111248Y-82236934D01*
X131878052Y-82200000D01*
X131641948Y-82200000D01*
X131408752Y-82236934D01*
X131184197Y-82309897D01*
X130973830Y-82417084D01*
X130890894Y-82477340D01*
X131630591Y-83217037D01*
X131567007Y-83234075D01*
X131452993Y-83299901D01*
X131359901Y-83392993D01*
X131294075Y-83507007D01*
X131277037Y-83570590D01*
X130537340Y-82830893D01*
X130517593Y-82832448D01*
X130513860Y-82831663D01*
X130510222Y-82832808D01*
X130479936Y-82824537D01*
X130449215Y-82818084D01*
X130445429Y-82815114D01*
X130442821Y-82814402D01*
X130433431Y-82805701D01*
X130415712Y-82791800D01*
X130411370Y-82786978D01*
X130364517Y-82722490D01*
X130197510Y-82555483D01*
X130006433Y-82416657D01*
X129795996Y-82309433D01*
X129571368Y-82236446D01*
X129338097Y-82199500D01*
X129338092Y-82199500D01*
X129101908Y-82199500D01*
X129101903Y-82199500D01*
X128868631Y-82236446D01*
X128644003Y-82309433D01*
X128433566Y-82416657D01*
X128350047Y-82477338D01*
X128242490Y-82555483D01*
X128242488Y-82555485D01*
X128242487Y-82555485D01*
X128075485Y-82722487D01*
X128075485Y-82722488D01*
X128075483Y-82722490D01*
X128032452Y-82781717D01*
X127936657Y-82913566D01*
X127829433Y-83124003D01*
X127756446Y-83348631D01*
X127719500Y-83581902D01*
X127719500Y-83818097D01*
X127756446Y-84051368D01*
X127829433Y-84275996D01*
X127936657Y-84486433D01*
X128075483Y-84677510D01*
X128242490Y-84844517D01*
X128433567Y-84983343D01*
X128496783Y-85015553D01*
X128644003Y-85090566D01*
X128644005Y-85090566D01*
X128644008Y-85090568D01*
X128732476Y-85119313D01*
X128868631Y-85163553D01*
X129101903Y-85200500D01*
X129101908Y-85200500D01*
X129338097Y-85200500D01*
X129571368Y-85163553D01*
X129604468Y-85152798D01*
X129795992Y-85090568D01*
X130006433Y-84983343D01*
X130197510Y-84844517D01*
X130364517Y-84677510D01*
X130411370Y-84613022D01*
X130415713Y-84608199D01*
X130440150Y-84593142D01*
X130462877Y-84575618D01*
X130470393Y-84574509D01*
X130475199Y-84571549D01*
X130488730Y-84571806D01*
X130517594Y-84567551D01*
X130537340Y-84569105D01*
X131277037Y-83829408D01*
X131294075Y-83892993D01*
X131359901Y-84007007D01*
X131452993Y-84100099D01*
X131567007Y-84165925D01*
X131630590Y-84182962D01*
X130890893Y-84922658D01*
X130973828Y-84982914D01*
X131184197Y-85090102D01*
X131408752Y-85163065D01*
X131408751Y-85163065D01*
X131641948Y-85200000D01*
X131878052Y-85200000D01*
X132111247Y-85163065D01*
X132335802Y-85090102D01*
X132546163Y-84982918D01*
X132546169Y-84982914D01*
X132629104Y-84922658D01*
X132629105Y-84922658D01*
X131889408Y-84182962D01*
X131952993Y-84165925D01*
X132067007Y-84100099D01*
X132160099Y-84007007D01*
X132225925Y-83892993D01*
X132242962Y-83829408D01*
X132982657Y-84569104D01*
X133002404Y-84567550D01*
X133070781Y-84581914D01*
X133112451Y-84618282D01*
X133155483Y-84677510D01*
X133322490Y-84844517D01*
X133513567Y-84983343D01*
X133576783Y-85015553D01*
X133724003Y-85090566D01*
X133724005Y-85090566D01*
X133724008Y-85090568D01*
X133812476Y-85119313D01*
X133948631Y-85163553D01*
X134181903Y-85200500D01*
X134181908Y-85200500D01*
X134418097Y-85200500D01*
X134651368Y-85163553D01*
X134684468Y-85152798D01*
X134875992Y-85090568D01*
X135086433Y-84983343D01*
X135277510Y-84844517D01*
X135444517Y-84677510D01*
X135469682Y-84642872D01*
X135525011Y-84600207D01*
X135594625Y-84594228D01*
X135656420Y-84626833D01*
X135670315Y-84642870D01*
X135695483Y-84677510D01*
X135862490Y-84844517D01*
X136053567Y-84983343D01*
X136116783Y-85015553D01*
X136264003Y-85090566D01*
X136264005Y-85090566D01*
X136264008Y-85090568D01*
X136352476Y-85119313D01*
X136488631Y-85163553D01*
X136721903Y-85200500D01*
X136721908Y-85200500D01*
X136958097Y-85200500D01*
X137191368Y-85163553D01*
X137224468Y-85152798D01*
X137415992Y-85090568D01*
X137626433Y-84983343D01*
X137817510Y-84844517D01*
X137984517Y-84677510D01*
X138009682Y-84642872D01*
X138065011Y-84600207D01*
X138134625Y-84594228D01*
X138196420Y-84626833D01*
X138210315Y-84642870D01*
X138235483Y-84677510D01*
X138402490Y-84844517D01*
X138593567Y-84983343D01*
X138656783Y-85015553D01*
X138804003Y-85090566D01*
X138804005Y-85090566D01*
X138804008Y-85090568D01*
X138892476Y-85119313D01*
X139028631Y-85163553D01*
X139261903Y-85200500D01*
X139261908Y-85200500D01*
X139498097Y-85200500D01*
X139731368Y-85163553D01*
X139764468Y-85152798D01*
X139955992Y-85090568D01*
X140166433Y-84983343D01*
X140357510Y-84844517D01*
X140524517Y-84677510D01*
X140549682Y-84642872D01*
X140605011Y-84600207D01*
X140674625Y-84594228D01*
X140736420Y-84626833D01*
X140750315Y-84642870D01*
X140775483Y-84677510D01*
X140942490Y-84844517D01*
X141101747Y-84960224D01*
X141144411Y-85015553D01*
X141150390Y-85085166D01*
X141117784Y-85146961D01*
X141116541Y-85148222D01*
X122965457Y-103299306D01*
X122904134Y-103332791D01*
X122834442Y-103327807D01*
X122778509Y-103285935D01*
X122754092Y-103220471D01*
X122755302Y-103192235D01*
X122757500Y-103178361D01*
X122757500Y-102979639D01*
X122726413Y-102783364D01*
X122665005Y-102594368D01*
X122665005Y-102594367D01*
X122574786Y-102417305D01*
X122457981Y-102256536D01*
X122317464Y-102116019D01*
X122156694Y-101999213D01*
X121999667Y-101919203D01*
X121948872Y-101871229D01*
X121932077Y-101803408D01*
X121954614Y-101737273D01*
X121999669Y-101698234D01*
X122156422Y-101618364D01*
X122193716Y-101591268D01*
X121522448Y-100920000D01*
X121545160Y-100920000D01*
X121642061Y-100894036D01*
X121728940Y-100843876D01*
X121799876Y-100772940D01*
X121850036Y-100686061D01*
X121876000Y-100589160D01*
X121876000Y-100566447D01*
X122547268Y-101237715D01*
X122574362Y-101200425D01*
X122664542Y-101023437D01*
X122725924Y-100834523D01*
X122725924Y-100834520D01*
X122757000Y-100638321D01*
X122757000Y-100439678D01*
X122725924Y-100243479D01*
X122725924Y-100243476D01*
X122664542Y-100054562D01*
X122574358Y-99877567D01*
X122547268Y-99840283D01*
X121876000Y-100511551D01*
X121876000Y-100488840D01*
X121850036Y-100391939D01*
X121799876Y-100305060D01*
X121728940Y-100234124D01*
X121642061Y-100183964D01*
X121545160Y-100158000D01*
X121522447Y-100158000D01*
X122193716Y-99486731D01*
X122193715Y-99486730D01*
X122156432Y-99459641D01*
X121999668Y-99379765D01*
X121948872Y-99331790D01*
X121932077Y-99263969D01*
X121954615Y-99197834D01*
X121999667Y-99158796D01*
X122156694Y-99078787D01*
X122317464Y-98961981D01*
X122457981Y-98821464D01*
X122574787Y-98660694D01*
X122665005Y-98483632D01*
X122726413Y-98294636D01*
X122757500Y-98098361D01*
X122757500Y-97899639D01*
X122726413Y-97703364D01*
X122665005Y-97514368D01*
X122665005Y-97514367D01*
X122574786Y-97337305D01*
X122457981Y-97176536D01*
X122317464Y-97036019D01*
X122156694Y-96919213D01*
X121979632Y-96828994D01*
X121979629Y-96828993D01*
X121790637Y-96767587D01*
X121640432Y-96743797D01*
X121594361Y-96736500D01*
X121395639Y-96736500D01*
X121381604Y-96738723D01*
X121199360Y-96767587D01*
X121197087Y-96768133D01*
X121196197Y-96768088D01*
X121194552Y-96768349D01*
X121194497Y-96768003D01*
X121127305Y-96764635D01*
X121080472Y-96735237D01*
X120636819Y-96291584D01*
X120603334Y-96230261D01*
X120600500Y-96203903D01*
X120600500Y-95579765D01*
X120620185Y-95512726D01*
X120621398Y-95510874D01*
X120628665Y-95499999D01*
X120709394Y-95379179D01*
X120769737Y-95233497D01*
X120800500Y-95078842D01*
X120800500Y-94921158D01*
X120800500Y-94921155D01*
X120800499Y-94921153D01*
X120795708Y-94897069D01*
X120769737Y-94766503D01*
X120766477Y-94758633D01*
X120709397Y-94620827D01*
X120709390Y-94620814D01*
X120621789Y-94489711D01*
X120621786Y-94489707D01*
X120510292Y-94378213D01*
X120510288Y-94378210D01*
X120379185Y-94290609D01*
X120379172Y-94290602D01*
X120233501Y-94230264D01*
X120233489Y-94230261D01*
X120078845Y-94199500D01*
X120078842Y-94199500D01*
X119921158Y-94199500D01*
X119921155Y-94199500D01*
X119766510Y-94230261D01*
X119766498Y-94230264D01*
X119620827Y-94290602D01*
X119620814Y-94290609D01*
X119489711Y-94378210D01*
X119489707Y-94378213D01*
X119378213Y-94489707D01*
X119378210Y-94489711D01*
X119290609Y-94620814D01*
X119290602Y-94620827D01*
X119230264Y-94766498D01*
X119230261Y-94766510D01*
X119199500Y-94921153D01*
X111500500Y-94921153D01*
X111500500Y-92329054D01*
X116649498Y-92329054D01*
X116652692Y-92340974D01*
X116690423Y-92481785D01*
X116769481Y-92618716D01*
X116769483Y-92618718D01*
X116915425Y-92764660D01*
X116948910Y-92825983D01*
X116949361Y-92828149D01*
X116980261Y-92983491D01*
X116980264Y-92983501D01*
X117040602Y-93129172D01*
X117040609Y-93129185D01*
X117128210Y-93260288D01*
X117128213Y-93260292D01*
X117239707Y-93371786D01*
X117239711Y-93371789D01*
X117370814Y-93459390D01*
X117370827Y-93459397D01*
X117485753Y-93507000D01*
X117516503Y-93519737D01*
X117665251Y-93549325D01*
X117671153Y-93550499D01*
X117671156Y-93550500D01*
X117671158Y-93550500D01*
X117828844Y-93550500D01*
X117828845Y-93550499D01*
X117983497Y-93519737D01*
X118129179Y-93459394D01*
X118260289Y-93371789D01*
X118371789Y-93260289D01*
X118459394Y-93129179D01*
X118519737Y-92983497D01*
X118550500Y-92828842D01*
X118550500Y-92671158D01*
X118550500Y-92671155D01*
X118550499Y-92671153D01*
X118540069Y-92618718D01*
X118519737Y-92516503D01*
X118511860Y-92497485D01*
X118459397Y-92370827D01*
X118459390Y-92370814D01*
X118371789Y-92239711D01*
X118371786Y-92239707D01*
X118328337Y-92196258D01*
X118294852Y-92134935D01*
X118299836Y-92065243D01*
X118328335Y-92020898D01*
X121980520Y-88368716D01*
X122059577Y-88231784D01*
X122100501Y-88079057D01*
X122100501Y-87920942D01*
X122100501Y-87913347D01*
X122100500Y-87913329D01*
X122100500Y-66320096D01*
X122120185Y-66253057D01*
X122136814Y-66232420D01*
X128616437Y-59752796D01*
X128677758Y-59719313D01*
X128742433Y-59722547D01*
X128868632Y-59763553D01*
X128956110Y-59777408D01*
X129101903Y-59800500D01*
X129101908Y-59800500D01*
X129338097Y-59800500D01*
X129571368Y-59763553D01*
X129604468Y-59752798D01*
X129795992Y-59690568D01*
X130006433Y-59583343D01*
X130197510Y-59444517D01*
X130364517Y-59277510D01*
X130411370Y-59213022D01*
X130415713Y-59208199D01*
X130440150Y-59193142D01*
X130462877Y-59175618D01*
X130470393Y-59174509D01*
X130475199Y-59171549D01*
X130488730Y-59171806D01*
X130517594Y-59167551D01*
X130537340Y-59169105D01*
X131277037Y-58429408D01*
X131294075Y-58492993D01*
X131359901Y-58607007D01*
X131452993Y-58700099D01*
X131567007Y-58765925D01*
X131630590Y-58782962D01*
X130890893Y-59522658D01*
X130973828Y-59582914D01*
X131184197Y-59690102D01*
X131408752Y-59763065D01*
X131408751Y-59763065D01*
X131641948Y-59800000D01*
X131878052Y-59800000D01*
X132111247Y-59763065D01*
X132335802Y-59690102D01*
X132546163Y-59582918D01*
X132546169Y-59582914D01*
X132629104Y-59522658D01*
X132629105Y-59522658D01*
X131889408Y-58782962D01*
X131952993Y-58765925D01*
X132067007Y-58700099D01*
X132160099Y-58607007D01*
X132225925Y-58492993D01*
X132242962Y-58429409D01*
X132982657Y-59169104D01*
X133002404Y-59167550D01*
X133070781Y-59181914D01*
X133112451Y-59218282D01*
X133155483Y-59277510D01*
X133322490Y-59444517D01*
X133513567Y-59583343D01*
X133612991Y-59634002D01*
X133724003Y-59690566D01*
X133724005Y-59690566D01*
X133724008Y-59690568D01*
X133802935Y-59716213D01*
X133948631Y-59763553D01*
X134181903Y-59800500D01*
X134181908Y-59800500D01*
X134418097Y-59800500D01*
X134651368Y-59763553D01*
X134684468Y-59752798D01*
X134875992Y-59690568D01*
X135086433Y-59583343D01*
X135277510Y-59444517D01*
X135444517Y-59277510D01*
X135469682Y-59242872D01*
X135525011Y-59200207D01*
X135594625Y-59194228D01*
X135656420Y-59226833D01*
X135670315Y-59242870D01*
X135695483Y-59277510D01*
X135862490Y-59444517D01*
X136053567Y-59583343D01*
X136152991Y-59634002D01*
X136264003Y-59690566D01*
X136264005Y-59690566D01*
X136264008Y-59690568D01*
X136342935Y-59716213D01*
X136488631Y-59763553D01*
X136721903Y-59800500D01*
X136721908Y-59800500D01*
X136958097Y-59800500D01*
X137191368Y-59763553D01*
X137224468Y-59752798D01*
X137415992Y-59690568D01*
X137626433Y-59583343D01*
X137817510Y-59444517D01*
X137984517Y-59277510D01*
X138009682Y-59242872D01*
X138065011Y-59200207D01*
X138134625Y-59194228D01*
X138196420Y-59226833D01*
X138210315Y-59242870D01*
X138235483Y-59277510D01*
X138402490Y-59444517D01*
X138593567Y-59583343D01*
X138692991Y-59634002D01*
X138804003Y-59690566D01*
X138804005Y-59690566D01*
X138804008Y-59690568D01*
X138882935Y-59716213D01*
X139028631Y-59763553D01*
X139261903Y-59800500D01*
X139261908Y-59800500D01*
X139498097Y-59800500D01*
X139731368Y-59763553D01*
X139764468Y-59752798D01*
X139955992Y-59690568D01*
X140166433Y-59583343D01*
X140357510Y-59444517D01*
X140524517Y-59277510D01*
X140549682Y-59242872D01*
X140605011Y-59200207D01*
X140674625Y-59194228D01*
X140736420Y-59226833D01*
X140750315Y-59242870D01*
X140775483Y-59277510D01*
X140942490Y-59444517D01*
X141133567Y-59583343D01*
X141232991Y-59634002D01*
X141344003Y-59690566D01*
X141344005Y-59690566D01*
X141344008Y-59690568D01*
X141422935Y-59716213D01*
X141568631Y-59763553D01*
X141801903Y-59800500D01*
X141801908Y-59800500D01*
X142038097Y-59800500D01*
X142144126Y-59783705D01*
X142271368Y-59763553D01*
X142397566Y-59722547D01*
X142467404Y-59720553D01*
X142523563Y-59752798D01*
X142736139Y-59965374D01*
X142736149Y-59965385D01*
X142740479Y-59969715D01*
X142740480Y-59969716D01*
X142852284Y-60081520D01*
X142939095Y-60131639D01*
X142939097Y-60131641D01*
X142977151Y-60153611D01*
X142989215Y-60160577D01*
X143141943Y-60201501D01*
X143141946Y-60201501D01*
X143307653Y-60201501D01*
X143307669Y-60201500D01*
X144868003Y-60201500D01*
X144935042Y-60221185D01*
X144955684Y-60237819D01*
X174633181Y-89915316D01*
X174666666Y-89976639D01*
X174669500Y-90002997D01*
X174669500Y-91247154D01*
X174649815Y-91314193D01*
X174601796Y-91357638D01*
X174488806Y-91415210D01*
X174299010Y-91553104D01*
X174299005Y-91553108D01*
X174133108Y-91719005D01*
X174133104Y-91719010D01*
X174100318Y-91764137D01*
X174044988Y-91806803D01*
X173975375Y-91812782D01*
X173913580Y-91780176D01*
X173899682Y-91764137D01*
X173866895Y-91719010D01*
X173866891Y-91719005D01*
X173700994Y-91553108D01*
X173700989Y-91553104D01*
X173511195Y-91415212D01*
X173511194Y-91415211D01*
X173511192Y-91415210D01*
X173398201Y-91357638D01*
X173302150Y-91308697D01*
X173079027Y-91236201D01*
X172963165Y-91217850D01*
X172847305Y-91199500D01*
X172612695Y-91199500D01*
X172535454Y-91211733D01*
X172380972Y-91236201D01*
X172157849Y-91308697D01*
X171948804Y-91415212D01*
X171759010Y-91553104D01*
X171759005Y-91553108D01*
X171593108Y-91719005D01*
X171593104Y-91719010D01*
X171455212Y-91908804D01*
X171348697Y-92117849D01*
X171276201Y-92340972D01*
X171270436Y-92377373D01*
X171239500Y-92572695D01*
X171239500Y-92807305D01*
X171242912Y-92828846D01*
X171276201Y-93039027D01*
X171348697Y-93262150D01*
X171380536Y-93324636D01*
X171449200Y-93459397D01*
X171455212Y-93471195D01*
X171593104Y-93660989D01*
X171593108Y-93660994D01*
X171759005Y-93826891D01*
X171759010Y-93826895D01*
X171867202Y-93905500D01*
X171948808Y-93964790D01*
X172156932Y-94070835D01*
X172157849Y-94071302D01*
X172269410Y-94107550D01*
X172380974Y-94143799D01*
X172612695Y-94180500D01*
X172612696Y-94180500D01*
X172847304Y-94180500D01*
X172847305Y-94180500D01*
X173079026Y-94143799D01*
X173302153Y-94071301D01*
X173511192Y-93964790D01*
X173700996Y-93826890D01*
X173866890Y-93660996D01*
X173899681Y-93615863D01*
X173955011Y-93573196D01*
X174024624Y-93567216D01*
X174086419Y-93599822D01*
X174100319Y-93615863D01*
X174133106Y-93660992D01*
X174299005Y-93826891D01*
X174299010Y-93826895D01*
X174407202Y-93905500D01*
X174488808Y-93964790D01*
X174696932Y-94070835D01*
X174697849Y-94071302D01*
X174809410Y-94107550D01*
X174920974Y-94143799D01*
X175152695Y-94180500D01*
X175152696Y-94180500D01*
X175387304Y-94180500D01*
X175387305Y-94180500D01*
X175619026Y-94143799D01*
X175842153Y-94071301D01*
X176051192Y-93964790D01*
X176240996Y-93826890D01*
X176406890Y-93660996D01*
X176439681Y-93615863D01*
X176495011Y-93573196D01*
X176564624Y-93567216D01*
X176626419Y-93599822D01*
X176640319Y-93615863D01*
X176673106Y-93660992D01*
X176839005Y-93826891D01*
X176839010Y-93826895D01*
X176947202Y-93905500D01*
X177028808Y-93964790D01*
X177236932Y-94070835D01*
X177237849Y-94071302D01*
X177349410Y-94107550D01*
X177460974Y-94143799D01*
X177692695Y-94180500D01*
X177692696Y-94180500D01*
X177927304Y-94180500D01*
X177927305Y-94180500D01*
X178159026Y-94143799D01*
X178382153Y-94071301D01*
X178591192Y-93964790D01*
X178780996Y-93826890D01*
X178946890Y-93660996D01*
X178979681Y-93615863D01*
X179035011Y-93573196D01*
X179104624Y-93567216D01*
X179166419Y-93599822D01*
X179180319Y-93615863D01*
X179213106Y-93660992D01*
X179379005Y-93826891D01*
X179379010Y-93826895D01*
X179487202Y-93905500D01*
X179568808Y-93964790D01*
X179776932Y-94070835D01*
X179777849Y-94071302D01*
X179889410Y-94107550D01*
X180000974Y-94143799D01*
X180232695Y-94180500D01*
X180232696Y-94180500D01*
X180467304Y-94180500D01*
X180467305Y-94180500D01*
X180699026Y-94143799D01*
X180922153Y-94071301D01*
X181131192Y-93964790D01*
X181320996Y-93826890D01*
X181486890Y-93660996D01*
X181519681Y-93615863D01*
X181575011Y-93573196D01*
X181644624Y-93567216D01*
X181706419Y-93599822D01*
X181720319Y-93615863D01*
X181753106Y-93660992D01*
X181919005Y-93826891D01*
X181919010Y-93826895D01*
X182027202Y-93905500D01*
X182108808Y-93964790D01*
X182316932Y-94070835D01*
X182317849Y-94071302D01*
X182429410Y-94107550D01*
X182540974Y-94143799D01*
X182772695Y-94180500D01*
X182772696Y-94180500D01*
X183007304Y-94180500D01*
X183007305Y-94180500D01*
X183239026Y-94143799D01*
X183462153Y-94071301D01*
X183671192Y-93964790D01*
X183860996Y-93826890D01*
X184026890Y-93660996D01*
X184059681Y-93615863D01*
X184115011Y-93573196D01*
X184184624Y-93567216D01*
X184246419Y-93599822D01*
X184260319Y-93615863D01*
X184293106Y-93660992D01*
X184459005Y-93826891D01*
X184459010Y-93826895D01*
X184567202Y-93905500D01*
X184648808Y-93964790D01*
X184856932Y-94070835D01*
X184857849Y-94071302D01*
X184969410Y-94107550D01*
X185080974Y-94143799D01*
X185312695Y-94180500D01*
X185312696Y-94180500D01*
X185547304Y-94180500D01*
X185547305Y-94180500D01*
X185779026Y-94143799D01*
X186002153Y-94071301D01*
X186211192Y-93964790D01*
X186400996Y-93826890D01*
X186566890Y-93660996D01*
X186599681Y-93615863D01*
X186655011Y-93573196D01*
X186724624Y-93567216D01*
X186786419Y-93599822D01*
X186800319Y-93615863D01*
X186833106Y-93660992D01*
X186999005Y-93826891D01*
X186999010Y-93826895D01*
X187107202Y-93905500D01*
X187188808Y-93964790D01*
X187396932Y-94070835D01*
X187397849Y-94071302D01*
X187509410Y-94107550D01*
X187620974Y-94143799D01*
X187852695Y-94180500D01*
X187852696Y-94180500D01*
X188087304Y-94180500D01*
X188087305Y-94180500D01*
X188319026Y-94143799D01*
X188542153Y-94071301D01*
X188751192Y-93964790D01*
X188940996Y-93826890D01*
X189106890Y-93660996D01*
X189154948Y-93594848D01*
X189159240Y-93590072D01*
X189183713Y-93574957D01*
X189206490Y-93557393D01*
X189213928Y-93556296D01*
X189218686Y-93553358D01*
X189232210Y-93553600D01*
X189261211Y-93549325D01*
X189294499Y-93551945D01*
X189901304Y-92945140D01*
X189925116Y-93002627D01*
X189997345Y-93110725D01*
X190089275Y-93202655D01*
X190197373Y-93274884D01*
X190254858Y-93298695D01*
X189648052Y-93905499D01*
X189648053Y-93905500D01*
X189729066Y-93964359D01*
X189938034Y-94070835D01*
X190161090Y-94143310D01*
X190392735Y-94180000D01*
X190627265Y-94180000D01*
X190858909Y-94143310D01*
X191081965Y-94070835D01*
X191290930Y-93964361D01*
X191371945Y-93905499D01*
X191371946Y-93905499D01*
X190765141Y-93298695D01*
X190822627Y-93274884D01*
X190930725Y-93202655D01*
X191022655Y-93110725D01*
X191094884Y-93002627D01*
X191118695Y-92945141D01*
X191725499Y-93551946D01*
X191725499Y-93551945D01*
X191784361Y-93470930D01*
X191890835Y-93261965D01*
X191963310Y-93038909D01*
X192000000Y-92807265D01*
X192000000Y-92572734D01*
X191963310Y-92341090D01*
X191890835Y-92118034D01*
X191784359Y-91909066D01*
X191725500Y-91828053D01*
X191725499Y-91828052D01*
X191118694Y-92434857D01*
X191094884Y-92377373D01*
X191022655Y-92269275D01*
X190930725Y-92177345D01*
X190822627Y-92105116D01*
X190765141Y-92081304D01*
X191371945Y-91474499D01*
X191371945Y-91474498D01*
X191290933Y-91415640D01*
X191081965Y-91309164D01*
X190858909Y-91236689D01*
X190627265Y-91200000D01*
X190392735Y-91200000D01*
X190161090Y-91236689D01*
X189938034Y-91309164D01*
X189729068Y-91415639D01*
X189648053Y-91474498D01*
X189648053Y-91474499D01*
X190254858Y-92081304D01*
X190197373Y-92105116D01*
X190089275Y-92177345D01*
X189997345Y-92269275D01*
X189925116Y-92377373D01*
X189901304Y-92434858D01*
X189294499Y-91828053D01*
X189261210Y-91830673D01*
X189257410Y-91829874D01*
X189253706Y-91831035D01*
X189223493Y-91822749D01*
X189192833Y-91816309D01*
X189188984Y-91813286D01*
X189186324Y-91812557D01*
X189176763Y-91803688D01*
X189159240Y-91789926D01*
X189154941Y-91785141D01*
X189106890Y-91719004D01*
X188940996Y-91553110D01*
X188940994Y-91553108D01*
X188940989Y-91553104D01*
X188751195Y-91415212D01*
X188751194Y-91415211D01*
X188751192Y-91415210D01*
X188638201Y-91357638D01*
X188542150Y-91308697D01*
X188319027Y-91236201D01*
X188203165Y-91217850D01*
X188087305Y-91199500D01*
X187852695Y-91199500D01*
X187775454Y-91211733D01*
X187620972Y-91236201D01*
X187397849Y-91308697D01*
X187188804Y-91415212D01*
X186999010Y-91553104D01*
X186999005Y-91553108D01*
X186833108Y-91719005D01*
X186833104Y-91719010D01*
X186800318Y-91764137D01*
X186744988Y-91806803D01*
X186675375Y-91812782D01*
X186613580Y-91780176D01*
X186599682Y-91764137D01*
X186566895Y-91719010D01*
X186566891Y-91719005D01*
X186400994Y-91553108D01*
X186400989Y-91553104D01*
X186211195Y-91415212D01*
X186211194Y-91415211D01*
X186211192Y-91415210D01*
X186098201Y-91357638D01*
X186002150Y-91308697D01*
X185779027Y-91236201D01*
X185663165Y-91217850D01*
X185547305Y-91199500D01*
X185312695Y-91199500D01*
X185235454Y-91211733D01*
X185080972Y-91236201D01*
X184857849Y-91308697D01*
X184648804Y-91415212D01*
X184459010Y-91553104D01*
X184459005Y-91553108D01*
X184293108Y-91719005D01*
X184293104Y-91719010D01*
X184260318Y-91764137D01*
X184204988Y-91806803D01*
X184135375Y-91812782D01*
X184073580Y-91780176D01*
X184059682Y-91764137D01*
X184026895Y-91719010D01*
X184026891Y-91719005D01*
X183860994Y-91553108D01*
X183860989Y-91553104D01*
X183671195Y-91415212D01*
X183671194Y-91415211D01*
X183671192Y-91415210D01*
X183558201Y-91357638D01*
X183462150Y-91308697D01*
X183239027Y-91236201D01*
X183123165Y-91217850D01*
X183007305Y-91199500D01*
X182772695Y-91199500D01*
X182695454Y-91211733D01*
X182540972Y-91236201D01*
X182317849Y-91308697D01*
X182108804Y-91415212D01*
X181919010Y-91553104D01*
X181919005Y-91553108D01*
X181753108Y-91719005D01*
X181753104Y-91719010D01*
X181720318Y-91764137D01*
X181664988Y-91806803D01*
X181595375Y-91812782D01*
X181533580Y-91780176D01*
X181519682Y-91764137D01*
X181486895Y-91719010D01*
X181486891Y-91719005D01*
X181320994Y-91553108D01*
X181320989Y-91553104D01*
X181131193Y-91415210D01*
X181018204Y-91357638D01*
X180967409Y-91309663D01*
X180950500Y-91247154D01*
X180950500Y-89199059D01*
X180950501Y-89199046D01*
X180950501Y-89030945D01*
X180950501Y-89030943D01*
X180909577Y-88878215D01*
X180880639Y-88828095D01*
X180830520Y-88741284D01*
X180718716Y-88629480D01*
X180718715Y-88629479D01*
X180714385Y-88625149D01*
X180714374Y-88625139D01*
X152101416Y-60012181D01*
X152067931Y-59950858D01*
X152072915Y-59881166D01*
X152114787Y-59825233D01*
X152180251Y-59800816D01*
X152189097Y-59800500D01*
X152198097Y-59800500D01*
X152431368Y-59763553D01*
X152464468Y-59752798D01*
X152655992Y-59690568D01*
X152866433Y-59583343D01*
X153057510Y-59444517D01*
X153224517Y-59277510D01*
X153249682Y-59242872D01*
X153305011Y-59200207D01*
X153374625Y-59194228D01*
X153436420Y-59226833D01*
X153450315Y-59242870D01*
X153475483Y-59277510D01*
X153642490Y-59444517D01*
X153833567Y-59583343D01*
X153932991Y-59634002D01*
X154044003Y-59690566D01*
X154044005Y-59690566D01*
X154044008Y-59690568D01*
X154122935Y-59716213D01*
X154268631Y-59763553D01*
X154501903Y-59800500D01*
X154501908Y-59800500D01*
X154738097Y-59800500D01*
X154971368Y-59763553D01*
X155004468Y-59752798D01*
X155195992Y-59690568D01*
X155406433Y-59583343D01*
X155597510Y-59444517D01*
X155764517Y-59277510D01*
X155789682Y-59242872D01*
X155845011Y-59200207D01*
X155914625Y-59194228D01*
X155976420Y-59226833D01*
X155990315Y-59242870D01*
X156015483Y-59277510D01*
X156182490Y-59444517D01*
X156373567Y-59583343D01*
X156472991Y-59634002D01*
X156584003Y-59690566D01*
X156584005Y-59690566D01*
X156584008Y-59690568D01*
X156662935Y-59716213D01*
X156808631Y-59763553D01*
X157041903Y-59800500D01*
X157041908Y-59800500D01*
X157278097Y-59800500D01*
X157511368Y-59763553D01*
X157544468Y-59752798D01*
X157735992Y-59690568D01*
X157946433Y-59583343D01*
X158137510Y-59444517D01*
X158304517Y-59277510D01*
X158329682Y-59242872D01*
X158385011Y-59200207D01*
X158454625Y-59194228D01*
X158516420Y-59226833D01*
X158530315Y-59242870D01*
X158555483Y-59277510D01*
X158722490Y-59444517D01*
X158913567Y-59583343D01*
X159012991Y-59634002D01*
X159124003Y-59690566D01*
X159124005Y-59690566D01*
X159124008Y-59690568D01*
X159202935Y-59716213D01*
X159348631Y-59763553D01*
X159581903Y-59800500D01*
X159581908Y-59800500D01*
X159818097Y-59800500D01*
X160051368Y-59763553D01*
X160084468Y-59752798D01*
X160275992Y-59690568D01*
X160486433Y-59583343D01*
X160677510Y-59444517D01*
X160844517Y-59277510D01*
X160869682Y-59242872D01*
X160925011Y-59200207D01*
X160994625Y-59194228D01*
X161056420Y-59226833D01*
X161070315Y-59242870D01*
X161095483Y-59277510D01*
X161262490Y-59444517D01*
X161453567Y-59583343D01*
X161552991Y-59634002D01*
X161664003Y-59690566D01*
X161664005Y-59690566D01*
X161664008Y-59690568D01*
X161742935Y-59716213D01*
X161888631Y-59763553D01*
X162121903Y-59800500D01*
X162121908Y-59800500D01*
X162358097Y-59800500D01*
X162591368Y-59763553D01*
X162624468Y-59752798D01*
X162815992Y-59690568D01*
X163026433Y-59583343D01*
X163217510Y-59444517D01*
X163384517Y-59277510D01*
X163409682Y-59242872D01*
X163465011Y-59200207D01*
X163534625Y-59194228D01*
X163596420Y-59226833D01*
X163610315Y-59242870D01*
X163635483Y-59277510D01*
X163802490Y-59444517D01*
X163993567Y-59583343D01*
X164092991Y-59634002D01*
X164204003Y-59690566D01*
X164204005Y-59690566D01*
X164204008Y-59690568D01*
X164282935Y-59716213D01*
X164428631Y-59763553D01*
X164661903Y-59800500D01*
X164661908Y-59800500D01*
X164898097Y-59800500D01*
X165131368Y-59763553D01*
X165164468Y-59752798D01*
X165355992Y-59690568D01*
X165566433Y-59583343D01*
X165757510Y-59444517D01*
X165924517Y-59277510D01*
X166063343Y-59086433D01*
X166170568Y-58875992D01*
X166243553Y-58651368D01*
X166268637Y-58492993D01*
X166280500Y-58418097D01*
X166280500Y-58181902D01*
X166243553Y-57948631D01*
X166170566Y-57724003D01*
X166063342Y-57513566D01*
X166049999Y-57495201D01*
X165924517Y-57322490D01*
X165757510Y-57155483D01*
X165566433Y-57016657D01*
X165355996Y-56909433D01*
X165131368Y-56836446D01*
X164898097Y-56799500D01*
X164898092Y-56799500D01*
X164661908Y-56799500D01*
X164661903Y-56799500D01*
X164428631Y-56836446D01*
X164204003Y-56909433D01*
X163993566Y-57016657D01*
X163910047Y-57077338D01*
X163802490Y-57155483D01*
X163802488Y-57155485D01*
X163802487Y-57155485D01*
X163635484Y-57322488D01*
X163610318Y-57357127D01*
X163554987Y-57399792D01*
X163485374Y-57405771D01*
X163423579Y-57373165D01*
X163409682Y-57357127D01*
X163384517Y-57322490D01*
X163217510Y-57155483D01*
X163026433Y-57016657D01*
X162815996Y-56909433D01*
X162591368Y-56836446D01*
X162358097Y-56799500D01*
X162358092Y-56799500D01*
X162121908Y-56799500D01*
X162121903Y-56799500D01*
X161888631Y-56836446D01*
X161664003Y-56909433D01*
X161453566Y-57016657D01*
X161370047Y-57077338D01*
X161262490Y-57155483D01*
X161262488Y-57155485D01*
X161262487Y-57155485D01*
X161095484Y-57322488D01*
X161070318Y-57357127D01*
X161014987Y-57399792D01*
X160945374Y-57405771D01*
X160883579Y-57373165D01*
X160869682Y-57357127D01*
X160844517Y-57322490D01*
X160677510Y-57155483D01*
X160486433Y-57016657D01*
X160275996Y-56909433D01*
X160051368Y-56836446D01*
X159818097Y-56799500D01*
X159818092Y-56799500D01*
X159581908Y-56799500D01*
X159581903Y-56799500D01*
X159348631Y-56836446D01*
X159124003Y-56909433D01*
X158913566Y-57016657D01*
X158830047Y-57077338D01*
X158722490Y-57155483D01*
X158722488Y-57155485D01*
X158722487Y-57155485D01*
X158555484Y-57322488D01*
X158530318Y-57357127D01*
X158474987Y-57399792D01*
X158405374Y-57405771D01*
X158343579Y-57373165D01*
X158329682Y-57357127D01*
X158304517Y-57322490D01*
X158137510Y-57155483D01*
X157946433Y-57016657D01*
X157735996Y-56909433D01*
X157511368Y-56836446D01*
X157278097Y-56799500D01*
X157278092Y-56799500D01*
X157041908Y-56799500D01*
X157041903Y-56799500D01*
X156808631Y-56836446D01*
X156584003Y-56909433D01*
X156373566Y-57016657D01*
X156290047Y-57077338D01*
X156182490Y-57155483D01*
X156182488Y-57155485D01*
X156182487Y-57155485D01*
X156015484Y-57322488D01*
X155990318Y-57357127D01*
X155934987Y-57399792D01*
X155865374Y-57405771D01*
X155803579Y-57373165D01*
X155789682Y-57357127D01*
X155764517Y-57322490D01*
X155597510Y-57155483D01*
X155406433Y-57016657D01*
X155195996Y-56909433D01*
X154971368Y-56836446D01*
X154738097Y-56799500D01*
X154738092Y-56799500D01*
X154501908Y-56799500D01*
X154501903Y-56799500D01*
X154268631Y-56836446D01*
X154044003Y-56909433D01*
X153833566Y-57016657D01*
X153750047Y-57077338D01*
X153642490Y-57155483D01*
X153642488Y-57155485D01*
X153642487Y-57155485D01*
X153475484Y-57322488D01*
X153450318Y-57357127D01*
X153394987Y-57399792D01*
X153325374Y-57405771D01*
X153263579Y-57373165D01*
X153249682Y-57357127D01*
X153224517Y-57322490D01*
X153057510Y-57155483D01*
X152866433Y-57016657D01*
X152655996Y-56909433D01*
X152431368Y-56836446D01*
X152198097Y-56799500D01*
X152198092Y-56799500D01*
X151961908Y-56799500D01*
X151961903Y-56799500D01*
X151728631Y-56836446D01*
X151504003Y-56909433D01*
X151293566Y-57016657D01*
X151210047Y-57077338D01*
X151102490Y-57155483D01*
X151102488Y-57155485D01*
X151102487Y-57155485D01*
X150935484Y-57322488D01*
X150910318Y-57357127D01*
X150854987Y-57399792D01*
X150785374Y-57405771D01*
X150723579Y-57373165D01*
X150709682Y-57357127D01*
X150684517Y-57322490D01*
X150517510Y-57155483D01*
X150326433Y-57016657D01*
X150115996Y-56909433D01*
X149891368Y-56836446D01*
X149658097Y-56799500D01*
X149658092Y-56799500D01*
X149421908Y-56799500D01*
X149421903Y-56799500D01*
X149188631Y-56836446D01*
X148964003Y-56909433D01*
X148753566Y-57016657D01*
X148670047Y-57077338D01*
X148562490Y-57155483D01*
X148562488Y-57155485D01*
X148562487Y-57155485D01*
X148395484Y-57322488D01*
X148370318Y-57357127D01*
X148314987Y-57399792D01*
X148245374Y-57405771D01*
X148183579Y-57373165D01*
X148169682Y-57357127D01*
X148144517Y-57322490D01*
X147977510Y-57155483D01*
X147786433Y-57016657D01*
X147575996Y-56909433D01*
X147351368Y-56836446D01*
X147118097Y-56799500D01*
X147118092Y-56799500D01*
X146881908Y-56799500D01*
X146881903Y-56799500D01*
X146648631Y-56836446D01*
X146424003Y-56909433D01*
X146213566Y-57016657D01*
X146130047Y-57077338D01*
X146022490Y-57155483D01*
X146022488Y-57155485D01*
X146022487Y-57155485D01*
X145855484Y-57322488D01*
X145830318Y-57357127D01*
X145774987Y-57399792D01*
X145705374Y-57405771D01*
X145643579Y-57373165D01*
X145629682Y-57357127D01*
X145604517Y-57322490D01*
X145437510Y-57155483D01*
X145246433Y-57016657D01*
X145035996Y-56909433D01*
X144811368Y-56836446D01*
X144578097Y-56799500D01*
X144578092Y-56799500D01*
X144341908Y-56799500D01*
X144341903Y-56799500D01*
X144108631Y-56836446D01*
X143884003Y-56909433D01*
X143673566Y-57016657D01*
X143590047Y-57077338D01*
X143482490Y-57155483D01*
X143482488Y-57155485D01*
X143482487Y-57155485D01*
X143315484Y-57322488D01*
X143290318Y-57357127D01*
X143234987Y-57399792D01*
X143165374Y-57405771D01*
X143103579Y-57373165D01*
X143089682Y-57357127D01*
X143064517Y-57322490D01*
X142897510Y-57155483D01*
X142706433Y-57016657D01*
X142495996Y-56909433D01*
X142271368Y-56836446D01*
X142038097Y-56799500D01*
X142038092Y-56799500D01*
X141801908Y-56799500D01*
X141801903Y-56799500D01*
X141568631Y-56836446D01*
X141344003Y-56909433D01*
X141133566Y-57016657D01*
X141050047Y-57077338D01*
X140942490Y-57155483D01*
X140942488Y-57155485D01*
X140942487Y-57155485D01*
X140775484Y-57322488D01*
X140750318Y-57357127D01*
X140694987Y-57399792D01*
X140625374Y-57405771D01*
X140563579Y-57373165D01*
X140549682Y-57357127D01*
X140524517Y-57322490D01*
X140357510Y-57155483D01*
X140166433Y-57016657D01*
X139955996Y-56909433D01*
X139731368Y-56836446D01*
X139498097Y-56799500D01*
X139498092Y-56799500D01*
X139261908Y-56799500D01*
X139261903Y-56799500D01*
X139028631Y-56836446D01*
X138804003Y-56909433D01*
X138593566Y-57016657D01*
X138510047Y-57077338D01*
X138402490Y-57155483D01*
X138402488Y-57155485D01*
X138402487Y-57155485D01*
X138235484Y-57322488D01*
X138210318Y-57357127D01*
X138154987Y-57399792D01*
X138085374Y-57405771D01*
X138023579Y-57373165D01*
X138009682Y-57357127D01*
X137984517Y-57322490D01*
X137817510Y-57155483D01*
X137626433Y-57016657D01*
X137415996Y-56909433D01*
X137191368Y-56836446D01*
X136958097Y-56799500D01*
X136958092Y-56799500D01*
X136721908Y-56799500D01*
X136721903Y-56799500D01*
X136488631Y-56836446D01*
X136264003Y-56909433D01*
X136053566Y-57016657D01*
X135970047Y-57077338D01*
X135862490Y-57155483D01*
X135862488Y-57155485D01*
X135862487Y-57155485D01*
X135695484Y-57322488D01*
X135670318Y-57357127D01*
X135614987Y-57399792D01*
X135545374Y-57405771D01*
X135483579Y-57373165D01*
X135469682Y-57357127D01*
X135444517Y-57322490D01*
X135277510Y-57155483D01*
X135086433Y-57016657D01*
X134875996Y-56909433D01*
X134651368Y-56836446D01*
X134418097Y-56799500D01*
X134418092Y-56799500D01*
X134181908Y-56799500D01*
X134181903Y-56799500D01*
X133948631Y-56836446D01*
X133724003Y-56909433D01*
X133513566Y-57016657D01*
X133430047Y-57077338D01*
X133322490Y-57155483D01*
X133322488Y-57155485D01*
X133322487Y-57155485D01*
X133155482Y-57322490D01*
X133112451Y-57381717D01*
X133057120Y-57424382D01*
X133002405Y-57432448D01*
X132982658Y-57430893D01*
X132242962Y-58170590D01*
X132225925Y-58107007D01*
X132160099Y-57992993D01*
X132067007Y-57899901D01*
X131952993Y-57834075D01*
X131889409Y-57817037D01*
X132629105Y-57077340D01*
X132629104Y-57077338D01*
X132546174Y-57017087D01*
X132335802Y-56909897D01*
X132111247Y-56836934D01*
X132111248Y-56836934D01*
X131878052Y-56800000D01*
X131641948Y-56800000D01*
X131408752Y-56836934D01*
X131184197Y-56909897D01*
X130973830Y-57017084D01*
X130890894Y-57077340D01*
X131630591Y-57817037D01*
X131567007Y-57834075D01*
X131452993Y-57899901D01*
X131359901Y-57992993D01*
X131294075Y-58107007D01*
X131277037Y-58170590D01*
X130537340Y-57430893D01*
X130517593Y-57432448D01*
X130513860Y-57431663D01*
X130510222Y-57432808D01*
X130479936Y-57424537D01*
X130449215Y-57418084D01*
X130445429Y-57415114D01*
X130442821Y-57414402D01*
X130433431Y-57405701D01*
X130415712Y-57391800D01*
X130411370Y-57386978D01*
X130364517Y-57322490D01*
X130197510Y-57155483D01*
X130006433Y-57016657D01*
X129795996Y-56909433D01*
X129571368Y-56836446D01*
X129338097Y-56799500D01*
X129338092Y-56799500D01*
X129101908Y-56799500D01*
X129101903Y-56799500D01*
X128868631Y-56836446D01*
X128644003Y-56909433D01*
X128433566Y-57016657D01*
X128350047Y-57077338D01*
X128242490Y-57155483D01*
X128242488Y-57155485D01*
X128242487Y-57155485D01*
X128075485Y-57322487D01*
X128075485Y-57322488D01*
X128075483Y-57322490D01*
X128032452Y-57381717D01*
X127936657Y-57513566D01*
X127829433Y-57724003D01*
X127756446Y-57948631D01*
X127719500Y-58181902D01*
X127719500Y-58418097D01*
X127756447Y-58651369D01*
X127756447Y-58651372D01*
X127797450Y-58777564D01*
X127799445Y-58847405D01*
X127767200Y-58903563D01*
X121131286Y-65539478D01*
X121019481Y-65651282D01*
X121019479Y-65651285D01*
X120969361Y-65738094D01*
X120969359Y-65738096D01*
X120940425Y-65788209D01*
X120940424Y-65788210D01*
X120940423Y-65788215D01*
X120899499Y-65940943D01*
X120899499Y-65940945D01*
X120899499Y-66109046D01*
X120899500Y-66109059D01*
X120899500Y-87699902D01*
X120879815Y-87766941D01*
X120863181Y-87787583D01*
X116881284Y-91769481D01*
X116769483Y-91881281D01*
X116769481Y-91881284D01*
X116690423Y-92018214D01*
X116687265Y-92030000D01*
X116649499Y-92170943D01*
X116649499Y-92170945D01*
X116649499Y-92329054D01*
X116649498Y-92329054D01*
X111500500Y-92329054D01*
X111500500Y-53378711D01*
X114149500Y-53378711D01*
X114149500Y-53621288D01*
X114181161Y-53861785D01*
X114243947Y-54096104D01*
X114336773Y-54320205D01*
X114336776Y-54320212D01*
X114458064Y-54530289D01*
X114458066Y-54530292D01*
X114458067Y-54530293D01*
X114605733Y-54722736D01*
X114605739Y-54722743D01*
X114777256Y-54894260D01*
X114777262Y-54894265D01*
X114969711Y-55041936D01*
X115179788Y-55163224D01*
X115403900Y-55256054D01*
X115638211Y-55318838D01*
X115818586Y-55342584D01*
X115878711Y-55350500D01*
X115878712Y-55350500D01*
X116121289Y-55350500D01*
X116169388Y-55344167D01*
X116361789Y-55318838D01*
X116596100Y-55256054D01*
X116820212Y-55163224D01*
X117030289Y-55041936D01*
X117222738Y-54894265D01*
X117394265Y-54722738D01*
X117541936Y-54530289D01*
X117663224Y-54320212D01*
X117756054Y-54096100D01*
X117818838Y-53861789D01*
X117850500Y-53621288D01*
X117850500Y-53378712D01*
X117850500Y-53378711D01*
X190149500Y-53378711D01*
X190149500Y-53621288D01*
X190181161Y-53861785D01*
X190243947Y-54096104D01*
X190336773Y-54320205D01*
X190336776Y-54320212D01*
X190458064Y-54530289D01*
X190458066Y-54530292D01*
X190458067Y-54530293D01*
X190605733Y-54722736D01*
X190605739Y-54722743D01*
X190777256Y-54894260D01*
X190777262Y-54894265D01*
X190969711Y-55041936D01*
X191179788Y-55163224D01*
X191403900Y-55256054D01*
X191638211Y-55318838D01*
X191818586Y-55342584D01*
X191878711Y-55350500D01*
X191878712Y-55350500D01*
X192121289Y-55350500D01*
X192169388Y-55344167D01*
X192361789Y-55318838D01*
X192596100Y-55256054D01*
X192820212Y-55163224D01*
X193030289Y-55041936D01*
X193222738Y-54894265D01*
X193394265Y-54722738D01*
X193541936Y-54530289D01*
X193663224Y-54320212D01*
X193756054Y-54096100D01*
X193818838Y-53861789D01*
X193850500Y-53621288D01*
X193850500Y-53378712D01*
X193818838Y-53138211D01*
X193756054Y-52903900D01*
X193663224Y-52679788D01*
X193541936Y-52469711D01*
X193394265Y-52277262D01*
X193394260Y-52277256D01*
X193222743Y-52105739D01*
X193222736Y-52105733D01*
X193030293Y-51958067D01*
X193030292Y-51958066D01*
X193030289Y-51958064D01*
X192820212Y-51836776D01*
X192820205Y-51836773D01*
X192596104Y-51743947D01*
X192361785Y-51681161D01*
X192121289Y-51649500D01*
X192121288Y-51649500D01*
X191878712Y-51649500D01*
X191878711Y-51649500D01*
X191638214Y-51681161D01*
X191403895Y-51743947D01*
X191179794Y-51836773D01*
X191179785Y-51836777D01*
X190969706Y-51958067D01*
X190777263Y-52105733D01*
X190777256Y-52105739D01*
X190605739Y-52277256D01*
X190605733Y-52277263D01*
X190458067Y-52469706D01*
X190336777Y-52679785D01*
X190336773Y-52679794D01*
X190243947Y-52903895D01*
X190181161Y-53138214D01*
X190149500Y-53378711D01*
X117850500Y-53378711D01*
X117818838Y-53138211D01*
X117756054Y-52903900D01*
X117663224Y-52679788D01*
X117541936Y-52469711D01*
X117394265Y-52277262D01*
X117394260Y-52277256D01*
X117222743Y-52105739D01*
X117222736Y-52105733D01*
X117030293Y-51958067D01*
X117030292Y-51958066D01*
X117030289Y-51958064D01*
X116820212Y-51836776D01*
X116820205Y-51836773D01*
X116596104Y-51743947D01*
X116361785Y-51681161D01*
X116121289Y-51649500D01*
X116121288Y-51649500D01*
X115878712Y-51649500D01*
X115878711Y-51649500D01*
X115638214Y-51681161D01*
X115403895Y-51743947D01*
X115179794Y-51836773D01*
X115179785Y-51836777D01*
X114969706Y-51958067D01*
X114777263Y-52105733D01*
X114777256Y-52105739D01*
X114605739Y-52277256D01*
X114605733Y-52277263D01*
X114458067Y-52469706D01*
X114336777Y-52679785D01*
X114336773Y-52679794D01*
X114243947Y-52903895D01*
X114181161Y-53138214D01*
X114149500Y-53378711D01*
X111500500Y-53378711D01*
X111500500Y-49124500D01*
X111520185Y-49057461D01*
X111572989Y-49011706D01*
X111624500Y-49000500D01*
X197375500Y-49000500D01*
X197442539Y-49020185D01*
G37*
%TD.AperFunction*%
%TD*%
M02*
